<?xml version="1.0" encoding="UTF-8" standalone="no"?>
<svg width="716px" height="501px" viewBox="0 0 716 501" version="1.1" xmlns="http://www.w3.org/2000/svg"
     xmlns:xlink="http://www.w3.org/1999/xlink" xmlns:sketch="http://www.bohemiancoding.com/sketch/ns">
    <!-- Generator: Sketch 3.4.4 (17249) - http://www.bohemiancoding.com/sketch -->
    <title>Layout - Mainframe - Cards - Dashboard</title>
    <desc>Created with Sketch.</desc>
    <defs>
        <filter x="-50%" y="-50%" width="200%" height="200%" filterUnits="objectBoundingBox" id="filter-1">
            <feOffset dx="0" dy="2" in="SourceAlpha" result="shadowOffsetOuter1"></feOffset>
            <feGaussianBlur stdDeviation="2" in="shadowOffsetOuter1" result="shadowBlurOuter1"></feGaussianBlur>
            <feColorMatrix values="0 0 0 0 0   0 0 0 0 0   0 0 0 0 0  0 0 0 0.175 0" in="shadowBlurOuter1" type="matrix"
                           result="shadowMatrixOuter1"></feColorMatrix>
            <feMerge>
                <feMergeNode in="shadowMatrixOuter1"></feMergeNode>
                <feMergeNode in="SourceGraphic"></feMergeNode>
            </feMerge>
        </filter>
        <filter x="-50%" y="-50%" width="200%" height="200%" filterUnits="objectBoundingBox" id="filter-2">
            <feOffset dx="0" dy="2" in="SourceAlpha" result="shadowOffsetOuter1"></feOffset>
            <feGaussianBlur stdDeviation="2" in="shadowOffsetOuter1" result="shadowBlurOuter1"></feGaussianBlur>
            <feColorMatrix values="0 0 0 0 0   0 0 0 0 0   0 0 0 0 0  0 0 0 0.175 0" in="shadowBlurOuter1" type="matrix"
                           result="shadowMatrixOuter1"></feColorMatrix>
            <feMerge>
                <feMergeNode in="shadowMatrixOuter1"></feMergeNode>
                <feMergeNode in="SourceGraphic"></feMergeNode>
            </feMerge>
        </filter>
        <filter x="-50%" y="-50%" width="200%" height="200%" filterUnits="objectBoundingBox" id="filter-3">
            <feOffset dx="0" dy="2" in="SourceAlpha" result="shadowOffsetOuter1"></feOffset>
            <feGaussianBlur stdDeviation="2" in="shadowOffsetOuter1" result="shadowBlurOuter1"></feGaussianBlur>
            <feColorMatrix values="0 0 0 0 0   0 0 0 0 0   0 0 0 0 0  0 0 0 0.175 0" in="shadowBlurOuter1" type="matrix"
                           result="shadowMatrixOuter1"></feColorMatrix>
            <feMerge>
                <feMergeNode in="shadowMatrixOuter1"></feMergeNode>
                <feMergeNode in="SourceGraphic"></feMergeNode>
            </feMerge>
        </filter>
    </defs>
    <g id="--Images" stroke="none" stroke-width="1" fill="none" fill-rule="evenodd" sketch:type="MSPage">
        <g id="Layout---Mainframe---Cards---Dashboard" sketch:type="MSArtboardGroup">
            <g id="Group" sketch:type="MSLayerGroup">
                <g transform="translate(0.000000, 0.687786)" sketch:type="MSShapeGroup">
                    <rect id="Bowling-Alley-BG" fill="#F4F4F4" x="0" y="26.9498969" width="99.9602051"
                          height="474.564817"></rect>
                    <g id="Nav---Top-Bar" transform="translate(0.000000, 0.234375)" fill="#2F384F">
                        <rect id="BG" x="0" y="0" width="716.132812" height="27.4441271"></rect>
                    </g>
                    <g id="Menu-Button" transform="translate(0.000000, 26.949897)" fill="#181D2C">
                        <rect id="BG" x="0" y="0" width="99.9602051" height="26.2297852"></rect>
                    </g>
                    <rect id="Bowling-Alley-BG" fill="#C4CDD3"
                          transform="translate(408.046356, 264.595095) scale(-1, 1) translate(-408.046356, -264.595095) "
                          x="99.9602051" y="27.6754761" width="616.172302" height="473.839237"></rect>
                </g>
                <g id="Rectangle-158-+-Rectangle-158-Copy-2-+-Rectangle-158-Copy-3"
                   transform="translate(124.000000, 56.000000)" fill="#FFFFFF" sketch:type="MSShapeGroup">
                    <path
                        d="M0.72265625,4.99374537 C0.72265625,2.2357759 2.9548189,-8.49979265e-08 5.7247904,-5.36468841e-08 L556.997866,6.18576227e-06 C559.760468,6.21702991e-06 562,2.24609992 562,4.99375173 L562,195.006255 C562,197.764224 559.767837,200 556.997866,200 L5.7247904,199.999994 C2.96218799,199.999994 0.72265625,197.7539 0.72265625,195.006248 L0.72265625,4.99374537 Z"
                        id="Rectangle-158" filter="url(#filter-1)"></path>
                    <path
                        d="M0.72265625,221.993745 C0.72265625,219.235776 2.96255514,217 5.72870753,217 L268.993949,217.000006 C271.758714,217.000006 274,219.2461 274,221.993752 L274,412.006255 C274,414.764224 271.760101,417 268.993949,417 L5.72870753,416.999994 C2.96394175,416.999994 0.72265625,414.7539 0.72265625,412.006248 L0.72265625,221.993745 Z"
                        id="Rectangle-158-Copy-2" filter="url(#filter-2)"></path>
                    <path
                        d="M288.722656,221.993745 C288.722656,219.235776 290.962555,217 293.728708,217 L556.993949,217.000006 C559.758714,217.000006 562,219.2461 562,221.993752 L562,412.006255 C562,414.764224 559.760101,417 556.993949,417 L293.728708,416.999994 C290.963942,416.999994 288.722656,414.7539 288.722656,412.006248 L288.722656,221.993745 Z"
                        id="Rectangle-158-Copy-3" filter="url(#filter-3)"></path>
                </g>
                <rect id="Rectangle-161" fill="#E2E2E2" sketch:type="MSShapeGroup" x="138.5" y="284.658203" width="121"
                      height="11.0839844"></rect>
                <rect id="Rectangle-161-Copy-3" fill="#E2E2E2" sketch:type="MSShapeGroup" x="375.572266" y="284.658203"
                      width="12.5039062" height="11.0839844"></rect>
                <rect id="Rectangle-161-Copy-4" fill="#E2E2E2" sketch:type="MSShapeGroup" x="358.5" y="284.658203"
                      width="12.5039062" height="11.0839844"></rect>
                <rect id="Rectangle-161-Copy-5" fill="#E2E2E2" sketch:type="MSShapeGroup" x="341.5" y="284.658203"
                      width="12.5039062" height="11.0839844"></rect>
                <rect id="Rectangle-161-Copy-2" fill="#E2E2E2" sketch:type="MSShapeGroup" x="138.5" y="66.7285156"
                      width="158.103516" height="11.0839844"></rect>
                <rect id="Rectangle-161-Copy" fill="#E2E2E2" sketch:type="MSShapeGroup" x="426.728516" y="284.658203"
                      width="121" height="11.0839844"></rect>
                <rect id="Rectangle-161-Copy-3" fill="#E2E2E2" sketch:type="MSShapeGroup" x="663.800781" y="284.658203"
                      width="12.5039063" height="11.0839844"></rect>
                <rect id="Rectangle-161-Copy-4" fill="#E2E2E2" sketch:type="MSShapeGroup" x="646.728516" y="284.658203"
                      width="12.5039063" height="11.0839844"></rect>
                <rect id="Rectangle-161-Copy-5" fill="#E2E2E2" sketch:type="MSShapeGroup" x="629.728516" y="284.658203"
                      width="12.5039063" height="11.0839844"></rect>
                <rect id="Rectangle-161-Copy-3" fill="#E2E2E2" sketch:type="MSShapeGroup" x="663.548828" y="66.7285156"
                      width="12.5039063" height="11.0839844"></rect>
                <rect id="Rectangle-161-Copy-4" fill="#E2E2E2" sketch:type="MSShapeGroup" x="646.476562" y="66.7285156"
                      width="12.5039063" height="11.0839844"></rect>
                <rect id="Rectangle-161-Copy-5" fill="#E2E2E2" sketch:type="MSShapeGroup" x="629.476562" y="66.7285156"
                      width="12.5039063" height="11.0839844"></rect>
            </g>
        </g>
    </g>
</svg>
