<svg id="Layer_1" data-name="Layer 1" xmlns="http://www.w3.org/2000/svg" viewBox="0 0 989.95 383.98"><defs><style>.cls-1{fill:#fff;}.cls-2{fill:#ff6b00;}</style></defs><title>Artboard 1</title><path class="cls-1" d="M5.63,226.16A3.16,3.16,0,0,1,8.79,223H65.17q22.93,0,34.7,11.76a29.9,29.9,0,0,1,8.91,22v.38a32.88,32.88,0,0,1-1.61,10.61A30.12,30.12,0,0,1,103,276a30.64,30.64,0,0,1-6,6.17c-.61.47-1.23.92-1.85,1.36A3.16,3.16,0,0,0,95.6,289a44.53,44.53,0,0,1,13.28,9.08q7.29,7.41,7.3,20.86v.38a33.92,33.92,0,0,1-3.51,15.74,31.25,31.25,0,0,1-10,11.38,47.63,47.63,0,0,1-15.45,6.92,79.48,79.48,0,0,1-20.2,2.37H8.79a3.15,3.15,0,0,1-3.16-3.16Zm54.8,52.78q11.37,0,18.2-4.43T85.46,261v-.38a14.53,14.53,0,0,0-6-12.36q-6-4.42-17.36-4.43H31.73A3.17,3.17,0,0,0,28.57,247v28.77a3.16,3.16,0,0,0,3.16,3.15Zm6.82,55.94q12,0,18.78-4.53t6.82-13.58v-.37a15,15,0,0,0-6.73-13.11q-6.74-4.64-20.57-4.63H31.73a3.17,3.17,0,0,0-3.16,3.16v29.9a3.16,3.16,0,0,0,3.16,3.16Z"/><path class="cls-1" d="M235.05,221.82h16.64a3.53,3.53,0,0,1,3.53,3.53V352.21a3.53,3.53,0,0,1-3.53,3.53H235.05a3.53,3.53,0,0,1-3.53-3.53V225.35a3.53,3.53,0,0,1,3.53-3.53"/><path class="cls-1" d="M276.5,221.82h16.64a3.54,3.54,0,0,1,3.53,3.53V352.21a3.54,3.54,0,0,1-3.53,3.53H276.5a3.53,3.53,0,0,1-3.53-3.53V225.35a3.53,3.53,0,0,1,3.53-3.53"/><path class="cls-1" d="M314.42,221.82h11.43a11.87,11.87,0,0,1,11.86,11.87v37.53a40.38,40.38,0,0,1,10.55-7.84q6.92-3.81,17.76-3.81a40.35,40.35,0,0,1,15.46,2.81,30.3,30.3,0,0,1,11.35,7.93,35.23,35.23,0,0,1,6.92,12.35,49.82,49.82,0,0,1,2.41,15.86v54a3.24,3.24,0,0,1-3.25,3.25H381.72a3.25,3.25,0,0,1-3.25-3.25V298.72q0-9-4.92-14a17.25,17.25,0,0,0-12.75-4.92,21.67,21.67,0,0,0-9,1.91,21.1,21.1,0,0,0-7.23,5.32,25.41,25.41,0,0,0-4.72,7.93,27.27,27.27,0,0,0-1.7,9.73v47.75a3.25,3.25,0,0,1-3.26,3.25H317.68a3.25,3.25,0,0,1-3.26-3.25V221.82Z"/><path class="cls-1" d="M599.28,261.58h14.94a4,4,0,0,1,4,3.76l.39,6.88a51.56,51.56,0,0,1,4.32-4.22,32.65,32.65,0,0,1,6-4.11,37.24,37.24,0,0,1,7.93-3.12,38.33,38.33,0,0,1,10-1.2q17.65,0,26.9,10.54T683,298.52v53a4.21,4.21,0,0,1-4.22,4.21H663.56a4.2,4.2,0,0,1-4.21-4.21V298.72q0-9-4.92-14a17.25,17.25,0,0,0-12.75-4.92,21.72,21.72,0,0,0-9,1.91,21.1,21.1,0,0,0-7.23,5.32A25.39,25.39,0,0,0,620.7,295a27.27,27.27,0,0,0-1.71,9.73v46.79a4.21,4.21,0,0,1-4.21,4.21H599.51a4.2,4.2,0,0,1-4.21-4.21v-86a4,4,0,0,1,4-4"/><path class="cls-1" d="M709.07,270.13a8.17,8.17,0,0,1-16.33,0,8.1,8.1,0,0,1,1.1-4.09,7.9,7.9,0,0,1,3-3,8.13,8.13,0,0,1,8.15,0,8.22,8.22,0,0,1,4.09,7.06m-1.12,0a6.87,6.87,0,0,0-1-3.52,7,7,0,0,0-2.57-2.58,6.84,6.84,0,0,0-3.5-.95,7,7,0,0,0-3.54.95,6.9,6.9,0,0,0-2.59,2.58,7,7,0,0,0-.94,3.54,6.89,6.89,0,0,0,.94,3.51,7.12,7.12,0,0,0,6.13,3.51,6.8,6.8,0,0,0,3.5-.95,7,7,0,0,0,2.58-2.57,6.88,6.88,0,0,0,.94-3.52m-10.46-4.75h3.93a5,5,0,0,1,2,.28,2.18,2.18,0,0,1,1,.89,2.93,2.93,0,0,1,.12,2.69,2.74,2.74,0,0,1-.9.84,1.81,1.81,0,0,1,.86.72,3.32,3.32,0,0,1,.21,1.4v1.06a2.18,2.18,0,0,0,.33,1.24l.16.25h-1.66a6.19,6.19,0,0,1-.23-1.37l-.08-1.15a2,2,0,0,0-.2-.89,1,1,0,0,0-.46-.37,3.85,3.85,0,0,0-1.2-.12H699v3.9h-1.48Zm1.48,1.36v2.78h2.33a3,3,0,0,0,1.44-.24,1.24,1.24,0,0,0,.56-1.16,1.26,1.26,0,0,0-.41-1,2.37,2.37,0,0,0-1.5-.34Z"/><path class="cls-1" d="M526,261.29h14.81a4,4,0,0,1,4,3.84l.41,8a46.21,46.21,0,0,1,4.12-4.42,31.78,31.78,0,0,1,5.92-4.41,37.69,37.69,0,0,1,7.93-3.42,35.05,35.05,0,0,1,10.34-1.4,41.71,41.71,0,0,1,6.12.4c.78.11,1.55.27,2.34.45a3.38,3.38,0,0,1,2.53,4L581.18,280a3.37,3.37,0,0,1-4.1,2.54c-.53-.13-1.07-.24-1.6-.32a37.76,37.76,0,0,0-5.93-.41,26.8,26.8,0,0,0-9.23,1.61,21.9,21.9,0,0,0-7.63,4.62,22.36,22.36,0,0,0-7,16.66v46.83a4,4,0,0,1-4,4H525.94a4,4,0,0,1-4-4V265.33a4,4,0,0,1,4-4"/><path class="cls-1" d="M195.61,263A3.66,3.66,0,0,0,192,266.7v45.76c0,12.53-8.95,21-19.88,21h-4.35c-10.93,0-19.88-8.42-19.88-21V266.7a3.66,3.66,0,0,0-3.66-3.66H129.65A3.65,3.65,0,0,0,126,266.7v50.77c0,22.07,20.19,37.4,41.53,37.6h5.09c21.21-.36,41.18-15.65,41.18-37.59V266.7a3.66,3.66,0,0,0-3.66-3.66Z"/><path class="cls-1" d="M411.79,309a50.92,50.92,0,0,1,3.71-19.38,49.52,49.52,0,0,1,10.34-16,49,49,0,0,1,16-10.84,54.69,54.69,0,0,1,41.16,0,48.21,48.21,0,0,1,26.3,26.8,51.55,51.55,0,0,1-10.33,54.81,48,48,0,0,1-16,10.94,54.69,54.69,0,0,1-41.16,0,48,48,0,0,1-16-10.94,51,51,0,0,1-14-35.43m50.59,29.91a24.57,24.57,0,0,0,11.85-2.71,25.22,25.22,0,0,0,8.33-7.13,31.15,31.15,0,0,0,4.92-9.63A35.37,35.37,0,0,0,489.09,309a35.73,35.73,0,0,0-1.61-10.34,29.83,29.83,0,0,0-4.92-9.64,25.89,25.89,0,0,0-8.33-7,27.24,27.24,0,0,0-23.69,0,25.68,25.68,0,0,0-8.33,7,29.83,29.83,0,0,0-4.92,9.64,34.33,34.33,0,0,0,0,20.78,31.15,31.15,0,0,0,4.92,9.63,25,25,0,0,0,8.33,7.13,24.5,24.5,0,0,0,11.84,2.71"/><path class="cls-2" d="M848.14,328.09c3.53,4.27,8.27,7.41,11.82,11.8,4.72,5.85,12.28,22.93,12.33,24.5,0,3.9-3.14,3.68-6.21,5.45-1.46.54-2.32,2.07-3.74-.31a2.42,2.42,0,0,0-2.54-.32c-.88.38-.8,1.72-.7,3a1.8,1.8,0,0,1-1.18,1.87,13.5,13.5,0,0,1-8.12.13c-2.27-.68-3.9-.76-4.58-4.31,0-.1-.05-.21-.08-.31-4.09-11,4.29-4.62-11.86-33.39-.2-.49-.4-1-.59-1.47a20.21,20.21,0,0,0-8.8-12.37,15.25,15.25,0,0,1-6.27-7.38,24.78,24.78,0,0,0-14.44-14.12c-4.25-1.7-8.6-3.21-12.85-5a65.24,65.24,0,0,1-29.48-24.06,16.27,16.27,0,0,1-1.12-1.74c-.7-1.38-6.74-8.63-5.36-8.13,12.69,5.29,42.08,10.48,58.86,12.3a6.85,6.85,0,0,1,5.68,4.17c.13.34,1.39,2.48,1.63,2.84,5.12,8.05,5.42,9.3,7.51,12.17,3.34,4.56,7.9,8.78,8.68,14.53,1.21,9,6.67,14.39,11.41,20.11M978.2,219.43c-.27-.36-1.07-.82-1-1.73.22-3.06-1.32-2.12-2.47-1.36-4,2.63-9.1,3.58-10.36,10.15-.27,1.46-1.65,2-2.74,2.63-10.25,6.09-21.55-1.15-24.31-15.92a101.4,101.4,0,0,0-6.38-22.12c-1.64-3.77-6.46-8.78-8.82-12.71a4.45,4.45,0,0,1-.64-2.15c-.12-4.06-1.84-13.38-12.87-19.8l-.25-.16c-13.52-9.83-42.61-20-58.22-24.7-6-1.64-7.56,2.19-7.7,4.61a3.91,3.91,0,0,0,.16,1.36c.3,1.09.95,3.32,1,3.38,3.7,14.11,8.45,33.66,5.73,32.9-2.92-.81-10.14-41.63-27.2-53.37l-.32-.27c-11.13-10.29-34.24-15.12-42-16.75a4.36,4.36,0,0,1-2.55-1.6c-4.58-6.1-11.74-8-22.87-9.77-4.62-.75-8.58-1.32-12-1.74a4.45,4.45,0,0,1-3.7-5.79l0,0c.35-1.11.36-3.36-.37-3.65s-3.43.83-5.63,1.08a6.46,6.46,0,0,1-3.24-.83c-.54-.32.76.79.19.26-6.42-6.09,9.6-11.71,6.07-12-1.24-.09-2.44-.12-3.63-.14a81,81,0,0,0-13.15.78,1.44,1.44,0,0,1-1.55-1.65,1.27,1.27,0,0,1,.67-1c21.07-11.45,29-24.53,29-24.53s6.41-10.41-8.47-17.3a52.65,52.65,0,0,0-11-3.48A176.71,176.71,0,0,1,694.13,11.2c-3.14-1.37-6-2.7-8.37-3.89a7.32,7.32,0,0,0-1.18-.49c-1.39-.53-2.61-.11-3.33,1.63-1.18,2.88,2.79,4.35,4.86,6,8.85,6.86,18.88,11.24,28,17.17,5.77,3.75,5.94,5.4.65,9-7.68,5.28-16.37,8.57-25.11,11.86a4.27,4.27,0,0,1-1.37.27,17.88,17.88,0,0,0-13.51-2.86,22.32,22.32,0,0,0-18.73,11.78,4.33,4.33,0,0,1-4.15,2.23c-.32,0-.63,0-.95,0a7.12,7.12,0,0,0-1.7-.07c-18.85,1.45-22.6,9.19-23.34,12.5a3,3,0,0,1-1.72,2.17c-40.56,17.11-69.12,4.29-78.69-1.35l-.21-.12a1.46,1.46,0,0,0-2.15,1.76c9,22.93,55.5,24.72,68.48,24.76h1.49a1.5,1.5,0,0,1,1.43,1.92,73.65,73.65,0,0,1-9.82,19.29,19.59,19.59,0,0,0-2.84,5.6l-.27.83a17.18,17.18,0,0,0,.13,10.84,4.52,4.52,0,0,1,.07,2.65,6.93,6.93,0,0,0-.24,1.19,7.16,7.16,0,0,0,0,1.91c2.43,14.84,10.53,18,10.53,18s1.36.83,6.69.57c12.66-.6,33.94-3.62,39.22-4a5.21,5.21,0,0,1,1.67.16l.34.09a5.38,5.38,0,0,1,1.12.42c18.3,9.49,45.57,39.06,55.34,56.15.55,1,1.12,2.06,1.69,3.07,4.59,8.74,9.43,15.27,17.27,21.07a71.52,71.52,0,0,0,7.38,4.79A98,98,0,0,0,755.34,254a158.11,158.11,0,0,0,21.58,6.79c2.31.59,3.82.92,4.78,1.13,4.13.87,7.88,1.38,12.58,2,17.71,2.32,25.92,1.39,29.15,7a21.87,21.87,0,0,1,1.05,3.18,2.41,2.41,0,0,1,.08.25c4.35,12.69,7.1,14.17,9.07,20,.93,2.73,2.37,4.26,4.86,5,3.92,1.17,7.41,3.34,9,7.58,3.66,9.79,10.73,17.36,19.87,19.9,10.08,2.81,14.7,1.92,20.75-6.47,2.26-3.14,2.4-6.06.55-9.33a19.53,19.53,0,0,0-15.56-10.26c-3.14-.39-6.14-2-6.57-5.21-.72-5.39-3.51-8.54-6.74-11.86a6.21,6.21,0,0,1,1.16-10c.94-.55,11.7-9.09,16.07-11.28,1.56-.81,10.85-4.06,11.15-10.58-1.35-15.58,1.19-26.68,2.36-26.58.68.06-.53,5.17,1.55,14.89a12.15,12.15,0,0,0,.41,1.41v0c1.92,11.21,15.27,28.81,21.84,36.28a4.21,4.21,0,0,1,.76,1.27,42.31,42.31,0,0,0,5.24,9.7,14,14,0,0,1,2,4.85c2.12,12.53,8.08,23.56,9.29,36.31.46,4.85,1.55,10.74.9,12.92a3.92,3.92,0,0,0-.21,1.51c.3,3.44,1.4,11.08,2.71,11.74s7.92,2,10.88-1.27a1.87,1.87,0,0,0,.39-1c.58-5.49,2.81-3.11,3.94-1.63a1.23,1.23,0,0,0,1.43.42,12,12,0,0,0,5.63-4.1,1.93,1.93,0,0,0,.4-.87c.89-4.7,1.1-9.32-1.09-13.68a67.21,67.21,0,0,0-6.89-10.75c-6.15-8-9.57-17.13-7.14-28.52a16.32,16.32,0,0,0-2.73-13.32c-1.91-2.64-2.13-5.09-1.44-8.64a111.32,111.32,0,0,0,1.65-32.69c-.17-1.68-1.11-3.55.38-4.88s2.91-.07,4.24.58c6.62,3.24,13,2.28,19.14-1.64,1.43-.91,2.79-1.83,4.51-1.83,7.1,0,10.41-4.66,10.9-7.73a7.87,7.87,0,0,0-1.07-5.19"/></svg>
