<?xml version="1.0" encoding="UTF-8" standalone="no"?>
<svg width="74px" height="63px" viewBox="0 0 74 63" version="1.1" xmlns="http://www.w3.org/2000/svg"
     xmlns:xlink="http://www.w3.org/1999/xlink" xmlns:sketch="http://www.bohemiancoding.com/sketch/ns">
    <!-- Generator: Sketch 3.4.4 (17249) - http://www.bohemiancoding.com/sketch -->
    <title>Page 1</title>
    <desc>Created with Sketch.</desc>
    <defs></defs>
    <g id="Page-1" stroke="none" stroke-width="1" fill="none" fill-rule="evenodd" sketch:type="MSPage">
        <g id="Introduction" sketch:type="MSArtboardGroup" transform="translate(-93.000000, -25.000000)" fill="#FFFFFF">
            <g id="Page-1" sketch:type="MSLayerGroup" transform="translate(92.617188, 25.725521)">
                <path
                    d="M51.8684668,54.2047463 C51.071084,53.2416975 50.1532779,52.3324691 49.9489286,50.822134 C49.8179096,49.8547123 49.0509688,49.1452922 48.4902275,48.3771741 C48.1382085,47.8951452 48.0875836,47.6840683 47.2256163,46.3314943 C47.1864283,46.269769 46.9743423,45.9100133 46.9523096,45.8536701 C46.7987532,45.4596038 46.4174693,45.1984067 45.9971656,45.1524911 C43.174622,44.8452103 38.2313863,43.9738244 36.0977437,43.0825921 C35.8653069,42.9993387 36.8808306,44.2193799 36.9983945,44.4509759 C37.0533922,44.5594576 37.1263862,44.6507841 37.1869341,44.7426152 C38.5934967,46.8737349 40.518417,48.1084085 42.1448022,48.7904139 C42.8607817,49.090799 43.5912255,49.3454368 44.3075414,49.6313577 C45.4016092,50.0683121 46.2484396,50.81322 46.7348415,52.0063511 C46.9534869,52.5422004 47.3261932,52.9670452 47.7900577,53.2475841 C48.5605304,53.7134669 49.0413821,54.4778848 49.269446,55.3270698 C49.3022428,55.4093141 49.3355442,55.4923994 49.3685092,55.5746437 C52.0862713,60.4141069 50.6766813,59.3412308 51.3635642,61.1904662 C51.3682735,61.2069487 51.3734873,61.2254494 51.3780284,61.2419319 C51.4912195,61.8403475 51.7657035,61.8531299 52.1476602,61.9669937 C52.6337257,62.111636 53.0843033,62.0793437 53.5141938,61.9452973 C53.6379807,61.9067821 53.7235888,61.7720629 53.7123202,61.6312889 C53.694324,61.4084388 53.6813734,61.1830659 53.8290431,61.118986 C53.9940363,61.0476739 54.1371649,61.0861891 54.2559062,61.1728064 C54.495407,61.5737683 54.6397129,61.3161032 54.8862777,61.2252812 C55.4027853,60.9280917 55.9293843,60.9645887 55.930898,60.3091571 C55.9216476,60.0451008 54.6511498,57.1721005 53.8566261,56.1883644 C53.2597242,55.4493431 52.4618368,54.9212304 51.8684668,54.2047463"
                    id="Fill-19" sketch:type="MSShapeGroup"></path>
                <path
                    d="M73.7436008,35.9283135 C73.6985262,35.8674291 73.5634706,35.7912396 73.5745711,35.6373469 C73.6117408,35.1235303 73.3520574,35.2814595 73.1596494,35.4096194 C72.4959766,35.8516194 71.6281226,36.0105578 71.4177185,37.1162306 C71.370962,37.3617862 71.1388615,37.4507581 70.9567131,37.5589034 C69.2326102,38.5819956 67.3324137,37.3643091 66.8675399,34.8801612 C66.6266936,33.5923399 66.3078078,32.3332789 65.7948321,31.1596577 C65.5178252,30.5259225 64.7073236,29.684306 64.3109027,29.0221469 C64.2451409,28.9123196 64.206962,28.7885327 64.2032619,28.660541 C64.1832474,27.9780311 63.8936264,26.4106801 62.0381681,25.3309083 C62.0245448,25.3219943 62.0109215,25.3132484 61.9972982,25.3043344 C59.723218,23.6508708 54.8299344,21.9451005 52.2041716,21.149904 C51.2022712,20.8730653 50.9338419,21.5177328 50.9092864,21.9247496 C50.9045771,22.002621 50.915173,22.0791469 50.9363648,22.1543273 C50.9878305,22.3373166 51.0971532,22.7117048 51.0986669,22.7229734 C51.7201244,25.096285 52.5201983,28.3837023 52.061043,28.2558789 C51.5707727,28.1193096 50.3559454,21.2540129 47.4874862,19.2786359 C47.4691536,19.2638353 47.4513256,19.2497075 47.4328248,19.2349069 C45.5615567,17.5039082 41.675051,16.6908838 40.3646924,16.4162315 C40.1939808,16.3805755 40.0402563,16.2863898 39.9354747,16.1471295 C39.1648339,15.1220191 37.9600978,14.809188 36.0884934,14.50443 C35.3116295,14.3777838 34.6457702,14.2819162 34.0764513,14.2126225 C33.6078774,14.1556065 33.3083333,13.6870326 33.4534801,13.2378005 L33.456003,13.2300638 C33.5158782,13.0428697 33.5172237,12.6649496 33.395455,12.616343 C33.255522,12.5606725 32.8175585,12.7557715 32.4468705,12.7969777 C32.2006421,12.8243925 31.9160667,12.6652859 31.9021071,12.6572129 C31.8116215,12.6044016 32.0304351,12.7912593 31.9354085,12.7011101 C30.8551321,11.677177 33.5496841,10.7324608 32.9559778,10.6912545 C32.7474238,10.6767903 32.5455973,10.6717446 32.3446117,10.6675399 C31.5257006,10.6503847 30.7717105,10.7082416 30.1334341,10.7988953 C29.9654136,10.82261 29.8587819,10.6645125 29.8734143,10.5220566 C29.8806464,10.453772 29.9131069,10.388683 29.9847553,10.3498314 C33.5286605,8.42507926 34.8595381,6.22517036 34.8595381,6.22517036 C34.8595381,6.22517036 35.9379644,4.47365267 33.4348112,3.31533672 C32.9573233,3.09450489 32.3499937,2.89402389 31.5771664,2.73020805 C29.4113998,2.27105275 27.4664651,1.55927794 25.9662214,0.90586463 C25.4381087,0.675782414 24.9646573,0.453100504 24.5579769,0.251778565 C24.5421672,0.243873694 24.4420949,0.194258011 24.3598506,0.170375208 C24.1255637,0.0810669795 23.9205416,0.151874445 23.7999502,0.444354688 C23.6006466,0.927897357 24.2678513,1.17614396 24.6173476,1.44692785 C26.1046407,2.59952538 27.7915739,3.3365285 29.3306692,4.33472876 C30.3017911,4.96459565 30.329374,5.24311622 29.4398237,5.85465053 C28.1484705,6.74251897 26.6875829,7.29670091 25.2176132,7.84953735 C25.1382281,7.87947494 25.0618704,7.89225729 24.9866901,7.89427555 C24.2115081,7.38197261 23.4321214,7.2803866 22.715301,7.41325572 C21.4264705,7.4658988 20.2202208,8.18574666 19.5636119,9.39552837 C19.4268744,9.64747513 19.1513813,9.79346297 18.8656286,9.77075748 C18.8128173,9.76655277 18.7596696,9.76352537 18.7066902,9.76537544 C18.6094771,9.748052 18.5011635,9.74670649 18.4211057,9.75292948 C15.2505795,9.9978123 14.6188625,11.2992569 14.495412,11.8561298 C14.4594196,12.0192729 14.3553107,12.1575241 14.2054546,12.2207631 C7.38422326,15.0976317 2.58041606,12.9414519 0.971186059,11.9940446 C0.959917413,11.9873171 0.946966879,11.980085 0.935866421,11.9735256 C0.729162442,11.8505796 0.486297881,12.0465195 0.573924222,12.269706 C2.08947309,16.1262741 9.90789551,16.4266592 12.0911537,16.4330504 C12.1839939,16.4333868 12.2704429,16.4333868 12.3422595,16.432714 C12.5060754,16.4315367 12.6381036,16.5987163 12.5836104,16.7553001 C12.0235418,18.3652028 11.3541506,19.4189054 10.9319968,19.9988202 C10.7229382,20.2859184 10.5611406,20.6029542 10.4529953,20.94135 L10.4082571,21.0814512 C10.2185401,21.6753257 10.2259404,22.3146111 10.4294488,22.9039445 C10.4790645,23.0475777 10.4824283,23.2031523 10.442063,23.3498129 C10.4191893,23.43273 10.406407,23.4914279 10.4006886,23.5496212 C10.4006886,23.5496212 10.3821878,23.6996455 10.4101071,23.8703571 C10.8183012,26.3676237 12.1801256,26.9048186 12.1801256,26.9048186 C12.1801256,26.9048186 12.4093669,27.0447517 13.3053083,27.0018635 C15.4350825,26.9006139 19.0141392,26.3918429 19.9026804,26.3314632 C19.9978753,26.3249038 20.0915564,26.3343224 20.183892,26.3583734 L20.2415808,26.3733422 C20.306838,26.3903292 20.369236,26.4135393 20.4291112,26.444486 C23.5069654,28.0399245 28.0931364,33.0130978 29.7361723,35.8884527 C29.8290125,36.0625281 29.9240391,36.234417 30.0210841,36.4044558 C30.7930704,37.8737528 31.6059267,38.9732027 32.9245265,39.9478565 C33.0715235,40.0565064 33.4893044,40.3674875 34.1667687,40.7533125 C35.0164582,41.2371915 35.7058639,41.5180667 36.2612232,41.7420941 C37.7545712,42.3442099 38.9880675,42.6565364 39.8909047,42.8851049 C40.277907,42.983159 40.5317039,43.0400068 40.6933333,43.0739809 C41.3886256,43.2204733 42.0196698,43.3072587 42.8103251,43.410863 C45.7884434,43.8012291 47.1689367,43.6451499 47.7128591,44.5925571 C47.7496924,44.6379681 47.8554832,44.9999103 47.8896255,45.1262201 C47.8939984,45.1408525 47.8983713,45.1548121 47.9027442,45.1692764 C48.6338607,47.3029189 49.0968844,47.5528474 49.4282162,48.531706 C49.5841272,48.9918704 49.8269917,49.2483582 50.2459499,49.3733225 C50.9042407,49.5694306 51.4910513,49.9344002 51.7586396,50.6490342 C52.3753877,52.2950975 53.5629685,53.5676136 55.1002138,53.995654 C56.796061,54.467928 57.5727566,54.3185764 58.5908032,52.9069682 C58.9719189,52.3786873 58.9941198,51.887408 58.6836433,51.3374308 C58.0768183,50.2623682 57.1741493,49.7475425 56.0671309,49.6116459 C55.5375045,49.5467251 55.0334428,49.2791368 54.9612898,48.7355507 C54.8410349,47.8301907 54.3716201,47.299387 53.8278658,46.7406639 C53.2915119,46.1893412 53.4201763,45.4155047 54.0226284,45.0599537 C54.1805576,44.9667771 55.9911096,43.5309497 56.7262626,43.1617754 C56.9884689,43.0265517 58.5507742,42.47977 58.6003899,41.3833475 C58.3745124,38.7631349 58.8003663,36.8948942 58.9988291,36.9122177 C59.1125247,36.922309 58.9080071,37.7825945 59.2591853,39.4175574 C59.2765087,39.4986243 59.3000551,39.5773367 59.3274699,39.6545353 C59.3274699,39.6552081 59.3273017,39.6557126 59.3274699,39.6565536 C59.6510651,41.5419495 61.8953758,44.5025762 63.0008805,45.7599553 C63.0562146,45.8228579 63.0980936,45.8941699 63.127863,45.9723777 C63.3510495,46.5568336 63.6442025,47.095374 64.0093402,47.6039768 C64.1551599,47.8071488 64.3139301,48.1738003 64.3554727,48.420365 C64.7106874,50.5277701 65.7141015,52.3823875 65.9172735,54.5266259 C65.9946403,55.342005 66.1784706,56.3338141 66.0686434,56.7002974 C66.0435832,56.7835508 66.0247461,56.8679816 66.0324828,56.9544306 C66.0844531,57.5318226 66.268788,58.817121 66.4894516,58.9281256 C66.723234,59.0456895 67.8211702,59.2682033 68.3181679,58.7141895 C68.3578605,58.6699559 68.3783795,58.6073897 68.3849389,58.545328 C68.4819838,57.6216354 68.8565401,58.0210837 69.0474344,58.2715167 C69.1059641,58.3482108 69.1998134,58.3741118 69.2872715,58.3411469 C69.746595,58.1682488 69.9546445,57.9815593 70.2338379,57.6510684 C70.2676438,57.6112077 70.2921993,57.5594055 70.3022907,57.5054169 C70.4514741,56.7152662 70.4874665,55.9375614 70.1189649,55.2040902 C69.7891468,54.5478177 69.3913804,53.9611753 68.9599762,53.396902 C67.9259518,52.0441599 67.3507462,50.5149877 67.758604,48.5993178 C67.9362113,47.7652698 67.7619677,46.9981609 67.299785,46.3592118 C66.9788809,45.9158663 66.9410384,45.5034674 67.0570887,44.9058928 C67.4092759,43.0934908 67.5254943,41.2528331 67.3351047,39.4089797 C67.3058398,39.1259181 67.1490879,38.8114051 67.3985118,38.5882186 C67.6376762,38.3742825 67.8882775,38.5756045 68.1124731,38.6852635 C69.2263872,39.2303633 70.294554,39.0690703 71.3314377,38.4090976 C71.5717794,38.256214 71.8006843,38.1021531 72.0892962,38.1023213 C73.2831,38.1033304 73.8408139,37.3183935 73.9232264,36.8015495 C73.955014,36.6027504 73.9311312,36.1821103 73.7436008,35.9283135"
                    id="Fill-21" sketch:type="MSShapeGroup"></path>
            </g>
        </g>
    </g>
</svg>
