<?xml version="1.0" encoding="UTF-8" standalone="no"?>
<svg width="201px" height="136px" viewBox="0 0 201 136" version="1.1" xmlns="http://www.w3.org/2000/svg"
     xmlns:xlink="http://www.w3.org/1999/xlink">
    <!-- Generator: Sketch 3.6.1 (26313) - http://www.bohemiancoding.com/sketch -->
    <title>Composition - Page Icon</title>
    <desc>Created with Sketch.</desc>
    <defs>
        <path id="path-1"
              d="M1.85669331,0.736057895 C0.200359197,0.739878805 -0.46715588,1.91247135 0.353541168,3.33395883 L19.1254119,35.8477584 C19.9515781,37.2787185 21.9655036,38.4356499 23.6203762,38.4318444 L70.9219696,38.3230711 C72.5783037,38.3192622 73.2458188,37.1466674 72.4251217,35.7251653 L53.6532509,3.21103121 C52.8270848,1.78005633 50.8131593,0.623122816 49.1582867,0.626940354 L1.85669331,0.736057895 Z"></path>
    </defs>
    <g id="--Images" stroke="none" stroke-width="1" fill="none" fill-rule="evenodd">
        <g id="Composition---Page-Icon">
            <g id="Group" transform="translate(1.382812, 0.314453)">
                <path
                    d="M0.199010814,41.0957816 C0.199010814,43.3073018 1.98967994,45.094944 4.20818946,45.094944 L51.3278008,45.094944 C53.5422816,45.094944 55.3369795,43.3076389 55.3369795,41.0957816 L55.3369795,4.68302571 C55.3369795,2.47150549 53.5463103,0.683863356 51.3278008,0.683863356 L4.20818946,0.683863356 C1.99370865,0.683863356 0.199010814,2.47116846 0.199010814,4.68302571 L0.199010814,41.0957816 L0.199010814,41.0957816 Z M2.19901081,41.0957816 L2.19901081,4.68302571 C2.19901081,3.57759021 3.09643434,2.68386336 4.20818946,2.68386336 L51.3278008,2.68386336 C52.4424976,2.68386336 53.3369795,3.57683317 53.3369795,4.68302571 L53.3369795,41.0957816 C53.3369795,42.2012171 52.4395559,43.094944 51.3278008,43.094944 L4.20818946,43.094944 C3.09349268,43.094944 2.19901081,42.2019742 2.19901081,41.0957816 L2.19901081,41.0957816 Z"
                    id="Fill-1" fill="#3399DD"></path>
                <path
                    d="M83.7002497,130.673769 C83.7002497,132.33016 85.0403562,133.672931 86.7094283,133.672931 L133.82904,133.672931 C135.490963,133.672931 136.838218,132.333605 136.838218,130.673769 L136.838218,94.2610129 C136.838218,92.6046213 135.498112,91.2618505 133.82904,91.2618505 L86.7094283,91.2618505 C85.0475048,91.2618505 83.7002497,92.6011769 83.7002497,94.2610129 L83.7002497,130.673769 Z"
                    id="Fill-1-Copy-2" fill="#3399DD"></path>
                <path
                    d="M141.896737,130.673769 C141.896737,132.885289 143.687406,134.672931 145.905916,134.672931 L193.025527,134.672931 C195.240008,134.672931 197.034706,132.885626 197.034706,130.673769 L197.034706,94.2610129 C197.034706,92.0494927 195.244036,90.2618505 193.025527,90.2618505 L145.905916,90.2618505 C143.691435,90.2618505 141.896737,92.0491556 141.896737,94.2610129 L141.896737,130.673769 L141.896737,130.673769 Z M143.896737,130.673769 L143.896737,94.2610129 C143.896737,93.1555774 144.79416,92.2618505 145.905916,92.2618505 L193.025527,92.2618505 C194.140224,92.2618505 195.034706,93.1548203 195.034706,94.2610129 L195.034706,130.673769 C195.034706,131.779204 194.137282,132.672931 193.025527,132.672931 L145.905916,132.672931 C144.791219,132.672931 143.896737,131.779961 143.896737,130.673769 L143.896737,130.673769 Z"
                    id="Fill-1-Copy-3" fill="#3399DD"></path>
                <path
                    d="M63.5591125,48.318457 C61.1377344,48.3240427 59.9852919,50.3258589 61.192242,52.4163556 L79.9641128,84.9301552 C80.9692235,86.671056 83.3142425,88.0188675 85.3274018,88.0142381 L132.628995,87.9054648 C135.050378,87.8998967 136.202821,85.8980761 134.995875,83.8075652 L116.224004,51.2934311 C115.218893,49.5525118 112.87387,48.2046953 110.860706,48.2093394 L63.5591125,48.318457 L63.5591125,48.318457 Z M63.5637262,50.3184516 L110.86532,50.2093341 C112.16291,50.2063407 113.845232,51.1732655 114.49195,52.2934241 L133.26382,84.8075582 C133.702046,85.5665947 133.508126,85.9034379 132.624396,85.9054701 L85.3228027,86.0142434 C84.0252073,86.0172273 82.3428814,85.050302 81.6961632,83.9301544 L62.9242924,51.4163548 C62.4860707,50.6573334 62.6799908,50.3204903 63.5637262,50.3184516 L63.5637262,50.3184516 Z"
                    id="Fill-2-Copy-4" fill="#EB6845"></path>
                <g transform="translate(1.700009, 48.582396)">
                    <path
                        d="M1.86130699,2.73605257 L1.86130699,2.73605257 L1.86130699,2.73605257 C1.73397267,2.73634631 1.66657691,2.74989162 1.65742661,2.75418643 C1.7377406,2.71649002 1.83580744,2.62927517 1.90951979,2.50123531 C1.98324329,2.37317608 2.00946426,2.24448285 2.00173405,2.15559886 C2.00247677,2.16413886 2.02377183,2.2268833 2.08559152,2.33395804 L20.8574623,34.8477576 C21.3249843,35.6575286 22.6759637,36.4340108 23.6157771,36.4318497 L70.9173704,36.3230763 C71.0447025,36.3227835 71.1120955,36.3092392 71.1212429,36.3049458 C71.0409253,36.3426435 70.9428557,36.4298607 70.8691423,36.5579026 C70.7954193,36.6859613 70.7691989,36.8146522 70.7769287,36.9035327 C70.7761856,36.894988 70.7548889,36.8322383 70.6930669,36.7251584 L51.9211961,4.21102429 C51.4536747,3.40124594 50.1027037,2.62476705 49.1629003,2.62693503 L1.86130699,2.73605257 Z M1.85669331,0.736057895 L1.85669331,0.736057895 L49.1582867,0.626940354 C50.8131593,0.623122816 52.8270848,1.78005633 53.6532509,3.21103121 L72.4251217,35.7251653 C73.2458188,37.1466674 72.5783037,38.3192622 70.9219696,38.3230711 L23.6203762,38.4318444 C21.9655036,38.4356499 19.9515781,37.2787185 19.1254119,35.8477584 L0.353541168,3.33395883 C-0.46715588,1.91247135 0.200359197,0.739878805 1.85669331,0.736057895 L1.85669331,0.736057895 Z"
                        id="Mask" fill="#EB6845"></path>
                    <mask id="mask-2" fill="white">
                        <use xlink:href="#path-1"></use>
                    </mask>
                    <use id="Mask" xlink:href="#path-1"></use>
                    <g mask="url(#mask-2)" fill="#EB6845">
                        <g transform="translate(-39.731929, 69.432009) rotate(13.000000) translate(39.731929, -69.432009) translate(-269.231929, -20.567991)">
                            <path
                                d="M84.0264702,2.53652465 L249.357135,178.3799 L250.042128,179.108449 L251.499227,177.738462 L250.814233,177.009913 L85.4835688,1.16653794 L84.7985755,0.437988625 L83.3414769,1.80797533 L84.0264702,2.53652465 L84.0264702,2.53652465 Z"
                                id="Line-Copy-15"></path>
                            <path
                                d="M94.3849495,2.53652465 L259.715614,178.3799 L260.400607,179.108449 L261.857706,177.738462 L261.172713,177.009913 L95.8420481,1.16653794 L95.1570548,0.437988625 L93.6999561,1.80797533 L94.3849495,2.53652465 L94.3849495,2.53652465 Z"
                                id="Line-Copy-16"></path>
                            <path
                                d="M104.743429,2.53652465 L270.074093,178.3799 L270.759087,179.108449 L272.216185,177.738462 L271.531192,177.009913 L106.200527,1.16653794 L105.515534,0.437988625 L104.058435,1.80797533 L104.743429,2.53652465 L104.743429,2.53652465 Z"
                                id="Line-Copy-18"></path>
                            <path
                                d="M115.101908,2.53652465 L280.432573,178.3799 L281.117566,179.108449 L282.574665,177.738462 L281.889671,177.009913 L116.559007,1.16653794 L115.874013,0.437988625 L114.416915,1.80797533 L115.101908,2.53652465 L115.101908,2.53652465 Z"
                                id="Line-Copy-19"></path>
                            <path
                                d="M125.460387,2.53652465 L290.791052,178.3799 L291.476045,179.108449 L292.933144,177.738462 L292.248151,177.009913 L126.917486,1.16653794 L126.232493,0.437988625 L124.775394,1.80797533 L125.460387,2.53652465 L125.460387,2.53652465 Z"
                                id="Line-Copy-20"></path>
                            <path
                                d="M135.818867,2.53652465 L301.149531,178.3799 L301.834525,179.108449 L303.291623,177.738462 L302.60663,177.009913 L137.275965,1.16653794 L136.590972,0.437988625 L135.133873,1.80797533 L135.818867,2.53652465 L135.818867,2.53652465 Z"
                                id="Line-Copy-21"></path>
                            <path
                                d="M146.177346,2.53652465 L311.508011,178.3799 L312.193004,179.108449 L313.650103,177.738462 L312.965109,177.009913 L147.634445,1.16653794 L146.949451,0.437988625 L145.492353,1.80797533 L146.177346,2.53652465 L146.177346,2.53652465 Z"
                                id="Line-Copy-22"></path>
                            <path
                                d="M156.535825,2.53652465 L321.86649,178.3799 L322.551483,179.108449 L324.008582,177.738462 L323.323588,177.009913 L157.992924,1.16653794 L157.307931,0.437988625 L155.850832,1.80797533 L156.535825,2.53652465 L156.535825,2.53652465 Z"
                                id="Line-Copy-23"></path>
                            <path
                                d="M166.894305,2.53652465 L332.224969,178.3799 L332.909962,179.108449 L334.367061,177.738462 L333.682068,177.009913 L168.351403,1.16653794 L167.66641,0.437988625 L166.209311,1.80797533 L166.894305,2.53652465 L166.894305,2.53652465 Z"
                                id="Line-Copy-24"></path>
                            <path
                                d="M177.252784,2.53652465 L342.583448,178.3799 L343.268442,179.108449 L344.72554,177.738462 L344.040547,177.009913 L178.709882,1.16653794 L178.024889,0.437988625 L176.56779,1.80797533 L177.252784,2.53652465 L177.252784,2.53652465 Z"
                                id="Line-Copy-25"></path>
                            <path
                                d="M187.611263,2.53652465 L352.941928,178.3799 L353.626921,179.108449 L355.08402,177.738462 L354.399026,177.009913 L189.068362,1.16653794 L188.383368,0.437988625 L186.92627,1.80797533 L187.611263,2.53652465 L187.611263,2.53652465 Z"
                                id="Line-Copy-26"></path>
                            <path
                                d="M197.969742,2.53652465 L363.300407,178.3799 L363.9854,179.108449 L365.442499,177.738462 L364.757506,177.009913 L199.426841,1.16653794 L198.741848,0.437988625 L197.284749,1.80797533 L197.969742,2.53652465 L197.969742,2.53652465 Z"
                                id="Line-Copy-27"></path>
                            <path
                                d="M208.328222,2.53652465 L373.658886,178.3799 L374.34388,179.108449 L375.800978,177.738462 L375.115985,177.009913 L209.78532,1.16653794 L209.100327,0.437988625 L207.643228,1.80797533 L208.328222,2.53652465 L208.328222,2.53652465 Z"
                                id="Line-Copy-28"></path>
                            <path
                                d="M218.686701,2.53652465 L384.017366,178.3799 L384.702359,179.108449 L386.159458,177.738462 L385.474464,177.009913 L220.1438,1.16653794 L219.458806,0.437988625 L218.001708,1.80797533 L218.686701,2.53652465 L218.686701,2.53652465 Z"
                                id="Line-Copy-29"></path>
                            <path
                                d="M229.04518,2.53652465 L394.375845,178.3799 L395.060838,179.108449 L396.517937,177.738462 L395.832944,177.009913 L230.502279,1.16653794 L229.817286,0.437988625 L228.360187,1.80797533 L229.04518,2.53652465 L229.04518,2.53652465 Z"
                                id="Line-Copy-30"></path>
                            <path
                                d="M239.40366,2.53652465 L404.734324,178.3799 L405.419318,179.108449 L406.876416,177.738462 L406.191423,177.009913 L240.860758,1.16653794 L240.175765,0.437988625 L238.718666,1.80797533 L239.40366,2.53652465 L239.40366,2.53652465 Z"
                                id="Line-Copy-31"></path>
                            <path
                                d="M249.762139,2.53652465 L415.092803,178.3799 L415.777797,179.108449 L417.234895,177.738462 L416.549902,177.009913 L251.219238,1.16653794 L250.534244,0.437988625 L249.077146,1.80797533 L249.762139,2.53652465 L249.762139,2.53652465 Z"
                                id="Line-Copy-32"></path>
                            <path
                                d="M260.120618,2.53652465 L425.451283,178.3799 L426.136276,179.108449 L427.593375,177.738462 L426.908381,177.009913 L261.577717,1.16653794 L260.892723,0.437988625 L259.435625,1.80797533 L260.120618,2.53652465 L260.120618,2.53652465 Z"
                                id="Line-Copy-33"></path>
                            <path
                                d="M270.479097,2.53652465 L435.809762,178.3799 L436.494755,179.108449 L437.951854,177.738462 L437.266861,177.009913 L271.936196,1.16653794 L271.251203,0.437988625 L269.794104,1.80797533 L270.479097,2.53652465 L270.479097,2.53652465 Z"
                                id="Line-Copy-34"></path>
                            <path
                                d="M280.837577,2.53652465 L446.168241,178.3799 L446.853235,179.108449 L448.310333,177.738462 L447.62534,177.009913 L282.294675,1.16653794 L281.609682,0.437988625 L280.152583,1.80797533 L280.837577,2.53652465 L280.837577,2.53652465 Z"
                                id="Line-Copy-35"></path>
                            <path
                                d="M291.196056,2.53652465 L456.526721,178.3799 L457.211714,179.108449 L458.668813,177.738462 L457.983819,177.009913 L292.653155,1.16653794 L291.968161,0.437988625 L290.511063,1.80797533 L291.196056,2.53652465 L291.196056,2.53652465 Z"
                                id="Line-Copy-36"></path>
                        </g>
                    </g>
                </g>
            </g>
        </g>
    </g>
</svg>
