<?xml version="1.0" encoding="UTF-8" standalone="no"?>
<svg width="134px" height="187px" viewBox="0 0 134 187" version="1.1" xmlns="http://www.w3.org/2000/svg"
     xmlns:xlink="http://www.w3.org/1999/xlink" xmlns:sketch="http://www.bohemiancoding.com/sketch/ns">
    <!-- Generator: Sketch 3.4.4 (17249) - http://www.bohemiancoding.com/sketch -->
    <title>Iconography - Page Icon</title>
    <desc>Created with Sketch.</desc>
    <defs></defs>
    <g id="Images" stroke="none" stroke-width="1" fill="none" fill-rule="evenodd" sketch:type="MSPage">
        <g id="Iconography---Page-Icon" sketch:type="MSArtboardGroup" fill="#3BAFDA">
            <g id="Shape-+-Shape" sketch:type="MSLayerGroup" transform="translate(10.000000, 11.000000)">
                <path
                    d="M57.3229462,98.5848561 C84.192068,98.5848561 106.249292,76.5155488 106.249292,49.6317073 C106.249292,22.7478659 84.192068,0 57.3229462,0 C30.4538244,0 8.39660057,22.0693074 8.39660057,49.6317073 C8.39660057,77.1941073 30.4538244,98.5848561 57.3229462,98.5848561 L57.3229462,98.5848561 Z M47.6991501,39.9703268 L57.3229462,20.679878 L66.9790368,39.9703268 L88.325779,42.7168731 L73.1796034,57.8713462 L75.9246459,78.5512243 L56.6447592,68.2112853 L37.3648725,78.5512243 L40.8203966,57.1927877 L26.3524079,42.7168731 L47.6991501,39.9703268 L47.6991501,39.9703268 Z"
                    id="Shape" sketch:type="MSShapeGroup"></path>
                <path
                    d="M95.1076487,99.0049162 C94.8815864,98.3909823 94.1388102,98.1971084 93.6543909,98.6171684 C90.9093484,100.975967 82.3189802,104.207198 80.9949008,104.724195 C75.3433428,106.953744 69.4334278,108.56936 63.3943343,109.183294 C55.3529745,110.023414 47.1824363,109.086357 39.3348442,107.050681 C33.3280453,105.49969 24.6084986,102.882393 20.2164306,97.8739853 C19.7643059,97.3569884 18.9569405,97.4862376 18.666289,98.1324838 C17.5359773,100.846718 16.7932011,103.690201 15.8243626,106.436747 C13.6606232,112.576086 11.4645892,118.715425 9.30084986,124.822451 C6.20056657,133.546775 3.1325779,142.271099 0.0322946176,150.995422 L24.8345609,142.723471 L40.6912181,164.792778 L56.7739377,119.878668 L73.1150142,165.439024 L88.9716714,143.369717 L113.773938,151.641668 C113.773938,151.641668 98.466289,108.440111 95.1076487,99.0049162 L95.1076487,99.0049162 Z"
                    id="Shape" sketch:type="MSShapeGroup"></path>
            </g>
        </g>
    </g>
</svg>
