<?xml version="1.0" encoding="utf-8"?>
<!-- Generator: Adobe Illustrator 19.2.1, SVG Export Plug-In . SVG Version: 6.00 Build 0)  -->
<svg version="1.1" id="apple-watch-svg" xmlns="http://www.w3.org/2000/svg" xmlns:xlink="http://www.w3.org/1999/xlink" x="0px"
	 y="0px" viewBox="0 0 267.5 341.1" style="enable-background:new 0 0 267.5 341.1;" xml:space="preserve">
<style type="text/css">
	.st0{fill:#EAEAEA;}
	.st1{fill:none;stroke:#C6C6C5;stroke-linecap:round;stroke-linejoin:round;}
	.st2{fill:none;stroke:#C6C6C5;stroke-linecap:round;stroke-linejoin:round;stroke-dasharray:0,1.9874;}
	.st3{fill:none;stroke:#C6C6C5;stroke-linecap:round;stroke-linejoin:round;stroke-dasharray:0,2.0085;}
	.st4{fill:none;stroke:#C6C6C5;stroke-linecap:round;stroke-linejoin:round;stroke-miterlimit:10;stroke-dasharray:0,2;}
	.st5{fill:none;stroke:#C6C6C5;stroke-linecap:round;stroke-linejoin:round;stroke-dasharray:0,1.9953;}
	.st6{fill:none;stroke:#2A3C4F;stroke-width:3;stroke-miterlimit:10;}
	.st7{fill:#366AB3;}
	.st8{fill:none;stroke:#366AB3;stroke-width:3;stroke-linecap:round;stroke-miterlimit:10;}
	.st9{fill:none;stroke:#C6C6C5;stroke-width:3;stroke-miterlimit:10;}
	.st10{fill:#F79220;}
	.st11{fill:#488DCB;}
	.st12{fill:none;stroke:#366AB3;stroke-miterlimit:10;}
	.st13{fill:none;stroke:#366AB3;stroke-width:2;stroke-linecap:round;stroke-miterlimit:10;}
	.st14{fill:none;stroke:#F79220;stroke-width:3;stroke-linecap:round;stroke-linejoin:round;stroke-miterlimit:10;}
</style>
<path class="st0" d="M232.6,188.6l-34.9,85.1c-5.5,13.3-20.9,19.8-34.2,14.3L52.3,242.4C39,236.9,32.6,221.5,38,208.2L232.6,188.6z"
	/>
<g>
	<g>
		<g>
			<line class="st1" x1="174.9" y1="266.9" x2="174.9" y2="266.9"/>
			<line class="st2" x1="173.1" y1="266.1" x2="60" y2="219.7"/>
			<line class="st1" x1="59.1" y1="219.4" x2="59.1" y2="219.4"/>
			<line class="st3" x1="59.8" y1="217.5" x2="118.2" y2="75.3"/>
			<line class="st1" x1="118.5" y1="74.4" x2="118.5" y2="74.4"/>
			<line class="st2" x1="120.4" y1="75.2" x2="233.5" y2="121.6"/>
			<line class="st1" x1="234.4" y1="121.9" x2="234.4" y2="121.9"/>
			<line class="st3" x1="233.6" y1="123.8" x2="175.3" y2="265.9"/>
		</g>
	</g>
	<line class="st4" x1="185.5" y1="76.1" x2="108.3" y2="264.3"/>
	<g>
		<g>
			<line class="st1" x1="226.3" y1="202.8" x2="226.3" y2="202.8"/>
			<line class="st5" x1="224.5" y1="202" x2="66.6" y2="137.3"/>
			<line class="st1" x1="65.7" y1="136.9" x2="65.7" y2="136.9"/>
		</g>
	</g>
</g>
<path class="st6" d="M163.5,288L52.3,242.4C39,236.9,32.6,221.5,38,208.2L95.7,67.6c5.5-13.3,20.9-19.8,34.2-14.3l111.2,45.6
	c13.3,5.5,19.8,20.9,14.3,34.2l-57.7,140.6C192.3,287,176.9,293.5,163.5,288z"/>
<path class="st7" d="M235.7,208.2l-1.9-0.8l-25,60.9l1.9,0.8c1.4,0.6,3.1-0.1,3.7-1.6l22.8-55.7
	C237.8,210.5,237.1,208.8,235.7,208.2z"/>
<path class="st8" d="M179.5,297.6c-8.8,1.4-14.7,2.9-27.1,21.1"/>
<path class="st8" d="M34.2,238c7.4,10,10.6,16.3-4.2,70.2"/>
<path class="st8" d="M114,43.4c10.3-1.6,16.7-3.4,34.5-32.6"/>
<path class="st8" d="M259.4,103.1c-7.4-10-10.6-16.3,4.2-70.2"/>
<g>
	<path class="st9" d="M248.4,187.5c2.2,0.9,5.3-0.1,6.3-2.4l10.4-25.5c1-2.4-0.5-5.2-2.7-6.1c0,0-8-6.3-16.1,13.3
		S248.4,187.5,248.4,187.5z"/>
	<line class="st9" x1="263.8" y1="162.7" x2="259" y2="160.8"/>
	<line class="st9" x1="262.2" y1="166.5" x2="257.4" y2="164.5"/>
	<line class="st9" x1="259.2" y1="174" x2="254.4" y2="172"/>
	<line class="st9" x1="260.7" y1="170.2" x2="255.9" y2="168.2"/>
	<line class="st9" x1="257.6" y1="177.7" x2="252.8" y2="175.7"/>
	<line class="st9" x1="256.1" y1="181.4" x2="251.3" y2="179.5"/>
	<line class="st9" x1="254.6" y1="185.2" x2="249.8" y2="183.2"/>
	<line class="st9" x1="265.3" y1="159" x2="260.5" y2="157"/>
</g>
<circle class="st7" cx="201.8" cy="121.3" r="16.7"/>
<circle class="st10" cx="206.3" cy="157.9" r="11.2"/>
<circle class="st11" cx="111.5" cy="91.5" r="11.2"/>
<circle class="st11" cx="225.8" cy="141.5" r="7.1"/>
<circle class="st10" cx="172.2" cy="270.5" r="7.1"/>
<circle class="st10" cx="133.3" cy="75.2" r="7.1"/>
<circle class="st12" cx="159.6" cy="151.1" r="27.8"/>
<circle class="st12" cx="192.4" cy="185.6" r="11.8"/>
<circle class="st12" cx="162.2" cy="103.1" r="11.8"/>
<circle class="st12" cx="158" cy="216.5" r="27.6"/>
<path class="st9" d="M243.9,183.8l-38.3,93.3c-7,17.2-26.9,25.5-44,18.4L48.4,249.1c-17.2-7-25.5-26.9-18.4-44L87.8,64.2
	c7-17.2,26.9-25.5,44-18.4l113.3,46.5c17.2,7,25.5,26.9,18.4,44l-6.9,16.7"/>
<line class="st13" x1="144" y1="324.3" x2="106.3" y2="340.1"/>
<line class="st13" x1="148.6" y1="316.8" x2="99.6" y2="337.3"/>
<line class="st13" x1="153.2" y1="309.3" x2="92.9" y2="334.5"/>
<line class="st13" x1="162.2" y1="299.9" x2="86.1" y2="331.8"/>
<line class="st13" x1="155.5" y1="297.2" x2="79.4" y2="329"/>
<line class="st13" x1="148.8" y1="294.4" x2="72.7" y2="326.2"/>
<line class="st13" x1="142" y1="291.7" x2="65.9" y2="323.5"/>
<line class="st13" x1="135.3" y1="288.9" x2="59.2" y2="320.7"/>
<line class="st13" x1="128.6" y1="286.1" x2="52.5" y2="318"/>
<line class="st13" x1="121.8" y1="283.4" x2="45.7" y2="315.2"/>
<line class="st13" x1="115.1" y1="280.6" x2="39" y2="312.4"/>
<line class="st13" x1="108.4" y1="277.9" x2="32.3" y2="309.7"/>
<line class="st13" x1="101.7" y1="275.1" x2="36.9" y2="302.2"/>
<line class="st13" x1="94.9" y1="272.3" x2="39.4" y2="295.5"/>
<line class="st13" x1="88.2" y1="269.6" x2="40" y2="289.7"/>
<line class="st13" x1="81.5" y1="266.8" x2="39.8" y2="284.2"/>
<line class="st13" x1="74.7" y1="264" x2="42.3" y2="277.6"/>
<line class="st13" x1="67.9" y1="261.2" x2="43.8" y2="271.3"/>
<line class="st13" x1="61.1" y1="258.5" x2="43.9" y2="265.6"/>
<line class="st13" x1="54.3" y1="255.7" x2="44.7" y2="259.7"/>
<line class="st13" x1="47.5" y1="252.9" x2="43.6" y2="254.5"/>
<line class="st13" x1="149.4" y1="16.8" x2="187.1" y2="1"/>
<line class="st13" x1="144.8" y1="24.3" x2="193.8" y2="3.8"/>
<line class="st13" x1="140.2" y1="31.8" x2="200.5" y2="6.5"/>
<line class="st13" x1="131.1" y1="41.1" x2="207.2" y2="9.3"/>
<line class="st13" x1="137.9" y1="43.9" x2="214" y2="12"/>
<line class="st13" x1="144.6" y1="46.6" x2="220.7" y2="14.8"/>
<line class="st13" x1="151.3" y1="49.4" x2="227.4" y2="17.6"/>
<line class="st13" x1="158.1" y1="52.1" x2="234.2" y2="20.3"/>
<line class="st13" x1="164.8" y1="54.9" x2="240.9" y2="23.1"/>
<line class="st13" x1="171.5" y1="57.7" x2="247.6" y2="25.8"/>
<line class="st13" x1="178.3" y1="60.4" x2="254.4" y2="28.6"/>
<line class="st13" x1="185" y1="63.2" x2="261.1" y2="31.4"/>
<line class="st13" x1="191.7" y1="66" x2="256.5" y2="38.9"/>
<line class="st13" x1="198.4" y1="68.7" x2="254" y2="45.5"/>
<line class="st13" x1="205.2" y1="71.5" x2="253.3" y2="51.3"/>
<line class="st13" x1="211.9" y1="74.2" x2="253.5" y2="56.8"/>
<line class="st13" x1="218.7" y1="77" x2="251.1" y2="63.5"/>
<line class="st13" x1="225.5" y1="79.8" x2="249.6" y2="69.7"/>
<line class="st13" x1="232.3" y1="82.6" x2="249.4" y2="75.4"/>
<line class="st13" x1="239.1" y1="85.4" x2="248.6" y2="81.4"/>
<line class="st13" x1="245.8" y1="88.2" x2="249.8" y2="86.5"/>
<path class="st14" d="M58.7,187.7l38.1,15.6c9.1,3.7,19.5-0.6,23.2-9.7l0,0c3.5-8.5-0.1-18.2-8.1-22.4c0.5-0.9,0.9-1.8,1.3-2.7
	c5-12.2-0.8-26.2-13.1-31.2c-1.6-0.7-3.3-1.1-5-1.4c0.3-14-7.9-27.5-21.6-33.1c-17.8-7.3-38.2,1.2-45.5,19c-1.9,4.6-2.7,9.3-2.6,14
	c-9-3.4-19,1-22.7,9.9l0,0c-3.7,9.1,0.6,19.5,9.7,23.2l16.2,6.6"/>
</svg>
