<?xml version="1.0" encoding="utf-8"?>
<!-- Generator: Adobe Illustrator 19.2.1, SVG Export Plug-In . SVG Version: 6.00 Build 0)  -->
<svg version="1.1" id="Layer_1" xmlns="http://www.w3.org/2000/svg" xmlns:xlink="http://www.w3.org/1999/xlink" x="0px" y="0px" viewBox="0 0 252 239" style="enable-background:new 0 0 252 239;" xml:space="preserve">
    <style type="text/css">
        .st0 {
            fill: #2F384F;
        }
        .st1 {
            fill: #C4CDD3;
        }
        .st2 {
            fill: #F4F4F4;
        }
        .st3 {
            fill: #181D2C;
        }
        .st4 {
            fill: #FFFFFF;
        }
        .st5 {
            fill: #474747;
        }
        .st6 {
            fill: #FFAA44;
        }
        .st7 {
            fill: none;
            stroke: #E2E2E2;
        }
        .st8 {
            fill: #AAAAAA;
        }
        .st9 {
            fill: #662255;
        }
        .st10 {
            fill: #BB5566;
        }
        .st11 {
            fill: #44BB77;
        }
        .st12 {
            fill: #3399DD;
        }
    </style>
    <rect id="BG" x="0.1" y="0.3" class="st0" width="253.4" height="27.4"/>
    <rect id="Bowling-Alley-BG_1_" x="2" y="27.8" class="st1" width="251.9" height="213.1"/>
    <g>
        <rect id="Bowling-Alley-BG" x="0.1" y="27" class="st2" width="100" height="213.1"/>
        <rect id="BG_1_" x="0.1" y="27" class="st3" width="100" height="26.2"/>
        <rect id="BG_2_" x="0.1" y="53" class="st4" width="100" height="26.2"/>
        <rect id="Rectangle-235" x="11.2" y="62.6" class="st5" width="44" height="5.4"/>
        <rect id="Rectangle-235-Copy" x="87.4" y="62.6" class="st5" width="5.1" height="5.4"/>
        <rect id="Rectangle-237" x="0.2" y="53" class="st6" width="1.8" height="26.3"/>
        <rect id="BG_3_" x="0.1" y="79.1" class="st7" width="100" height="26.2"/>
        <rect id="Rectangle-235_1_" x="11.2" y="88.7" class="st8" width="44" height="5.4"/>
        <rect id="Rectangle-237_1_" x="0.2" y="79.1" class="st9" width="1.8" height="26.3"/>
        <rect id="BG_4_" x="0.1" y="104.1" class="st7" width="100" height="26.2"/>
        <rect id="Rectangle-235_2_" x="11.2" y="113.7" class="st8" width="44" height="5.4"/>
        <rect id="Rectangle-237_2_" x="0.2" y="104.1" class="st10" width="1.8" height="26.3"/>
        <rect id="BG_5_" x="0.1" y="129.1" class="st7" width="100" height="26.2"/>
        <rect id="Rectangle-235_3_" x="11.2" y="138.7" class="st8" width="44" height="5.4"/>
        <rect id="Rectangle-237_3_" x="0.2" y="129.1" class="st11" width="1.8" height="26.3"/>
        <rect id="BG_6_" x="0.1" y="154.1" class="st7" width="100" height="26.2"/>
        <rect id="Rectangle-235_4_" x="11.2" y="163.7" class="st8" width="44" height="5.4"/>
        <rect id="Rectangle-237_4_" x="0.2" y="154.1" class="st12" width="1.8" height="26.3"/>
    </g>
</svg>
