<?xml version="1.0" encoding="UTF-8" standalone="no"?>
<svg width="744px" height="569px" viewBox="0 0 744 569" version="1.1" xmlns="http://www.w3.org/2000/svg"
     xmlns:xlink="http://www.w3.org/1999/xlink" xmlns:sketch="http://www.bohemiancoding.com/sketch/ns">
    <!-- Generator: Sketch 3.4.4 (17249) - http://www.bohemiancoding.com/sketch -->
    <title>Layout - Mainframe - Cards - NPS Card</title>
    <desc>Created with Sketch.</desc>
    <defs>
        <path id="path-1" d="M0,0.0189919012 L11.9362469,0.0189919012 L11.9362469,20.9073934 L0,20.9073934"></path>
        <path id="path-3" d="M0,0.0189919012 L11.9362469,0.0189919012 L11.9362469,20.9073934 L0,20.9073934"></path>
        <path id="path-5" d="M0,0.0189919012 L11.9362469,0.0189919012 L11.9362469,20.9073934 L0,20.9073934"></path>
        <path id="path-7" d="M0,0.0189919012 L11.9362469,0.0189919012 L11.9362469,20.9073934 L0,20.9073934"></path>
        <path id="path-9" d="M0,0.0189919012 L11.9362469,0.0189919012 L11.9362469,20.9073934 L0,20.9073934"></path>
        <path id="path-11" d="M0,0.0189919012 L11.9362469,0.0189919012 L11.9362469,20.9073934 L0,20.9073934"></path>
        <path id="path-13" d="M0,0.0189919012 L11.9362469,0.0189919012 L11.9362469,20.9073934 L0,20.9073934"></path>
        <path id="path-15" d="M0,0.0189919012 L11.9362469,0.0189919012 L11.9362469,20.9073934 L0,20.9073934"></path>
        <path id="path-17" d="M0,0.0189919012 L11.9362469,0.0189919012 L11.9362469,20.9073934 L0,20.9073934"></path>
        <path id="path-19" d="M0,0.0189919012 L11.9362469,0.0189919012 L11.9362469,20.9073934 L0,20.9073934"></path>
        <path id="path-21" d="M0,0.0189919012 L11.9362469,0.0189919012 L11.9362469,20.9073934 L0,20.9073934"></path>
        <path id="path-23" d="M0,0.00823209129 L19.8602874,0.00823209129 L19.8602874,19.8652344 L0,19.8652344"></path>
        <path id="path-25"
              d="M0,0.0237725459 L19.9952135,0.0237725459 L19.9952135,20.018986 L0,20.018986 L0,0.0237725459 Z"></path>
        <path id="path-27" d="M0,0 L19.8556537,0 L19.8556537,19.894043 L0,19.894043"></path>
        <path id="path-29" d="M0,0 L19.8556537,0 L19.8556537,19.894043 L0,19.894043"></path>
    </defs>
    <g id="--Images" stroke="none" stroke-width="1" fill="none" fill-rule="evenodd" sketch:type="MSPage">
        <g id="Layout---Mainframe---Cards---NPS-Card" sketch:type="MSArtboardGroup">
            <g id="Group" sketch:type="MSLayerGroup" transform="translate(66.000000, 22.000000)">
                <g id="Group-Copy-17" transform="translate(0.000000, 0.109375)">
                    <g id="Group-Copy-4">
                        <rect id="Rectangle-38-Copy-2" fill="#F4F4F4" sketch:type="MSShapeGroup" x="0" y="0" width="526"
                              height="463" rx="5"></rect>
                        <g id="Grippah" transform="translate(17.445312, 16.625000)">
                            <g id="Group-3">
                                <mask id="mask-2" sketch:name="Clip 2" fill="white">
                                    <use xlink:href="#path-1"></use>
                                </mask>
                                <g id="Clip-2"></g>
                                <path
                                    d="M1.49202984,0.0189878257 C2.31605828,0.0189878257 2.98407598,0.687005535 2.98407598,1.51103397 C2.98407598,2.33502165 2.31605828,3.00303936 1.49202984,3.00303936 C0.668001407,3.00303936 -1.63020609e-05,2.33502165 -1.63020609e-05,1.51103397 C-1.63020609e-05,0.687005535 0.668001407,0.0189878257 1.49202984,0.0189878257"
                                    id="Fill-1" fill="#AAAAAA" sketch:type="MSShapeGroup" mask="url(#mask-2)"></path>
                            </g>
                            <g id="Group-6">
                                <mask id="mask-4" sketch:name="Clip 5" fill="white">
                                    <use xlink:href="#path-3"></use>
                                </mask>
                                <g id="Clip-5"></g>
                                <path
                                    d="M5.96811529,0.0189878257 C6.79214372,0.0189878257 7.46016143,0.687005535 7.46016143,1.51103397 C7.46016143,2.33502165 6.79214372,3.00303936 5.96811529,3.00303936 C5.14408686,3.00303936 4.47606915,2.33502165 4.47606915,1.51103397 C4.47606915,0.687005535 5.14408686,0.0189878257 5.96811529,0.0189878257"
                                    id="Fill-4" fill="#AAAAAA" sketch:type="MSShapeGroup" mask="url(#mask-4)"></path>
                            </g>
                            <g id="Group-9">
                                <mask id="mask-6" sketch:name="Clip 8" fill="white">
                                    <use xlink:href="#path-5"></use>
                                </mask>
                                <g id="Clip-8"></g>
                                <path
                                    d="M1.49202984,8.9711628 C2.31605828,8.9711628 2.98407598,9.63918051 2.98407598,10.4632089 C2.98407598,11.2872374 2.31605828,11.9552143 1.49202984,11.9552143 C0.668001407,11.9552143 -1.63020609e-05,11.2872374 -1.63020609e-05,10.4632089 C-1.63020609e-05,9.63918051 0.668001407,8.9711628 1.49202984,8.9711628"
                                    id="Fill-7" fill="#AAAAAA" sketch:type="MSShapeGroup" mask="url(#mask-6)"></path>
                            </g>
                            <path
                                d="M5.96811529,8.9711628 C6.79214372,8.9711628 7.46016143,9.63918051 7.46016143,10.4632089 C7.46016143,11.2872374 6.79214372,11.9552143 5.96811529,11.9552143 C5.14408686,11.9552143 4.47606915,11.2872374 4.47606915,10.4632089 C4.47606915,9.63918051 5.14408686,8.9711628 5.96811529,8.9711628"
                                id="Fill-10" fill="#AAAAAA" sketch:type="MSShapeGroup"></path>
                            <g id="Group-14">
                                <mask id="mask-8" sketch:name="Clip 13" fill="white">
                                    <use xlink:href="#path-7"></use>
                                </mask>
                                <g id="Clip-13"></g>
                                <path
                                    d="M1.49202984,4.49507327 C2.31605828,4.49507327 2.98407598,5.16309098 2.98407598,5.98711942 C2.98407598,6.8111071 2.31605828,7.47912481 1.49202984,7.47912481 C0.668001407,7.47912481 -1.63020609e-05,6.8111071 -1.63020609e-05,5.98711942 C-1.63020609e-05,5.16309098 0.668001407,4.49507327 1.49202984,4.49507327"
                                    id="Fill-12" fill="#AAAAAA" sketch:type="MSShapeGroup" mask="url(#mask-8)"></path>
                            </g>
                            <path
                                d="M5.96811529,4.49507327 C6.79214372,4.49507327 7.46016143,5.16309098 7.46016143,5.98711942 C7.46016143,6.8111071 6.79214372,7.47912481 5.96811529,7.47912481 C5.14408686,7.47912481 4.47606915,6.8111071 4.47606915,5.98711942 C4.47606915,5.16309098 5.14408686,4.49507327 5.96811529,4.49507327"
                                id="Fill-15" fill="#AAAAAA" sketch:type="MSShapeGroup"></path>
                            <g id="Group-19">
                                <mask id="mask-10" sketch:name="Clip 18" fill="white">
                                    <use xlink:href="#path-9"></use>
                                </mask>
                                <g id="Clip-18"></g>
                                <path
                                    d="M1.49202984,13.4472482 C2.31605828,13.4472482 2.98407598,14.115266 2.98407598,14.9392944 C2.98407598,15.7632821 2.31605828,16.4312998 1.49202984,16.4312998 C0.668001407,16.4312998 -1.63020609e-05,15.7632821 -1.63020609e-05,14.9392944 C-1.63020609e-05,14.115266 0.668001407,13.4472482 1.49202984,13.4472482"
                                    id="Fill-17" fill="#AAAAAA" sketch:type="MSShapeGroup" mask="url(#mask-10)"></path>
                            </g>
                            <path
                                d="M5.96811529,13.4472482 C6.79214372,13.4472482 7.46016143,14.115266 7.46016143,14.9392944 C7.46016143,15.7632821 6.79214372,16.4312998 5.96811529,16.4312998 C5.14408686,16.4312998 4.47606915,15.7632821 4.47606915,14.9392944 C4.47606915,14.115266 5.14408686,13.4472482 5.96811529,13.4472482"
                                id="Fill-20" fill="#AAAAAA" sketch:type="MSShapeGroup"></path>
                            <g id="Group-24">
                                <mask id="mask-12" sketch:name="Clip 23" fill="white">
                                    <use xlink:href="#path-11"></use>
                                </mask>
                                <g id="Clip-23"></g>
                                <path
                                    d="M1.49202984,17.9233337 C2.31605828,17.9233337 2.98407598,18.5913514 2.98407598,19.4153798 C2.98407598,20.2393675 2.31605828,20.9073852 1.49202984,20.9073852 C0.668001407,20.9073852 -1.63020609e-05,20.2393675 -1.63020609e-05,19.4153798 C-1.63020609e-05,18.5913514 0.668001407,17.9233337 1.49202984,17.9233337"
                                    id="Fill-22" fill="#AAAAAA" sketch:type="MSShapeGroup" mask="url(#mask-12)"></path>
                            </g>
                            <path
                                d="M5.96811529,17.9233337 C6.79214372,17.9233337 7.46016143,18.5913514 7.46016143,19.4153798 C7.46016143,20.2393675 6.79214372,20.9073852 5.96811529,20.9073852 C5.14408686,20.9073852 4.47606915,20.2393675 4.47606915,19.4153798 C4.47606915,18.5913514 5.14408686,17.9233337 5.96811529,17.9233337"
                                id="Fill-25" fill="#AAAAAA" sketch:type="MSShapeGroup"></path>
                            <g id="Group-29">
                                <mask id="mask-14" sketch:name="Clip 28" fill="white">
                                    <use xlink:href="#path-13"></use>
                                </mask>
                                <g id="Clip-28"></g>
                                <path
                                    d="M10.4442048,0.0189878257 C11.2682332,0.0189878257 11.936251,0.687005535 11.936251,1.51103397 C11.936251,2.33502165 11.2682332,3.00303936 10.4442048,3.00303936 C9.62017638,3.00303936 8.95215867,2.33502165 8.95215867,1.51103397 C8.95215867,0.687005535 9.62017638,0.0189878257 10.4442048,0.0189878257"
                                    id="Fill-27" fill="#AAAAAA" sketch:type="MSShapeGroup" mask="url(#mask-14)"></path>
                            </g>
                            <g id="Group-32">
                                <mask id="mask-16" sketch:name="Clip 31" fill="white">
                                    <use xlink:href="#path-15"></use>
                                </mask>
                                <g id="Clip-31"></g>
                                <path
                                    d="M10.4442048,8.9711628 C11.2682332,8.9711628 11.936251,9.63918051 11.936251,10.4632089 C11.936251,11.2872374 11.2682332,11.9552143 10.4442048,11.9552143 C9.62017638,11.9552143 8.95215867,11.2872374 8.95215867,10.4632089 C8.95215867,9.63918051 9.62017638,8.9711628 10.4442048,8.9711628"
                                    id="Fill-30" fill="#AAAAAA" sketch:type="MSShapeGroup" mask="url(#mask-16)"></path>
                            </g>
                            <g id="Group-35">
                                <mask id="mask-18" sketch:name="Clip 34" fill="white">
                                    <use xlink:href="#path-17"></use>
                                </mask>
                                <g id="Clip-34"></g>
                                <path
                                    d="M10.4442048,4.49507327 C11.2682332,4.49507327 11.936251,5.16309098 11.936251,5.98711942 C11.936251,6.8111071 11.2682332,7.47912481 10.4442048,7.47912481 C9.62017638,7.47912481 8.95215867,6.8111071 8.95215867,5.98711942 C8.95215867,5.16309098 9.62017638,4.49507327 10.4442048,4.49507327"
                                    id="Fill-33" fill="#AAAAAA" sketch:type="MSShapeGroup" mask="url(#mask-18)"></path>
                            </g>
                            <g id="Group-38">
                                <mask id="mask-20" sketch:name="Clip 37" fill="white">
                                    <use xlink:href="#path-19"></use>
                                </mask>
                                <g id="Clip-37"></g>
                                <path
                                    d="M10.4442048,13.4472482 C11.2682332,13.4472482 11.936251,14.115266 11.936251,14.9392944 C11.936251,15.7632821 11.2682332,16.4312998 10.4442048,16.4312998 C9.62017638,16.4312998 8.95215867,15.7632821 8.95215867,14.9392944 C8.95215867,14.115266 9.62017638,13.4472482 10.4442048,13.4472482"
                                    id="Fill-36" fill="#AAAAAA" sketch:type="MSShapeGroup" mask="url(#mask-20)"></path>
                            </g>
                            <g id="Group-41">
                                <mask id="mask-22" sketch:name="Clip 40" fill="white">
                                    <use xlink:href="#path-21"></use>
                                </mask>
                                <g id="Clip-40"></g>
                                <path
                                    d="M10.4442048,17.9233337 C11.2682332,17.9233337 11.936251,18.5913514 11.936251,19.4153798 C11.936251,20.2393675 11.2682332,20.9073852 10.4442048,20.9073852 C9.62017638,20.9073852 8.95215867,20.2393675 8.95215867,19.4153798 C8.95215867,18.5913514 9.62017638,17.9233337 10.4442048,17.9233337"
                                    id="Fill-39" fill="#AAAAAA" sketch:type="MSShapeGroup" mask="url(#mask-22)"></path>
                            </g>
                        </g>
                    </g>
                    <text id="Pulse-Card-Title" sketch:type="MSTextLayer" font-family="Roboto" font-size="22"
                          font-weight="260" fill="#474747">
                        <tspan x="65.234375" y="36">Pulse Card Title</tspan>
                    </text>
                    <path
                        d="M55.6267032,20.3526829 L48.8299848,16.4286475 C47.84014,15.8571175 46.6205834,15.8571175 45.6306943,16.4286475 L38.8340202,20.3526829 C37.8441311,20.9241685 37.234375,21.9803991 37.234375,23.1233703 L37.234375,26.8757871 L40.7936211,26.8757871 L43.6910047,21.0786253 L43.9432442,20.5360532 L44.1751732,21.1040798 L47.6730446,30.4332151 L49.4534881,26.8752106 L51.4121134,26.8752106 C51.741426,26.2279379 52.4122021,25.783592 53.1882109,25.783592 C54.2890978,25.783592 55.181559,26.6760532 55.181559,27.7769401 C55.181559,28.8778714 54.2890978,29.7703326 53.1882109,29.7703326 C52.4108717,29.7703326 51.7392087,29.3243902 51.4104726,28.6753437 L50.5993861,28.6753437 L47.7019581,34.5268293 L47.4312264,35.0422616 L47.2177896,34.5014191 L43.7199626,25.1728603 L41.9394748,28.6840355 L37.234375,28.6840355 L37.234375,30.9714856 C37.234375,32.1145011 37.8441311,33.1706874 38.8340202,33.7421729 L45.6306943,37.6662971 C46.6205834,38.2377827 47.84014,38.2377827 48.8299848,37.6662971 L55.6267032,33.7421729 C56.6165479,33.1706874 57.2263484,32.1145011 57.2263484,30.9714856 L57.2263484,23.1233703 C57.2263484,21.9803991 56.6165479,20.9241685 55.6267032,20.3526829"
                        id="Imported-Layers-Copy-3" fill="#3BAFDA" sketch:type="MSShapeGroup"></path>
                </g>
            </g>
            <g id="Page-1" sketch:type="MSLayerGroup" transform="translate(494.000000, 40.710938)">
                <mask id="mask-24" sketch:name="Clip 2" fill="white">
                    <use xlink:href="#path-23"></use>
                </mask>
                <g id="Clip-2"></g>
                <path
                    d="M14.8927421,6.71463473 C18.0357004,12.3467379 12.2692171,18.1131825 6.6379642,14.9694126 C5.91075749,14.5637599 5.3022784,13.9544692 4.89581407,13.2272624 C1.7520441,7.59600957 7.51852743,1.82952625 13.1505919,4.97248459 C13.8777986,5.37894893 14.4862777,5.98742802 14.8927421,6.71463473 M19.8602874,12.2098455 L17.5228759,11.2427101 C17.5970807,10.8173081 17.6424151,10.3819734 17.6424151,9.93508295 C17.6424151,9.48823112 17.5962304,9.05370811 17.5228759,8.62826744 L19.8413111,7.66855246 C19.7333277,7.11205536 19.5684153,6.57117218 19.345801,6.03442437 C19.1256602,5.50100031 18.8552379,5.00463999 18.5592305,4.52230901 L16.221819,5.49025608 C15.7155647,4.77460522 15.0906214,4.14966195 14.3741203,3.64259604 L15.3412558,1.30761939 C14.3782557,0.704125938 13.3130308,0.261370831 12.2024328,0.00822436162 L11.2361476,2.34235075 C10.8107069,2.26899625 10.3761839,2.22281151 9.92933208,2.22281151 C9.48325322,2.22281151 9.04876885,2.26899625 8.62251657,2.34235075 L7.65619273,0.00907462457 C7.09965698,0.138507835 6.56209756,0.298473214 6.03029673,0.518614021 C5.4927373,0.742039936 4.99394214,1.00998871 4.51984325,1.31256638 L5.48531683,3.64340766 C4.76966596,4.14966195 4.14472269,4.77460522 3.63765679,5.49025608 L1.3035304,4.52315927 C0.69420105,5.48944447 0.26137856,6.54891075 0,7.66032037 L2.3374115,8.62745583 C2.26320673,9.05289649 2.21787226,9.48823112 2.21787226,9.93508295 C2.21787226,10.3819734 2.26405699,10.8164578 2.3374115,11.2418985 L0.0107055835,12.2048985 C0.130283473,12.7589608 0.293533959,13.3006556 0.513674767,13.8349299 C0.733776926,14.3716777 1.01165832,14.8663375 1.28950106,15.351142 L1.29031267,15.351142 L3.63765679,14.3790982 C4.14387243,15.0947491 4.76885435,15.7196923 5.48531683,16.2267582 L4.51818137,18.5625465 C5.48122011,19.1660786 6.54563337,19.6088337 7.65619273,19.8619415 L8.62332819,17.5286268 C9.04876885,17.6020199 9.48325322,17.648166 9.9301437,17.648166 C10.3761839,17.648166 10.8107069,17.6020199 11.2369592,17.5286268 L12.2040947,19.8652266 C12.7515481,19.7316581 13.2948661,19.5733546 13.8299907,19.3507403 C14.3691733,19.1289762 14.8704806,18.8544186 15.3404441,18.5584111 L14.3757822,16.2275699 C15.0906214,15.7213542 15.7155647,15.0963723 16.2226306,14.3807214 L18.5551338,15.3453834 C19.1677096,14.3807214 19.5980972,13.3212551 19.8602874,12.2098455"
                    id="Fill-1" fill="#CCCDCC" sketch:type="MSShapeGroup" mask="url(#mask-24)"></path>
            </g>
            <rect id="Rectangle-268" fill-opacity="0.15" fill="#38C6C2" sketch:type="MSShapeGroup" x="88" y="79.6728516"
                  width="482" height="381.255859"></rect>
            <g id="Page-1" sketch:type="MSLayerGroup" transform="translate(553.455078, 40.655273)">
                <mask id="mask-26" sketch:name="Clip 2" fill="white">
                    <use xlink:href="#path-25"></use>
                </mask>
                <g id="Clip-2"></g>
                <path
                    d="M15.6592262,15.6829988 C12.5445926,18.7976324 7.44893958,18.7976324 4.33516617,15.6829988 C1.22135365,12.5683652 1.22053255,7.47271213 4.33516617,4.35893871 C7.44976068,1.24512619 12.5454528,1.2443051 15.6592262,4.35893871 C18.7729997,7.47353322 18.7738598,12.5692254 15.6592262,15.6829988 L15.6592262,15.6829988 Z M2.91964399,2.94341654 C-0.973227698,6.83628823 -0.973227698,13.2064703 2.91964399,17.099342 C6.81251569,20.9922137 13.1826978,20.9922137 17.0755695,17.099342 C20.9684412,13.2064703 20.9684412,6.83628823 17.0755695,2.94341654 C13.1826978,-0.949455152 6.81251569,-0.949455152 2.91964399,2.94341654 L2.91964399,2.94341654 Z M7.16617141,5.77442178 L5.75064924,7.18994395 L8.58169358,10.0209492 L5.75064924,12.8519935 L7.16617141,14.2674766 L9.99717665,11.4364714 L12.828221,14.2674766 L14.2437041,12.8519935 L11.4126988,10.0209492 L14.2437041,7.18994395 L12.828221,5.77442178 L9.99717665,8.60546612 L7.16617141,5.77442178 Z"
                    id="Fill-1" fill="#CCCDCC" sketch:type="MSShapeGroup" mask="url(#mask-26)"></path>
            </g>
            <g id="Page-1" sketch:type="MSLayerGroup" transform="translate(524.401855, 40.816895)">
                <g id="Group-3">
                    <mask id="mask-28" sketch:name="Clip 2" fill="white">
                        <use xlink:href="#path-27"></use>
                    </mask>
                    <g id="Clip-2"></g>
                    <path
                        d="M2.75478486,2.82739034 C1.33286591,4.24930929 0.53360719,5.68284606 3.88555532e-06,7.46025446 L2.66572793,7.46025446 C3.02117853,6.39382496 3.6431005,5.4938915 4.53219326,4.60479875 C7.46512694,1.67186506 12.4788143,1.8869694 15.4117092,4.81990309 L12.5112199,7.46025446 L19.8359578,7.46025446 L19.8556576,0.375993527 L17.1891176,3.04249468 C13.2788502,-0.86781157 6.66509111,-1.08291591 2.75478486,2.82739034"
                        id="Fill-1" fill="#CCCDCC" sketch:type="MSShapeGroup" mask="url(#mask-28)"></path>
                </g>
                <g id="Group-6">
                    <mask id="mask-30" sketch:name="Clip 5" fill="white">
                        <use xlink:href="#path-29"></use>
                    </mask>
                    <g id="Clip-5"></g>
                    <path
                        d="M17.1008572,17.0666487 C18.5227761,15.6447298 19.3220348,14.211193 19.8556381,12.4337846 L17.1899141,12.4337846 C16.8344635,13.5002141 16.2125415,14.4001476 15.3234488,15.2892403 C12.3905151,18.222174 7.3768277,18.0070697 4.44393287,15.074136 L7.34442217,12.4337846 L0.019684223,12.4337846 L-1.5542221e-05,19.5180456 L2.66652447,16.8515444 C6.57679187,20.7618507 13.1905509,20.976955 17.1008572,17.0666487"
                        id="Fill-4" fill="#CCCDCC" sketch:type="MSShapeGroup" mask="url(#mask-30)"></path>
                </g>
            </g>
            <path d="M28.4975912,78.9287109 L637.503967,78.9287109" id="Line" stroke="#38C6C2" stroke-width="2"
                  stroke-linecap="square" stroke-dasharray="8,8" sketch:type="MSShapeGroup"></path>
            <path d="M28.4975912,460.928711 L637.503967,460.928711" id="Line-Copy" stroke="#38C6C2" stroke-width="2"
                  stroke-linecap="square" stroke-dasharray="8,8" sketch:type="MSShapeGroup"></path>
            <path d="M89,66.4364825 L89,500.534844" id="Line-Copy-2" stroke="#38C6C2" stroke-width="2"
                  stroke-linecap="square" stroke-dasharray="8,8" sketch:type="MSShapeGroup"></path>
            <text id="22-px" sketch:type="MSTextLayer" font-family="Roboto" font-size="14" font-weight="bold"
                  line-spacing="24" fill="#6D6D6D">
                <tspan x="670" y="474.928711">22 px</tspan>
            </text>
            <text id="22-px" sketch:type="MSTextLayer" font-family="Roboto" font-size="14" font-weight="bold"
                  line-spacing="24" fill="#6D6D6D">
                <tspan x="572.625977" y="536.135742">22 px</tspan>
            </text>
            <path d="M652.5,460.428711 L652.5,485.508583" id="Line" stroke="#979797" stroke-linecap="square"
                  sketch:type="MSShapeGroup"></path>
            <path id="Line-decoration-1" d="M655.5,460.428711 L649.5,460.428711" stroke="#979797"
                  stroke-linecap="square"></path>
            <path id="Line-decoration-2" d="M655.5,485.508583 L649.5,485.508583" stroke="#979797"
                  stroke-linecap="square"></path>
            <path d="M572.625977,515.682617 L597.705849,515.682617" id="Line-Copy-3" stroke="#979797"
                  stroke-linecap="square" sketch:type="MSShapeGroup"></path>
            <path id="Line-Copy-3-decoration-1" d="M572.625977,512.682617 L572.625977,518.682617" stroke="#979797"
                  stroke-linecap="square"></path>
            <path id="Line-Copy-3-decoration-2" d="M597.705849,512.682617 L597.705849,518.682617" stroke="#979797"
                  stroke-linecap="square"></path>
            <path d="M571,66.4364825 L571,500.534844" id="Line-Copy" stroke="#38C6C2" stroke-width="2"
                  stroke-linecap="square" stroke-dasharray="8,8" sketch:type="MSShapeGroup"></path>
        </g>
    </g>
</svg>
