<?xml version="1.0" encoding="UTF-8" standalone="no"?>
<svg width="628px" height="192px" viewBox="0 0 628 192" version="1.1" xmlns="http://www.w3.org/2000/svg"
     xmlns:xlink="http://www.w3.org/1999/xlink" xmlns:sketch="http://www.bohemiancoding.com/sketch/ns">
    <!-- Generator: Sketch 3.4.4 (17249) - http://www.bohemiancoding.com/sketch -->
    <title>Layout - Great for Juggling</title>
    <desc>Created with Sketch.</desc>
    <defs></defs>
    <g id="--Images" stroke="none" stroke-width="1" fill="none" fill-rule="evenodd" sketch:type="MSPage">
        <g id="Layout---Great-for-Juggling" sketch:type="MSArtboardGroup">
            <g id="Group" sketch:type="MSLayerGroup" transform="translate(23.000000, 13.000000)">
                <rect id="Rectangle-52" opacity="0.5" fill="#CCCDCC" sketch:type="MSShapeGroup" x="0" y="43.7853527"
                      width="21.8472606" height="83.8323529" rx="2"></rect>
                <g transform="translate(178.385191, 107.231449)" fill="#38C6C2" sketch:type="MSShapeGroup"
                   opacity="0.5">
                    <rect id="Rectangle-52-Copy-17" x="47.2218445" y="2.14774421" width="39.5875" height="27.9441176"
                          rx="2"></rect>
                    <rect id="Rectangle-52-Copy-18" x="0.285596421" y="0.906155934" width="39.5875" height="58.3714119"
                          rx="2"></rect>
                    <rect id="Rectangle-52-Copy-19" x="47.2218445" y="35.836303" width="84.9966912" height="4"
                          rx="1"></rect>
                    <rect id="Rectangle-52-Copy-23" x="90.6650778" y="12.8782148" width="19.79375" height="4"
                          rx="1"></rect>
                    <rect id="Rectangle-52-Copy-22" x="90.6650778" y="2.14774421" width="39.5875" height="4"
                          rx="1"></rect>
                    <rect id="Rectangle-52-Copy-20" x="47.2218445" y="45.9628619" width="58.9959297" height="4"
                          rx="1"></rect>
                </g>
                <g id="Group-Copy" transform="translate(437.700423, 48.734359)" fill="#38C6C2"
                   sketch:type="MSShapeGroup" opacity="0.5">
                    <rect id="Rectangle-52-Copy-17" x="47.2218445" y="0.147744212" width="39.5875" height="27.9441176"
                          rx="2"></rect>
                    <rect id="Rectangle-52-Copy-25" x="0.285596421" y="0.147744212" width="39.5875" height="27.9441176"
                          rx="2"></rect>
                    <rect id="Rectangle-52-Copy-26" x="0.285596421" y="33.9908031" width="39.5875" height="27.9441176"
                          rx="2"></rect>
                    <rect id="Rectangle-52-Copy-27" x="47.2218445" y="33.9908031" width="39.5875" height="27.9441176"
                          rx="2"></rect>
                    <rect id="Rectangle-52-Copy-23" x="90.6650778" y="33.9908031" width="19.79375" height="4"
                          rx="1"></rect>
                    <rect id="Rectangle-52-Copy-22" x="90.6650778" y="2.14774421" width="39.5875" height="4"
                          rx="1"></rect>
                    <rect id="Rectangle-52-Copy-28" x="90.6650778" y="12.119803" width="39.5875" height="4"
                          rx="1"></rect>
                    <rect id="Rectangle-52-Copy-29" x="90.6650778" y="24.0918619" width="39.5875" height="4"
                          rx="1"></rect>
                </g>
                <g transform="translate(226.310973, 0.818359)" fill="#38C6C2" sketch:type="MSShapeGroup" opacity="0.5">
                    <rect id="Rectangle-52-Copy-8" x="0.285596421" y="34.9383272" width="39.5875" height="27.9441176"
                          rx="2"></rect>
                    <rect id="Rectangle-52-Copy-6" x="90.6650778" y="0.00818014706" width="39.5875" height="27.9441176"
                          rx="2"></rect>
                    <rect id="Rectangle-52-Copy-10" x="47.2218445" y="34.9383272" width="83.1394836" height="4"
                          rx="1"></rect>
                    <rect id="Rectangle-52-Copy-16" x="0.285596421" y="0.00818014706" width="66.1792473" height="4"
                          rx="1"></rect>
                    <rect id="Rectangle-52-Copy-11" x="47.2218445" y="45.0648861" width="76.0872375" height="4"
                          rx="1"></rect>
                    <rect id="Rectangle-52-Copy-21" x="0.285596421" y="10.1347391" width="57.5684075" height="4"
                          rx="1"></rect>
                    <rect id="Rectangle-52-Copy-12" x="47.2218445" y="54.379592" width="52.7517883" height="4"
                          rx="1"></rect>
                    <rect id="Rectangle-52-Copy-24" x="0.285596421" y="20.9522978" width="27.7565046" height="4"
                          rx="1"></rect>
                </g>
                <path d="M31.8109727,69.2968816 L196.933474,69.2968816 L196.933474,32.2744174 L215.918591,32.2744174"
                      id="Path-5" stroke="#CCCDCC" sketch:type="MSShapeGroup"></path>
                <path d="M31.8109727,84.2744174 L416.001574,84.2744174" id="Path-6" stroke="#CCCDCC"
                      sketch:type="MSShapeGroup"></path>
                <path d="M31.8109727,100.274417 L152.000426,100.274417 L151.837843,137.372074 L169.943785,137.372074"
                      id="Path-7" stroke="#CCCDCC" sketch:type="MSShapeGroup"></path>
                <circle id="Oval-1" fill="#CCCDCC" sketch:type="MSShapeGroup" cx="415.15584" cy="84.2744174"
                        r="2"></circle>
                <circle id="Oval-1-Copy" fill="#CCCDCC" sketch:type="MSShapeGroup" cx="215" cy="32.2744174"
                        r="2"></circle>
                <circle id="Oval-1-Copy-2" fill="#CCCDCC" sketch:type="MSShapeGroup" cx="169.943785" cy="137.372074"
                        r="2"></circle>
            </g>
            <rect id="Rectangle-216" opacity="0.5" fill="#CCCDCC" sketch:type="MSShapeGroup" x="49" y="57" width="135"
                  height="9" rx="2"></rect>
        </g>
    </g>
</svg>
