<?xml version="1.0" encoding="UTF-8" standalone="no"?>
<svg width="292px" height="192px" viewBox="0 0 292 192" version="1.1" xmlns="http://www.w3.org/2000/svg"
     xmlns:xlink="http://www.w3.org/1999/xlink" xmlns:sketch="http://www.bohemiancoding.com/sketch/ns">
    <!-- Generator: Sketch 3.4.4 (17249) - http://www.bohemiancoding.com/sketch -->
    <title>Switches - Page Icon</title>
    <desc>Created with Sketch.</desc>
    <defs>
        <rect id="path-1" x="0.688400536" y="1.22079663" width="197.407521" height="37.019797" rx="3"></rect>
        <rect id="path-3" x="0.688400536" y="1.22079663" width="197.407521" height="37.019797" rx="3"></rect>
        <rect id="path-5" x="0.688400536" y="1.22079663" width="197.407521" height="37.019797" rx="3"></rect>
    </defs>
    <g id="--Images" stroke="none" stroke-width="1" fill="none" fill-rule="evenodd" sketch:type="MSPage">
        <g id="Switches---Page-Icon" sketch:type="MSArtboardGroup">
            <g id="Group" sketch:type="MSLayerGroup" transform="translate(46.474121, 24.000000)">
                <mask id="mask-2" sketch:name="Mask" fill="white">
                    <use xlink:href="#path-1"></use>
                </mask>
                <use id="Mask" stroke="#3399DD" sketch:type="MSShapeGroup" xlink:href="#path-1"></use>
                <g mask="url(#mask-2)" stroke-linecap="square" stroke="#3399DD" sketch:type="MSShapeGroup">
                    <g transform="translate(-257.372655, -150.193546)">
                        <path d="M0.667251838,1.0945384 L263.745966,280.791697" id="Line"></path>
                        <path d="M17.1703932,1.0945384 L280.249108,280.791697" id="Line-Copy-8"></path>
                        <path d="M33.6523859,1.0945384 L296.731101,280.791697" id="Line-Copy-9"></path>
                        <path d="M50.1343786,1.0945384 L313.213093,280.791697" id="Line-Copy-10"></path>
                        <path d="M66.6163713,1.0945384 L329.695086,280.791697" id="Line-Copy-11"></path>
                        <path d="M83.098364,1.0945384 L346.177079,280.791697" id="Line-Copy-12"></path>
                        <path d="M99.5803566,1.0945384 L362.659071,280.791697" id="Line-Copy-13"></path>
                        <path d="M116.062349,1.0945384 L379.141064,280.791697" id="Line-Copy-14"></path>
                        <path d="M132.544342,1.0945384 L395.623057,280.791697" id="Line-Copy-15"></path>
                        <path d="M149.026335,1.0945384 L412.105049,280.791697" id="Line-Copy-16"></path>
                        <path d="M165.508327,1.0945384 L428.587042,280.791697" id="Line-Copy-18"></path>
                        <path d="M181.99032,1.0945384 L445.069035,280.791697" id="Line-Copy-19"></path>
                        <path d="M198.472313,1.0945384 L461.551027,280.791697" id="Line-Copy-20"></path>
                        <path d="M214.954305,1.0945384 L478.03302,280.791697" id="Line-Copy-21"></path>
                        <path d="M231.436298,1.0945384 L494.515013,280.791697" id="Line-Copy-22"></path>
                        <path d="M247.918291,1.0945384 L510.997005,280.791697" id="Line-Copy-23"></path>
                        <path d="M264.400283,1.0945384 L527.478998,280.791697" id="Line-Copy-24"></path>
                        <path d="M280.882276,1.0945384 L543.960991,280.791697" id="Line-Copy-25"></path>
                        <path d="M297.364269,1.0945384 L560.442984,280.791697" id="Line-Copy-26"></path>
                        <path d="M313.846262,1.0945384 L576.924976,280.791697" id="Line-Copy-27"></path>
                        <path d="M330.328254,1.0945384 L593.406969,280.791697" id="Line-Copy-28"></path>
                        <path d="M346.810247,1.0945384 L609.888962,280.791697" id="Line-Copy-29"></path>
                        <path d="M363.29224,1.0945384 L626.370954,280.791697" id="Line-Copy-30"></path>
                        <path d="M379.774232,1.0945384 L642.852947,280.791697" id="Line-Copy-31"></path>
                        <path d="M396.256225,1.0945384 L659.33494,280.791697" id="Line-Copy-32"></path>
                        <path d="M412.738218,1.0945384 L675.816932,280.791697" id="Line-Copy-33"></path>
                        <path d="M429.22021,1.0945384 L692.298925,280.791697" id="Line-Copy-34"></path>
                        <path d="M445.702203,1.0945384 L708.780918,280.791697" id="Line-Copy-35"></path>
                        <path d="M462.184196,1.0945384 L725.26291,280.791697" id="Line-Copy-36"></path>
                    </g>
                </g>
            </g>
            <g id="Group-Copy" sketch:type="MSLayerGroup" transform="translate(46.474121, 76.254058)">
                <mask id="mask-4" sketch:name="Mask" fill="white">
                    <use xlink:href="#path-3"></use>
                </mask>
                <use id="Mask" stroke="#EB6845" sketch:type="MSShapeGroup" xlink:href="#path-3"></use>
                <g id="Group" mask="url(#mask-4)" stroke-linecap="square" stroke="#EB6845" sketch:type="MSShapeGroup">
                    <g transform="translate(-257.372655, -150.193546)">
                        <path d="M0.667251838,1.0945384 L263.745966,280.791697" id="Line"></path>
                        <path d="M17.1703932,1.0945384 L280.249108,280.791697" id="Line-Copy-8"></path>
                        <path d="M33.6523859,1.0945384 L296.731101,280.791697" id="Line-Copy-9"></path>
                        <path d="M50.1343786,1.0945384 L313.213093,280.791697" id="Line-Copy-10"></path>
                        <path d="M66.6163713,1.0945384 L329.695086,280.791697" id="Line-Copy-11"></path>
                        <path d="M83.098364,1.0945384 L346.177079,280.791697" id="Line-Copy-12"></path>
                        <path d="M99.5803566,1.0945384 L362.659071,280.791697" id="Line-Copy-13"></path>
                        <path d="M116.062349,1.0945384 L379.141064,280.791697" id="Line-Copy-14"></path>
                        <path d="M132.544342,1.0945384 L395.623057,280.791697" id="Line-Copy-15"></path>
                        <path d="M149.026335,1.0945384 L412.105049,280.791697" id="Line-Copy-16"></path>
                        <path d="M165.508327,1.0945384 L428.587042,280.791697" id="Line-Copy-18"></path>
                        <path d="M181.99032,1.0945384 L445.069035,280.791697" id="Line-Copy-19"></path>
                        <path d="M198.472313,1.0945384 L461.551027,280.791697" id="Line-Copy-20"></path>
                        <path d="M214.954305,1.0945384 L478.03302,280.791697" id="Line-Copy-21"></path>
                        <path d="M231.436298,1.0945384 L494.515013,280.791697" id="Line-Copy-22"></path>
                        <path d="M247.918291,1.0945384 L510.997005,280.791697" id="Line-Copy-23"></path>
                        <path d="M264.400283,1.0945384 L527.478998,280.791697" id="Line-Copy-24"></path>
                        <path d="M280.882276,1.0945384 L543.960991,280.791697" id="Line-Copy-25"></path>
                        <path d="M297.364269,1.0945384 L560.442984,280.791697" id="Line-Copy-26"></path>
                        <path d="M313.846262,1.0945384 L576.924976,280.791697" id="Line-Copy-27"></path>
                        <path d="M330.328254,1.0945384 L593.406969,280.791697" id="Line-Copy-28"></path>
                        <path d="M346.810247,1.0945384 L609.888962,280.791697" id="Line-Copy-29"></path>
                        <path d="M363.29224,1.0945384 L626.370954,280.791697" id="Line-Copy-30"></path>
                        <path d="M379.774232,1.0945384 L642.852947,280.791697" id="Line-Copy-31"></path>
                        <path d="M396.256225,1.0945384 L659.33494,280.791697" id="Line-Copy-32"></path>
                        <path d="M412.738218,1.0945384 L675.816932,280.791697" id="Line-Copy-33"></path>
                        <path d="M429.22021,1.0945384 L692.298925,280.791697" id="Line-Copy-34"></path>
                        <path d="M445.702203,1.0945384 L708.780918,280.791697" id="Line-Copy-35"></path>
                        <path d="M462.184196,1.0945384 L725.26291,280.791697" id="Line-Copy-36"></path>
                    </g>
                </g>
            </g>
            <rect id="Rectangle-201" fill="#3399DD" sketch:type="MSShapeGroup" x="47.3011922" y="25.2678456"
                  width="66.3463621" height="36.8473892" rx="3"></rect>
            <rect id="Rectangle-201-Copy" fill="#EB6845" sketch:type="MSShapeGroup" x="179.179517" y="76.8879807"
                  width="66.3463621" height="38.0353677" rx="3"></rect>
            <g id="Group-Copy-2" sketch:type="MSLayerGroup" transform="translate(46.474121, 128.235727)">
                <mask id="mask-6" sketch:name="Mask" fill="white">
                    <use xlink:href="#path-5"></use>
                </mask>
                <use id="Mask" stroke="#AAAAAA" sketch:type="MSShapeGroup" xlink:href="#path-5"></use>
                <g id="Group" mask="url(#mask-6)" stroke-linecap="square" stroke="#AAAAAA" sketch:type="MSShapeGroup">
                    <g transform="translate(-257.372655, -150.193546)">
                        <path d="M0.667251838,1.0945384 L263.745966,280.791697" id="Line"></path>
                        <path d="M17.1703932,1.0945384 L280.249108,280.791697" id="Line-Copy-8"></path>
                        <path d="M33.6523859,1.0945384 L296.731101,280.791697" id="Line-Copy-9"></path>
                        <path d="M50.1343786,1.0945384 L313.213093,280.791697" id="Line-Copy-10"></path>
                        <path d="M66.6163713,1.0945384 L329.695086,280.791697" id="Line-Copy-11"></path>
                        <path d="M83.098364,1.0945384 L346.177079,280.791697" id="Line-Copy-12"></path>
                        <path d="M99.5803566,1.0945384 L362.659071,280.791697" id="Line-Copy-13"></path>
                        <path d="M116.062349,1.0945384 L379.141064,280.791697" id="Line-Copy-14"></path>
                        <path d="M132.544342,1.0945384 L395.623057,280.791697" id="Line-Copy-15"></path>
                        <path d="M149.026335,1.0945384 L412.105049,280.791697" id="Line-Copy-16"></path>
                        <path d="M165.508327,1.0945384 L428.587042,280.791697" id="Line-Copy-18"></path>
                        <path d="M181.99032,1.0945384 L445.069035,280.791697" id="Line-Copy-19"></path>
                        <path d="M198.472313,1.0945384 L461.551027,280.791697" id="Line-Copy-20"></path>
                        <path d="M214.954305,1.0945384 L478.03302,280.791697" id="Line-Copy-21"></path>
                        <path d="M231.436298,1.0945384 L494.515013,280.791697" id="Line-Copy-22"></path>
                        <path d="M247.918291,1.0945384 L510.997005,280.791697" id="Line-Copy-23"></path>
                        <path d="M264.400283,1.0945384 L527.478998,280.791697" id="Line-Copy-24"></path>
                        <path d="M280.882276,1.0945384 L543.960991,280.791697" id="Line-Copy-25"></path>
                        <path d="M297.364269,1.0945384 L560.442984,280.791697" id="Line-Copy-26"></path>
                        <path d="M313.846262,1.0945384 L576.924976,280.791697" id="Line-Copy-27"></path>
                        <path d="M330.328254,1.0945384 L593.406969,280.791697" id="Line-Copy-28"></path>
                        <path d="M346.810247,1.0945384 L609.888962,280.791697" id="Line-Copy-29"></path>
                        <path d="M363.29224,1.0945384 L626.370954,280.791697" id="Line-Copy-30"></path>
                        <path d="M379.774232,1.0945384 L642.852947,280.791697" id="Line-Copy-31"></path>
                        <path d="M396.256225,1.0945384 L659.33494,280.791697" id="Line-Copy-32"></path>
                        <path d="M412.738218,1.0945384 L675.816932,280.791697" id="Line-Copy-33"></path>
                        <path d="M429.22021,1.0945384 L692.298925,280.791697" id="Line-Copy-34"></path>
                        <path d="M445.702203,1.0945384 L708.780918,280.791697" id="Line-Copy-35"></path>
                        <path d="M462.184196,1.0945384 L725.26291,280.791697" id="Line-Copy-36"></path>
                    </g>
                </g>
            </g>
            <path
                d="M112.826816,132.246437 C112.826816,130.590472 114.167103,129.248047 115.828193,129.248047 L176.171802,129.248047 C177.829416,129.248047 179.173178,130.587589 179.173178,132.246437 L179.173181,163.272704 C179.173181,164.92867 177.832894,166.271095 176.171804,166.271095 L115.828196,166.271095 C114.170581,166.271095 112.826819,164.931553 112.826819,163.272704 L112.826816,132.246437 Z"
                id="Rectangle-201-Copy-2" fill="#AAAAAA" sketch:type="MSShapeGroup"></path>
        </g>
    </g>
</svg>
