<?xml version="1.0" encoding="UTF-8" standalone="no"?>
<svg width="292px" height="192px" viewBox="0 0 292 192" version="1.1" xmlns="http://www.w3.org/2000/svg"
     xmlns:xlink="http://www.w3.org/1999/xlink" xmlns:sketch="http://www.bohemiancoding.com/sketch/ns">
    <!-- Generator: Sketch 3.4.4 (17249) - http://www.bohemiancoding.com/sketch -->
    <title>Color - Page Icon</title>
    <desc>Created with Sketch.</desc>
    <defs></defs>
    <g id="--Images" stroke="none" stroke-width="1" fill="none" fill-rule="evenodd" sketch:type="MSPage">
        <g id="Color---Page-Icon" sketch:type="MSArtboardGroup">
            <g id="Group" sketch:type="MSLayerGroup" transform="translate(63.496094, 26.000000)">
                <path
                    d="M112.750322,112.926327 C105.754122,129.371506 89.4482562,140.902344 70.4492188,140.902344 C51.4494109,140.902344 35.1429928,129.370571 28.1472647,112.924326 C33.6222178,115.227229 39.6370824,116.5 45.9492188,116.5 C54.9569758,116.5 63.3593444,113.908024 70.4511719,109.429225 C77.5430024,113.908025 85.9453696,116.5 94.953125,116.5 C101.263433,116.5 107.276642,115.227966 112.750322,112.926327 Z"
                    id="Oval-70-Copy-7" fill="#DA4453" sketch:type="MSShapeGroup"></path>
                <path
                    d="M112.852612,28.2183944 C105.914039,11.6442476 89.5414589,0 70.4492188,0 C51.3562066,0 34.9830742,11.6451892 28.0449843,28.2204047 C33.547272,25.8902446 39.5977515,24.6015625 45.9492188,24.6015625 C54.9569758,24.6015625 63.3593444,27.1935385 70.4511719,31.6723379 C77.5430024,27.1935376 85.9453696,24.6015625 94.953125,24.6015625 C101.302765,24.6015625 107.351591,25.8895034 112.852612,28.2183944 Z"
                    id="Oval-70-Copy-10" fill="#8CC152" sketch:type="MSShapeGroup"></path>
                <path
                    d="M28.0449843,28.2204047 C11.5630849,35.2003134 1.16529294e-15,51.5251957 0,70.5507812 C-1.16770191e-15,89.6156977 11.6109423,105.968733 28.1472647,112.924326 C25.7991636,107.404179 24.5,101.33037 24.5,94.953125 C24.5,85.9453679 27.091976,77.5429993 31.5707754,70.4511719 C27.0919751,63.3593414 24.5,54.9569742 24.5,45.9492188 C24.5,39.6651781 25.7614662,33.6757686 28.0449843,28.2204047 Z"
                    id="Oval-70-Copy-8" fill="#F6B042" sketch:type="MSShapeGroup"></path>
                <path
                    d="M112.852612,28.2183944 C129.337038,35.1971785 140.902344,51.523369 140.902344,70.5507812 C140.902344,89.6175259 129.289175,105.97187 112.750322,112.926327 C115.09896,107.405646 116.398437,101.33114 116.398437,94.953125 C116.398437,85.9453679 113.806461,77.5429993 109.327662,70.4511719 C113.806462,63.3593414 116.398437,54.9569742 116.398437,45.9492188 C116.398437,39.6644062 115.136661,33.6742972 112.852612,28.2183944 Z"
                    id="Oval-70-Copy-9" fill="#4A89DC" sketch:type="MSShapeGroup"></path>
                <path
                    d="M28.0449843,28.2204047 C33.547272,25.8902446 39.5977515,24.6015625 45.9492188,24.6015625 C71.3262715,24.6015625 91.8984375,45.1737285 91.8984375,70.5507812 C91.8984375,76.8348219 90.6369713,82.8242314 88.3534532,88.2795953 C82.8511655,90.6097554 76.800686,91.8984375 70.4492188,91.8984375 C45.072166,91.8984375 24.5,71.3262715 24.5,45.9492188 C24.5,39.6651781 25.7614662,33.6757686 28.0449843,28.2204047 Z"
                    id="Oval-70-Copy-8" fill="#F6D82A" sketch:type="MSShapeGroup"></path>
                <path
                    d="M88.2511728,52.5795804 C82.7762197,50.2766776 76.7613551,49.0039062 70.4492188,49.0039062 C45.072166,49.0039062 24.5,69.5760722 24.5,94.953125 C24.5,101.33037 25.7991636,107.404179 28.1472647,112.924326 C33.6222178,115.227229 39.6370824,116.5 45.9492188,116.5 C71.3262715,116.5 91.8984375,95.927834 91.8984375,70.5507812 C91.8984375,64.1735364 90.5992739,58.0997274 88.2511728,52.5795804 Z"
                    id="Oval-70-Copy-7" fill="#FC8B2A" sketch:type="MSShapeGroup"></path>
                <path
                    d="M112.750322,112.926327 C115.09896,107.405646 116.398438,101.33114 116.398438,94.953125 C116.398438,69.5760722 95.8262715,49.0039062 70.4492188,49.0039062 C64.1389106,49.0039062 58.125702,50.2759404 52.6520221,52.5775796 C50.3033838,58.0982598 49.0039062,64.1727659 49.0039062,70.5507812 C49.0039062,95.927834 69.5760722,116.5 94.953125,116.5 C101.263433,116.5 107.276642,115.227966 112.750322,112.926327 Z"
                    id="Oval-70-Copy-7" fill="#7E51CF" sketch:type="MSShapeGroup"></path>
                <path
                    d="M112.852612,28.2183944 C107.351591,25.8895034 101.302765,24.6015625 94.953125,24.6015625 C69.5760722,24.6015625 49.0039063,45.1737285 49.0039062,70.5507812 C49.0039062,76.8355938 50.2656824,82.8257028 52.5497321,88.2816056 C58.0507525,90.6104966 64.0995783,91.8984375 70.4492188,91.8984375 C95.8262715,91.8984375 116.398438,71.3262715 116.398438,45.9492188 C116.398438,39.6644062 115.136661,33.6742972 112.852612,28.2183944 Z"
                    id="Oval-70-Copy-9" fill="#5BC58D" sketch:type="MSShapeGroup"></path>
                <path
                    d="M109.327662,70.4511719 C101.188589,57.5635885 86.8185145,49.0039062 70.4492188,49.0039062 C64.1389106,49.0039062 58.125702,50.2759404 52.6520221,52.5775796 C50.3033838,58.0982598 49.0039062,64.1727659 49.0039062,70.5507812 C49.0039062,76.8355938 50.2656824,82.8257028 52.5497321,88.2816056 C58.0507525,90.6104966 64.0995783,91.8984375 70.4492188,91.8984375 C86.8185161,91.8984375 101.188592,83.3387535 109.327665,70.451168 Z"
                    id="Oval-70-Copy-7" fill="#8AAA85" sketch:type="MSShapeGroup"></path>
                <path
                    d="M88.3534532,88.2795953 C90.6369713,82.8242314 91.8984375,76.8348219 91.8984375,70.5507812 C91.8984375,54.1814855 83.3387553,39.8114107 70.4511719,31.6723379 C57.5635902,39.8114078 49.0039063,54.1814839 49.0039062,70.5507812 C49.0039062,76.8355938 50.2656824,82.8257028 52.5497321,88.2816056 C58.0507525,90.6104966 64.0995783,91.8984375 70.4492188,91.8984375 C76.800686,91.8984375 82.8511655,90.6097554 88.3534532,88.2795953 Z"
                    id="Oval-70-Copy-8" fill="#99DB82" sketch:type="MSShapeGroup"></path>
                <path
                    d="M88.2511728,52.5795804 C82.7762197,50.2766776 76.7613551,49.0039062 70.4492188,49.0039062 C64.1389106,49.0039062 58.125702,50.2759404 52.6520221,52.5775796 C50.3033838,58.0982598 49.0039062,64.1727659 49.0039062,70.5507812 C49.0039062,86.920077 57.5635885,101.290152 70.4511719,109.429225 C83.3387535,101.290155 91.8984375,86.9200786 91.8984375,70.5507812 C91.8984375,64.1735364 90.5992739,58.0997274 88.2511728,52.5795804 Z"
                    id="Oval-70-Copy-7" fill="#9293C4" sketch:type="MSShapeGroup"></path>
                <path
                    d="M31.5707754,70.4511719 C39.7098482,57.5635885 54.079923,49.0039062 70.4492187,49.0039062 C76.7613551,49.0039062 82.7762197,50.2766776 88.2511728,52.5795804 C90.5992739,58.0997274 91.8984375,64.1735364 91.8984375,70.5507812 C91.8984375,76.8348219 90.6369713,82.8242314 88.3534532,88.2795953 C82.8511655,90.6097554 76.800686,91.8984375 70.4492187,91.8984375 C54.0799214,91.8984375 39.7098453,83.3387535 31.5707729,70.451168 Z"
                    id="Oval-70-Copy-7" fill="#FCC61B" sketch:type="MSShapeGroup"></path>
                <path
                    d="M88.3534532,88.2795953 C90.6369713,82.8242314 91.8984375,76.8348219 91.8984375,70.5507812 C91.8984375,64.1735364 90.5992739,58.0997274 88.2511728,52.5795804 C82.7762197,50.2766776 76.7613551,49.0039062 70.4492188,49.0039062 C64.1389106,49.0039062 58.125702,50.2759404 52.6520221,52.5775796 C50.3033838,58.0982598 49.0039062,64.1727659 49.0039062,70.5507812 C49.0039062,76.8355938 50.2656824,82.8257028 52.5497321,88.2816056 C58.0507525,90.6104966 64.0995783,91.8984375 70.4492188,91.8984375 C76.800686,91.8984375 82.8511655,90.6097554 88.3534532,88.2795953 Z"
                    id="Oval-70-Copy-7" fill="#9CCA7E" sketch:type="MSShapeGroup"></path>
            </g>
        </g>
    </g>
</svg>
