<!-- Generator: Adobe Illustrator 19.2.1, SVG Export Plug-In  -->
<svg
    version="1.1"
    xmlns="http://www.w3.org/2000/svg"
    xmlns:xlink="http://www.w3.org/1999/xlink"
    xmlns:a="http://ns.adobe.com/AdobeSVGViewerExtensions/3.0/"
    x="0px"
    y="0px"
    width="716.1px"
    height="89.3px"
    viewBox="0 0 716.1 89.3"
    style="enable-background:new 0 0 716.1 89.3;"
    xml:space="preserve">
    <style type="text/css">
        .st0 {
            fill: #C4CDD3;
        }
        .st1 {
            fill: #F4F4F4;
        }
        .st2 {
            fill: #181D2C;
        }
        .st3 {
            fill: #2F384F;
        }
        .st4 {
            enable-background: new;
        }
        .st5 {
            fill: #FFFFFF;
        }
        .st6 {
            fill: #3399DD;
        }
        .st7 {
            filter:url("#Adobe_OpacityMaskFilter");
        }
        .st8 {
            mask: url("#mask-2_2_");
            fill: #FFFFFF;
        }
        .st9 {
            fill: #38C6C2;
        }
        .st10 {
            filter:url("#Adobe_OpacityMaskFilter_1_");
        }
        .st11 {
            mask: url("#mask-4_2_");
            fill: #FFFFFF;
        }
        .st12 {
            filter:url("#Adobe_OpacityMaskFilter_2_");
        }
        .st13 {
            mask: url("#mask-2_1_");
            fill: #FFFFFF;
        }
        .st14 {
            filter:url("#Adobe_OpacityMaskFilter_3_");
        }
        .st15 {
            mask: url("#mask-4_1_");
            fill: #FFFFFF;
        }

    </style>
    <defs></defs>
    <g>
        <rect id="MainframeBG_1_" y="27.1" class="st0" width="716.1" height="62.2"/>
        <rect id="BowlingAlleyBG_1_" y="27.1" class="st1" width="100" height="62.2"/>
        <rect id="Button_1_" y="27.4" class="st2" width="100" height="26.2"/>
        <g id="TopNav_1_">
            <rect id="BG_1_" class="st3" width="716.1" height="27.4"/>
            <g class="st4">
                <path class="st5" d="M133.1,14.8h-3.3v3.4h-2.1V9.6h5.7v1.6h-3.7v2h3.3V14.8z"/>
                <path
                    class="st5"
                    d="M134.1,10.2c0-0.1,0-0.3,0.1-0.4s0.1-0.2,0.2-0.3s0.2-0.2,0.3-0.2s0.3-0.1,0.4-0.1s0.3,0,0.4,0.1
				s0.2,0.1,0.3,0.2s0.2,0.2,0.2,0.3s0.1,0.2,0.1,0.4s0,0.3-0.1,0.4s-0.1,0.2-0.2,0.3s-0.2,0.2-0.3,0.2s-0.3,0.1-0.4,0.1
				s-0.3,0-0.4-0.1s-0.2-0.1-0.3-0.2s-0.2-0.2-0.2-0.3S134.1,10.3,134.1,10.2z M136.2,18.2h-2v-6.3h2V18.2z"/>
                <path
                    class="st5"
                    d="M139.3,11.8l0.1,0.7c0.2-0.3,0.5-0.5,0.8-0.6s0.6-0.2,1-0.2c0.3,0,0.6,0,0.8,0.1s0.5,0.2,0.6,0.4
				s0.3,0.4,0.4,0.8s0.1,0.7,0.1,1.2v4h-2v-4c0-0.2,0-0.3-0.1-0.5s-0.1-0.2-0.2-0.3s-0.2-0.1-0.3-0.1s-0.2,0-0.4,0
				c-0.2,0-0.4,0-0.5,0.1s-0.3,0.2-0.3,0.3v4.5h-2v-6.3H139.3z"/>
                <path
                    class="st5"
                    d="M144,14.9c0-0.5,0.1-0.9,0.2-1.3s0.3-0.7,0.5-1s0.5-0.5,0.8-0.7s0.7-0.2,1.1-0.2c0.3,0,0.6,0.1,0.8,0.2
				s0.4,0.3,0.6,0.5V9.2h2v9h-1.8l-0.1-0.7c-0.2,0.2-0.4,0.4-0.7,0.6s-0.5,0.2-0.9,0.2c-0.4,0-0.8-0.1-1.1-0.2s-0.6-0.4-0.8-0.7
				s-0.4-0.6-0.5-1c-0.1-0.4-0.2-0.8-0.2-1.3V14.9z M146,15.1c0,0.2,0,0.5,0,0.7s0.1,0.4,0.2,0.5s0.2,0.3,0.3,0.4s0.3,0.1,0.5,0.1
				c0.2,0,0.4,0,0.6-0.1s0.3-0.2,0.4-0.4v-2.4c-0.2-0.4-0.5-0.6-0.9-0.6c-0.2,0-0.3,0-0.5,0.1s-0.2,0.2-0.3,0.4s-0.1,0.3-0.2,0.5
				s-0.1,0.4-0.1,0.7V15.1z"/>
            </g>
            <g class="st4">
                <path class="st5" d="M207.1,16.6h-2.8l-0.5,1.6h-2.2l3.1-8.5h1.9l3.2,8.5h-2.2L207.1,16.6z M204.7,15h1.8l-0.9-3L204.7,15z"/>
                <path
                    class="st5"
                    d="M210,14.9c0-0.5,0.1-0.9,0.2-1.3s0.3-0.7,0.5-1s0.5-0.5,0.8-0.7s0.7-0.2,1.1-0.2c0.3,0,0.6,0.1,0.8,0.2
				s0.4,0.3,0.6,0.5V9.2h2v9h-1.8l-0.1-0.7c-0.2,0.2-0.4,0.4-0.7,0.6s-0.5,0.2-0.9,0.2c-0.4,0-0.8-0.1-1.1-0.2s-0.6-0.4-0.8-0.7
				s-0.4-0.6-0.5-1c-0.1-0.4-0.2-0.8-0.2-1.3V14.9z M212,15.1c0,0.2,0,0.5,0,0.7s0.1,0.4,0.2,0.5s0.2,0.3,0.3,0.4s0.3,0.1,0.5,0.1
				c0.2,0,0.4,0,0.6-0.1s0.3-0.2,0.4-0.4v-2.4c-0.2-0.4-0.5-0.6-0.9-0.6c-0.2,0-0.3,0-0.5,0.1s-0.2,0.2-0.3,0.4s-0.1,0.3-0.2,0.5
				s-0.1,0.4-0.1,0.7V15.1z"/>
                <path
                    class="st5"
                    d="M216.8,14.9c0-0.5,0.1-0.9,0.2-1.3s0.3-0.7,0.5-1s0.5-0.5,0.8-0.7s0.7-0.2,1.1-0.2c0.3,0,0.6,0.1,0.8,0.2
				s0.4,0.3,0.6,0.5V9.2h2v9h-1.8l-0.1-0.7c-0.2,0.2-0.4,0.4-0.7,0.6s-0.5,0.2-0.9,0.2c-0.4,0-0.8-0.1-1.1-0.2s-0.6-0.4-0.8-0.7
				s-0.4-0.6-0.5-1c-0.1-0.4-0.2-0.8-0.2-1.3V14.9z M218.8,15.1c0,0.2,0,0.5,0,0.7s0.1,0.4,0.2,0.5s0.2,0.3,0.3,0.4s0.3,0.1,0.5,0.1
				c0.2,0,0.4,0,0.6-0.1s0.3-0.2,0.4-0.4v-2.4c-0.2-0.4-0.5-0.6-0.9-0.6c-0.2,0-0.3,0-0.5,0.1s-0.2,0.2-0.3,0.4s-0.1,0.3-0.2,0.5
				s-0.1,0.4-0.1,0.7V15.1z"/>
            </g>
            <g class="st4">
                <path
                    class="st5"
                    d="M650.9,15.3v2.9h-2.1V9.7h3.4c0.5,0,1,0.1,1.4,0.2s0.8,0.3,1,0.6s0.5,0.6,0.7,0.9s0.2,0.7,0.2,1.2
				c0,0.4-0.1,0.8-0.2,1.1s-0.4,0.6-0.7,0.9s-0.6,0.4-1,0.6s-0.9,0.2-1.4,0.2H650.9z M650.9,13.7h1.3c0.2,0,0.4,0,0.6-0.1
				s0.3-0.1,0.4-0.2s0.2-0.2,0.2-0.4s0.1-0.3,0.1-0.5c0-0.2,0-0.3-0.1-0.5s-0.1-0.3-0.2-0.4s-0.2-0.2-0.4-0.3s-0.3-0.1-0.6-0.1h-1.3
				V13.7z"/>
                <path class="st5" d="M660.4,13.7c0,0-0.1,0-0.1,0s-0.1,0-0.2,0s-0.1,0-0.2,0s-0.1,0-0.2,0c-0.3,0-0.6,0-0.8,0.1s-0.3,0.2-0.4,0.4
				v4h-2v-6.3h1.9l0.1,0.8c0.2-0.3,0.4-0.5,0.6-0.7s0.5-0.2,0.8-0.2c0.1,0,0.2,0,0.3,0s0.2,0,0.3,0.1L660.4,13.7z"/>
                <path
                    class="st5"
                    d="M660.7,15c0-0.5,0.1-0.9,0.2-1.3s0.3-0.7,0.6-1s0.6-0.5,1-0.7s0.8-0.2,1.3-0.2c0.5,0,0.9,0.1,1.3,0.2
				s0.7,0.4,1,0.7s0.5,0.6,0.6,1s0.2,0.8,0.2,1.3v0.1c0,0.5-0.1,0.9-0.2,1.3s-0.3,0.7-0.6,1s-0.6,0.5-1,0.7s-0.8,0.2-1.3,0.2
				s-0.9-0.1-1.3-0.2s-0.7-0.4-1-0.7s-0.5-0.6-0.6-1s-0.2-0.8-0.2-1.3V15z M662.6,15.1c0,0.2,0,0.5,0,0.7s0.1,0.4,0.2,0.5
				s0.2,0.3,0.3,0.4s0.3,0.1,0.5,0.1c0.2,0,0.4,0,0.5-0.1s0.2-0.2,0.3-0.4s0.1-0.3,0.2-0.5s0.1-0.4,0.1-0.7V15c0-0.2,0-0.4,0-0.7
				s-0.1-0.4-0.2-0.5s-0.2-0.3-0.3-0.4s-0.3-0.1-0.5-0.1c-0.2,0-0.4,0-0.5,0.1s-0.2,0.2-0.3,0.4s-0.1,0.3-0.2,0.5s-0.1,0.4-0.1,0.7
				V15.1z"/>
                <path
                    class="st5"
                    d="M668.1,18.2v-5h-0.9v-1.4h0.9v-0.2c0-0.4,0.1-0.8,0.2-1.1s0.3-0.6,0.6-0.8s0.6-0.4,0.9-0.5s0.8-0.2,1.3-0.2
				c0.4,0,0.7,0,1,0.1s0.7,0.1,1,0.2l-0.3,1.6c-0.1,0-0.2-0.1-0.4-0.1s-0.2-0.1-0.4-0.1s-0.3,0-0.4-0.1s-0.3,0-0.5,0
				c-0.4,0-0.6,0.1-0.8,0.3s-0.3,0.4-0.3,0.7v0.2h1.2v1.4h-1.2v5H668.1z M674.1,18.2h-2v-6.3h2V18.2z"/>
                <path class="st5" d="M677.4,18.2h-2v-9h2V18.2z"/>
                <path
                    class="st5"
                    d="M681.6,18.3c-0.5,0-1-0.1-1.4-0.2s-0.7-0.4-1-0.7s-0.5-0.6-0.6-1s-0.2-0.8-0.2-1.2V15c0-0.5,0.1-0.9,0.2-1.3
				s0.3-0.7,0.6-1s0.6-0.5,1-0.7s0.8-0.3,1.3-0.3c0.4,0,0.9,0.1,1.2,0.2s0.7,0.4,0.9,0.6s0.4,0.6,0.6,1s0.2,0.8,0.2,1.3v0.8h-3.9
				c0.1,0.4,0.2,0.6,0.5,0.8s0.5,0.3,0.9,0.3c0.3,0,0.5-0.1,0.8-0.2s0.5-0.3,0.7-0.5l0.9,1.1c-0.1,0.1-0.2,0.3-0.4,0.4
				s-0.3,0.3-0.6,0.4s-0.4,0.2-0.7,0.3S682,18.3,681.6,18.3z M681.4,13.3c-0.2,0-0.3,0-0.4,0.1s-0.2,0.1-0.3,0.2s-0.1,0.2-0.2,0.4
				s-0.1,0.3-0.1,0.5h2v-0.2c0-0.3-0.1-0.6-0.2-0.7S681.7,13.3,681.4,13.3z"/>
            </g>
            <g>
                <path id="Oval-28_1_" class="st6" d="M186.5,22.2c4.7,0,8.5-3.8,8.5-8.5s-3.8-8.5-8.5-8.5
				S178,9,178,13.7S181.8,22.2,186.5,22.2z"/>
                <path id="Page-1_1_" class="st5" d="M185.9,9v4.1h-4.1v1.2h4.1v4.1h1.2v-4.1h4.1v-1.2h-4.1V9H185.9z"/>
            </g>
            <g>
                <path id="Oval-28-Copy_1_" class="st6" d="M112,22.2c4.7,0,8.5-3.8,8.5-8.5s-3.8-8.5-8.5-8.5
				s-8.5,3.8-8.5,8.5S107.3,22.2,112,22.2z"/>
                <defs>
                    <filter id="Adobe_OpacityMaskFilter" filterUnits="userSpaceOnUse" x="107.4" y="9" width="9.2" height="9.2">
                        <feColorMatrix type="matrix" values="1 0 0 0 0  0 1 0 0 0  0 0 1 0 0  0 0 0 1 0"/>
                    </filter>
                </defs>
                <mask maskUnits="userSpaceOnUse" x="107.4" y="9" width="9.2" height="9.2" id="mask-2_2_">
                    <g class="st7">
                        <path id="path-1_2_" class="st5" d="M107.4,9h9.2v9.2h-9.2V9z"/>
                    </g>
                </mask>
                <path
                    id="Fill-1_3_"
                    class="st8"
                    d="M110.8,14.8c-1.3,0-2.4-1.1-2.4-2.4c0-1.3,1.1-2.4,2.4-2.4
				s2.4,1.1,2.4,2.4C113.2,13.8,112.1,14.8,110.8,14.8L110.8,14.8z M114,14.8h-0.4l-0.2-0.2c0.5-0.6,0.8-1.4,0.8-2.2
				c0-1.9-1.5-3.4-3.4-3.4c-1.9,0-3.4,1.5-3.4,3.4s1.5,3.4,3.4,3.4c0.8,0,1.6-0.3,2.2-0.8l0.2,0.2v0.4l2.6,2.6l0.8-0.8L114,14.8z"/>
            </g>
            <g>
                <path id="Oval-28-Copy-2_1_" class="st9" d="M700.4,22.2c4.7,0,8.5-3.8,8.5-8.5s-3.8-8.5-8.5-8.5
				s-8.5,3.8-8.5,8.5S695.7,22.2,700.4,22.2z"/>
                <defs>
                    <filter id="Adobe_OpacityMaskFilter_1_" filterUnits="userSpaceOnUse" x="696.6" y="9.6" width="7.7" height="7.7">
                        <feColorMatrix type="matrix" values="1 0 0 0 0  0 1 0 0 0  0 0 1 0 0  0 0 0 1 0"/>
                    </filter>
                </defs>
                <mask maskUnits="userSpaceOnUse" x="696.6" y="9.6" width="7.7" height="7.7" id="mask-4_2_">
                    <g class="st10">
                        <path id="path-3_2_" class="st5" d="M696.6,9.6h7.7v7.7h-7.7"/>
                    </g>
                </mask>
                <path id="Fill-1_2_" class="st11" d="M700.4,14.4c-1.3,0-3.8,0.6-3.8,1.9v1h7.7v-1
				C704.2,15,701.7,14.4,700.4,14.4 M700.4,13.4c1.1,0,1.9-0.9,1.9-1.9s-0.9-1.9-1.9-1.9s-1.9,0.9-1.9,1.9
				C698.5,12.5,699.3,13.4,700.4,13.4"/>
            </g>
            <g>
                <path
                    class="st5"
                    d="M6.9,8.6c0-0.1,0.1-0.3,0.3-0.3h4.5c1.2,0,2.2,0.3,2.8,0.9c0.5,0.5,0.7,1.1,0.7,1.8v0c0,0.3,0,0.6-0.1,0.9
				c-0.1,0.3-0.2,0.5-0.3,0.7c-0.1,0.2-0.3,0.4-0.5,0.5c0,0-0.1,0.1-0.1,0.1c-0.2,0.1-0.1,0.4,0,0.4c0.4,0.2,0.8,0.4,1.1,0.7
				c0.4,0.4,0.6,1,0.6,1.7v0c0,0.5-0.1,0.9-0.3,1.3c-0.2,0.4-0.5,0.7-0.8,0.9c-0.3,0.2-0.8,0.4-1.2,0.6c-0.5,0.1-1,0.2-1.6,0.2H7.2
				c-0.1,0-0.3-0.1-0.3-0.3V8.6z M11.3,12.8c0.6,0,1.1-0.1,1.5-0.4c0.4-0.2,0.5-0.6,0.5-1.1v0c0-0.4-0.2-0.8-0.5-1
				C12.5,10.1,12,10,11.4,10H9c-0.1,0-0.3,0.1-0.3,0.3v2.3c0,0.1,0.1,0.3,0.3,0.3H11.3z M11.8,17.3c0.6,0,1.1-0.1,1.5-0.4
				c0.4-0.2,0.5-0.6,0.5-1.1v0c0-0.5-0.2-0.8-0.5-1.1c-0.4-0.2-0.9-0.4-1.6-0.4H9c-0.1,0-0.3,0.1-0.3,0.3V17c0,0.1,0.1,0.3,0.3,0.3
				H11.8z"/>
                <path class="st5" d="M25.3,8.2h1.3c0.2,0,0.3,0.1,0.3,0.3v10.2c0,0.2-0.1,0.3-0.3,0.3h-1.3c-0.2,0-0.3-0.1-0.3-0.3V8.5
				C25,8.3,25.1,8.2,25.3,8.2"/>
                <path class="st5" d="M28.6,8.2H30c0.2,0,0.3,0.1,0.3,0.3v10.2c0,0.2-0.1,0.3-0.3,0.3h-1.3c-0.2,0-0.3-0.1-0.3-0.3V8.5
				C28.3,8.3,28.5,8.2,28.6,8.2"/>
                <path
                    class="st5"
                    d="M31.7,8.2h0.9c0.5,0,1,0.4,1,1v3c0.2-0.2,0.5-0.4,0.8-0.6c0.4-0.2,0.8-0.3,1.4-0.3c0.5,0,0.9,0.1,1.2,0.2
				c0.4,0.2,0.7,0.4,0.9,0.6c0.2,0.3,0.4,0.6,0.6,1c0.1,0.4,0.2,0.8,0.2,1.3v4.3c0,0.1-0.1,0.3-0.3,0.3h-1.4c-0.1,0-0.3-0.1-0.3-0.3
				v-4.3c0-0.5-0.1-0.9-0.4-1.1c-0.3-0.3-0.6-0.4-1-0.4c-0.3,0-0.5,0.1-0.7,0.2c-0.2,0.1-0.4,0.2-0.6,0.4c-0.2,0.2-0.3,0.4-0.4,0.6
				c-0.1,0.2-0.1,0.5-0.1,0.8v3.8c0,0.1-0.1,0.3-0.3,0.3h-1.4c-0.1,0-0.3-0.1-0.3-0.3V9.5V8.2z"/>
                <path
                    class="st5"
                    d="M54.5,11.4h1.2c0.2,0,0.3,0.1,0.3,0.3l0,0.6c0.1-0.1,0.2-0.2,0.3-0.3c0.1-0.1,0.3-0.2,0.5-0.3
				c0.2-0.1,0.4-0.2,0.6-0.2c0.2-0.1,0.5-0.1,0.8-0.1c0.9,0,1.7,0.3,2.2,0.8c0.5,0.6,0.7,1.3,0.7,2.3v4.3c0,0.2-0.2,0.3-0.3,0.3
				h-1.2c-0.2,0-0.3-0.2-0.3-0.3v-4.2c0-0.5-0.1-0.9-0.4-1.1c-0.3-0.3-0.6-0.4-1-0.4c-0.3,0-0.5,0.1-0.7,0.2
				c-0.2,0.1-0.4,0.2-0.6,0.4c-0.2,0.2-0.3,0.4-0.4,0.6c-0.1,0.2-0.1,0.5-0.1,0.8v3.8c0,0.2-0.2,0.3-0.3,0.3h-1.2
				c-0.2,0-0.3-0.2-0.3-0.3v-6.9C54.2,11.5,54.3,11.4,54.5,11.4"/>
                <path
                    class="st5"
                    d="M48.6,11.4h1.2c0.2,0,0.3,0.1,0.3,0.3l0,0.6c0.1-0.1,0.2-0.2,0.3-0.4c0.1-0.1,0.3-0.2,0.5-0.4
				c0.2-0.1,0.4-0.2,0.6-0.3c0.2-0.1,0.5-0.1,0.8-0.1c0.2,0,0.3,0,0.5,0c0.1,0,0.1,0,0.2,0c0.1,0,0.2,0.2,0.2,0.3l-0.3,1.3
				c0,0.1-0.2,0.2-0.3,0.2c0,0-0.1,0-0.1,0c-0.1,0-0.3,0-0.5,0c-0.3,0-0.5,0-0.7,0.1c-0.2,0.1-0.4,0.2-0.6,0.4
				c-0.2,0.2-0.3,0.4-0.4,0.6c-0.1,0.2-0.2,0.5-0.2,0.8v3.8c0,0.2-0.1,0.3-0.3,0.3h-1.3c-0.2,0-0.3-0.1-0.3-0.3v-6.9
				C48.3,11.5,48.5,11.4,48.6,11.4"/>
                <path
                    class="st5"
                    d="M22.1,11.5c-0.2,0-0.3,0.1-0.3,0.3v3.7c0,1-0.7,1.7-1.6,1.7c-0.2,0-0.3,0-0.3,0c-0.9,0-1.6-0.7-1.6-1.7v-3.7
				c0-0.2-0.1-0.3-0.3-0.3h-1.2c-0.2,0-0.3,0.1-0.3,0.3v4.1c0,1.8,1.6,3,3.3,3v0h0c0,0,0,0,0,0v0h0.3v0c0,0,0,0,0,0h0v0
				c1.7,0,3.3-1.3,3.3-3v-4.1c0-0.2-0.1-0.3-0.3-0.3H22.1z"/>
                <path
                    class="st5"
                    d="M39.5,15.2c0-0.5,0.1-1.1,0.3-1.6c0.2-0.5,0.5-0.9,0.8-1.3c0.4-0.4,0.8-0.7,1.3-0.9c0.5-0.2,1-0.3,1.7-0.3
				c0.6,0,1.2,0.1,1.7,0.3c0.5,0.2,0.9,0.5,1.3,0.9c0.4,0.4,0.6,0.8,0.8,1.3c0.2,0.5,0.3,1,0.3,1.6c0,0.5-0.1,1.1-0.3,1.6
				c-0.2,0.5-0.5,0.9-0.8,1.3c-0.4,0.4-0.8,0.7-1.3,0.9c-0.5,0.2-1,0.3-1.7,0.3c-0.6,0-1.2-0.1-1.7-0.3c-0.5-0.2-0.9-0.5-1.3-0.9
				c-0.4-0.4-0.6-0.8-0.8-1.3C39.6,16.3,39.5,15.7,39.5,15.2 M43.5,17.6c0.4,0,0.7-0.1,1-0.2c0.3-0.1,0.5-0.3,0.7-0.6
				c0.2-0.2,0.3-0.5,0.4-0.8c0.1-0.3,0.1-0.6,0.1-0.8c0-0.3,0-0.5-0.1-0.8c-0.1-0.3-0.2-0.5-0.4-0.8c-0.2-0.2-0.4-0.4-0.7-0.6
				c-0.3-0.1-0.6-0.2-1-0.2c-0.4,0-0.7,0.1-1,0.2c-0.3,0.1-0.5,0.3-0.7,0.6c-0.2,0.2-0.3,0.5-0.4,0.8c-0.1,0.3-0.1,0.6-0.1,0.8
				c0,0.3,0,0.6,0.1,0.8c0.1,0.3,0.2,0.5,0.4,0.8c0.2,0.2,0.4,0.4,0.7,0.6C42.9,17.5,43.2,17.6,43.5,17.6"/>
            </g>
        </g>
    </g>
</svg>
