<?xml version="1.0" encoding="UTF-8" standalone="no"?>
<svg width="292px" height="192px" viewBox="0 0 292 192" version="1.1" xmlns="http://www.w3.org/2000/svg"
     xmlns:xlink="http://www.w3.org/1999/xlink" xmlns:sketch="http://www.bohemiancoding.com/sketch/ns">
    <!-- Generator: Sketch 3.4.4 (17249) - http://www.bohemiancoding.com/sketch -->
    <title>Tooltips - Page Icon</title>
    <desc>Created with Sketch.</desc>
    <defs>
        <path id="path-1"
              d="M0.630957486,3.0016067 C0.630957486,1.34563544 1.96743438,0.00320549348 3.63767217,0.00320549348 L166.718579,0.00320549348 C168.379142,0.00320549348 169.725294,1.33977188 169.725294,3.0016067 L169.725294,35.8333487 C169.725294,37.48932 168.380198,38.8317499 166.72882,38.8317499 L106.720331,38.8317499 L85.1781258,61.0721468 L63.3204421,38.8317499 L3.63348177,38.8317499 C1.9752334,38.8317499 0.630957486,37.4951835 0.630957486,35.8333487 L0.630957486,3.0016067 Z"></path>
    </defs>
    <g id="--Images" stroke="none" stroke-width="1" fill="none" fill-rule="evenodd" sketch:type="MSPage">
        <g id="Tooltips---Page-Icon-" sketch:type="MSArtboardGroup">
            <g id="Group" sketch:type="MSLayerGroup" transform="translate(10.539062, 30.746094)">
                <g transform="translate(0.601452, 3.896049)">
                    <mask id="mask-2" sketch:name="Mask" fill="white">
                        <use xlink:href="#path-1"></use>
                    </mask>
                    <use id="Mask" stroke="#EB6845" sketch:type="MSShapeGroup" xlink:href="#path-1"></use>
                    <g mask="url(#mask-2)" stroke-linecap="square" stroke="#EB6845" sketch:type="MSShapeGroup">
                        <g transform="translate(-235.052090, -49.179415)">
                            <path d="M0.611573524,1.00320549 L241.737888,257.361251" id="Line"></path>
                            <path d="M15.737623,1.00320549 L256.863938,257.361251" id="Line-Copy-8"></path>
                            <path d="M30.8442886,1.00320549 L271.970603,257.361251" id="Line-Copy-9"></path>
                            <path d="M45.9509542,1.00320549 L287.077269,257.361251" id="Line-Copy-10"></path>
                            <path d="M61.0576197,1.00320549 L302.183935,257.361251" id="Line-Copy-11"></path>
                            <path d="M76.1642853,1.00320549 L317.2906,257.361251" id="Line-Copy-12"></path>
                            <path d="M91.2709508,1.00320549 L332.397266,257.361251" id="Line-Copy-13"></path>
                            <path d="M106.377616,1.00320549 L347.503931,257.361251" id="Line-Copy-14"></path>
                            <path d="M121.484282,1.00320549 L362.610597,257.361251" id="Line-Copy-15"></path>
                            <path d="M136.590948,1.00320549 L377.717262,257.361251" id="Line-Copy-16"></path>
                            <path d="M151.697613,1.00320549 L392.823928,257.361251" id="Line-Copy-18"></path>
                            <path d="M166.804279,1.00320549 L407.930593,257.361251" id="Line-Copy-19"></path>
                            <path d="M181.910944,1.00320549 L423.037259,257.361251" id="Line-Copy-20"></path>
                            <path d="M197.01761,1.00320549 L438.143925,257.361251" id="Line-Copy-21"></path>
                            <path d="M212.124275,1.00320549 L453.25059,257.361251" id="Line-Copy-22"></path>
                            <path d="M227.230941,1.00320549 L468.357256,257.361251" id="Line-Copy-23"></path>
                            <path d="M242.337606,1.00320549 L483.463921,257.361251" id="Line-Copy-24"></path>
                            <path d="M257.444272,1.00320549 L498.570587,257.361251" id="Line-Copy-25"></path>
                            <path d="M272.550938,1.00320549 L513.677252,257.361251" id="Line-Copy-26"></path>
                            <path d="M287.657603,1.00320549 L528.783918,257.361251" id="Line-Copy-27"></path>
                            <path d="M302.764269,1.00320549 L543.890584,257.361251" id="Line-Copy-28"></path>
                            <path d="M317.870934,1.00320549 L558.997249,257.361251" id="Line-Copy-29"></path>
                            <path d="M332.9776,1.00320549 L574.103915,257.361251" id="Line-Copy-30"></path>
                            <path d="M348.084265,1.00320549 L589.21058,257.361251" id="Line-Copy-31"></path>
                            <path d="M363.190931,1.00320549 L604.317246,257.361251" id="Line-Copy-32"></path>
                            <path d="M378.297596,1.00320549 L619.423911,257.361251" id="Line-Copy-33"></path>
                            <path d="M393.404262,1.00320549 L634.530577,257.361251" id="Line-Copy-34"></path>
                            <path d="M408.510928,1.00320549 L649.637242,257.361251" id="Line-Copy-35"></path>
                            <path d="M423.617593,1.00320549 L664.743908,257.361251" id="Line-Copy-36"></path>
                        </g>
                    </g>
                </g>
                <path
                    d="M7.57375946,87.7042253 L0.60145228,82.7496203 L7.57375946,78.541724 L7.57375946,68.6375769 C7.57375946,66.9858242 8.92303301,65.6468141 10.5814386,65.6468141 L69.1665944,65.6468141 C70.8276897,65.6468141 72.1742736,66.9886697 72.1742736,68.6374186 L72.1742736,96.3556943 C72.1742736,98.0073596 70.825,99.3462988 69.1665944,99.3462988 L10.5814386,99.3462988 C8.92034327,99.3462988 7.57375946,98.0108049 7.57375946,96.3481756 L7.57375946,87.7042253 Z"
                    id="Rectangle-212" stroke="#3399DD" sketch:type="MSShapeGroup"></path>
                <path
                    d="M216.95632,7.25033701 L227.158313,0.278029827 L234.763847,7.25033701 L269.243432,7.25033701 C271.169142,7.25033701 272.730238,8.81114585 272.730238,10.7403616 L272.730238,28.1191297 C272.730238,30.0466171 271.158154,31.6091543 269.235122,31.6091543 L185.651181,31.6091543 C183.720881,31.6091543 182.156064,30.0483455 182.156064,28.1191297 L182.156064,10.7403616 C182.156064,8.81287425 183.718965,7.25033701 185.652181,7.25033701 L216.95632,7.25033701 L216.95632,7.25033701 Z"
                    id="Rectangle-212-Copy" stroke="#3399DD" sketch:type="MSShapeGroup"></path>
                <path
                    d="M237.929983,65.074867 L227.72799,72.0471742 L220.122456,65.074867 L185.642871,65.074867 C183.717161,65.074867 182.156064,63.5140582 182.156064,61.5848424 L182.156064,44.2060743 C182.156064,42.2785869 183.728149,40.7160497 185.651181,40.7160497 L269.235122,40.7160497 C271.165421,40.7160497 272.730238,42.2768585 272.730238,44.2060743 L272.730238,61.5848424 C272.730238,63.5123298 271.167337,65.074867 269.234122,65.074867 L237.929983,65.074867 L237.929983,65.074867 Z"
                    id="Rectangle-212-Copy-3" stroke="#3399DD" sketch:type="MSShapeGroup"></path>
                <path
                    d="M184.047235,92.9482083 L178.236979,88.5564719 L184.047235,83.27504 L184.047235,78.5264759 C184.047235,76.8734058 185.388004,75.5333278 187.050575,75.5333278 L269.782504,75.5333278 C271.441203,75.5333278 272.785844,76.8698321 272.785844,78.5270919 L272.785844,96.7565291 C272.785844,98.4099393 271.445075,99.7502932 269.782504,99.7502932 L187.050575,99.7502932 C185.391876,99.7502932 184.047235,98.4064201 184.047235,96.7469995 L184.047235,92.9482083 Z"
                    id="Rectangle-212-Copy-5" stroke="#3399DD" sketch:type="MSShapeGroup"></path>
                <path
                    d="M163.28862,67.1765456 L170.260927,77.378538 L163.28862,84.9840723 L163.28862,98.1927111 C163.28862,100.113386 161.73236,101.670401 159.798581,101.670401 L115.710254,101.670401 C113.782758,101.670401 112.220215,100.118997 112.220215,98.1767107 L112.220215,56.037356 C112.220215,54.107844 113.776475,52.5436655 115.710254,52.5436655 L159.798581,52.5436655 C161.726076,52.5436655 163.28862,54.10964 163.28862,56.0300141 L163.28862,67.1765456 L163.28862,67.1765456 Z"
                    id="Rectangle-212-Copy-2" stroke="#3399DD" sketch:type="MSShapeGroup"></path>
                <path
                    d="M99.2804795,97.575419 L91.3152086,104.547726 L83.7096743,97.575419 L81.1088219,97.575419 C79.1811988,97.575419 77.6185515,96.0169414 77.6185515,94.0793525 L77.6185515,75.5432407 C77.6185515,73.6124165 79.1720794,72.0471742 81.1097417,72.0471742 L101.915024,72.0471742 C103.843155,72.0471742 105.406214,73.6056518 105.406214,75.5432407 L105.406214,94.0793525 C105.406214,96.0101767 103.844583,97.575419 101.913893,97.575419 L99.2804795,97.575419 L99.2804795,97.575419 Z"
                    id="Rectangle-212-Copy-4" stroke="#3399DD" sketch:type="MSShapeGroup"></path>
            </g>
        </g>
    </g>
</svg>
