<svg id="Layer_1" data-name="Layer 1" xmlns="http://www.w3.org/2000/svg" viewBox="0 0 512 512"><defs><style>.cls-1{fill:#010101;}</style></defs><g id="check"><polygon class="cls-1" points="390.592 134.106 197.686 327.012 121.252 250.578 95.765 276.064 197.686 377.972 416.078 159.58 390.592 134.106 390.592 134.106"/></g><path class="cls-1" d="M448,31.99979a32.03619,32.03619,0,0,1,32,32v384a32.03619,32.03619,0,0,1-32,32H64a32.03619,32.03619,0,0,1-32-32v-384a32.03619,32.03619,0,0,1,32-32H448m0-32H64a64,64,0,0,0-64,64v384a64,64,0,0,0,64,64H448a64,64,0,0,0,64-64v-384a64,64,0,0,0-64-64Z"/></svg>