 <svg version="1.1" xmlns="http://www.w3.org/2000/svg" xmlns:xlink="http://www.w3.org/1999/xlink" xmlns:a="http://ns.adobe.com/AdobeSVGViewerExtensions/3.0/" x="0px" y="0px" width="988px" height="267.7px" viewBox="0 0 988 267.7" style="enable-background:new 0 0 988 267.7;" xml:space="preserve">
    <style type="text/css">
        .st0 {
            fill: #FFFFFF;
        }

        .st1 {
            fill: #F16A22;
        }

    </style>
    <defs></defs>
    <g>
        <g>
            <path class="st0" d="M0,93.2c0-1.7,1.4-3.1,3.1-3.1H58c14.9,0,26.2,3.8,33.8,11.5c5.8,5.8,8.7,12.9,8.7,21.4v0.4
          c0,3.8-0.5,7.3-1.6,10.3c-1,3.1-2.4,5.8-4.1,8c-1.7,2.3-3.6,4.3-5.8,6c-0.6,0.5-1.2,0.9-1.8,1.3c-2,1.4-1.8,4.3,0.4,5.3
          c5.1,2.3,9.4,5.3,12.9,8.9c4.7,4.8,7.1,11.6,7.1,20.3v0.4c0,5.8-1.1,10.9-3.4,15.3c-2.3,4.4-5.5,8.1-9.7,11.1
          c-4.2,3-9.2,5.2-15.1,6.7c-5.8,1.5-12.4,2.3-19.7,2.3H3.1c-1.7,0-3.1-1.4-3.1-3.1V93.2z M53.4,144.6c7.4,0,13.3-1.4,17.7-4.3
          c4.4-2.9,6.6-7.3,6.6-13.1v-0.4c0-5.1-1.9-9.2-5.8-12c-3.9-2.9-9.5-4.3-16.9-4.3H25.4c-1.7,0-3.1,1.4-3.1,3.1v28
          c0,1.7,1.4,3.1,3.1,3.1H53.4z M60,199.1c7.8,0,13.9-1.5,18.3-4.4c4.4-2.9,6.6-7.3,6.6-13.2v-0.4c0-5.5-2.2-9.8-6.6-12.8
          c-4.4-3-11.1-4.5-20-4.5H25.4c-1.7,0-3.1,1.4-3.1,3.1v29.1c0,1.7,1.4,3.1,3.1,3.1H60z" />
            <path class="st0" d="M223.5,89h16.2c1.9,0,3.4,1.5,3.4,3.4V216c0,1.9-1.5,3.4-3.4,3.4h-16.2c-1.9,0-3.4-1.5-3.4-3.4V92.5
          C220,90.6,221.6,89,223.5,89z" />
            <path class="st0" d="M263.8,89H280c1.9,0,3.4,1.5,3.4,3.4V216c0,1.9-1.5,3.4-3.4,3.4h-16.2c-1.9,0-3.4-1.5-3.4-3.4V92.5
          C260.4,90.6,261.9,89,263.8,89z" />
            <path class="st0" d="M300.8,89h11.1c6.4,0,11.6,5.2,11.6,11.6v36.5c2.3-2.6,5.8-5.1,10.3-7.6c4.5-2.5,10.3-3.7,17.3-3.7
          c5.6,0,10.6,0.9,15.1,2.7c4.4,1.8,8.1,4.4,11,7.7s5.2,7.3,6.7,12c1.6,4.7,2.3,9.8,2.3,15.4v52.6c0,1.7-1.4,3.2-3.2,3.2h-16.7
          c-1.7,0-3.2-1.4-3.2-3.2v-52.4c0-5.9-1.6-10.4-4.8-13.6c-3.2-3.2-7.3-4.8-12.4-4.8c-3.1,0-6.1,0.6-8.8,1.9c-2.7,1.2-5.1,3-7,5.2
          c-2,2.2-3.5,4.8-4.6,7.7c-1.1,2.9-1.7,6.1-1.7,9.5v46.5c0,1.7-1.4,3.2-3.2,3.2h-16.7c-1.7,0-3.2-1.4-3.2-3.2V104.9V89z" />
            <path class="st0" d="M578.2,127.7h14.5c2.1,0,3.8,1.6,3.9,3.7l0.4,6.7c1.2-1.3,2.6-2.7,4.2-4.1c1.6-1.4,3.6-2.8,5.9-4
          c2.3-1.2,4.9-2.2,7.7-3c2.9-0.8,6.1-1.2,9.8-1.2c11.5,0,20.2,3.4,26.2,10.3c6,6.8,9,16.1,9,27.7v51.6c0,2.3-1.8,4.1-4.1,4.1h-14.9
          c-2.3,0-4.1-1.8-4.1-4.1v-51.4c0-5.9-1.6-10.4-4.8-13.6c-3.2-3.2-7.3-4.8-12.4-4.8c-3.1,0-6.1,0.6-8.8,1.9c-2.7,1.2-5.1,3-7,5.2
          c-2,2.2-3.5,4.8-4.6,7.7c-1.1,2.9-1.7,6.1-1.7,9.5v45.6c0,2.3-1.8,4.1-4.1,4.1h-14.9c-2.3,0-4.1-1.8-4.1-4.1v-83.7
          C574.3,129.5,576.1,127.7,578.2,127.7z" />
            <g>
                <path class="st0" d="M675.6,133.8c0,1-0.3,2-0.8,2.9c-0.5,0.9-1.2,1.6-2.1,2.1c-0.9,0.5-1.8,0.8-2.8,0.8c-1,0-2-0.3-2.8-0.8
            c-0.9-0.5-1.6-1.2-2.1-2.1c-0.5-0.9-0.8-1.8-0.8-2.8c0-1,0.3-2,0.8-2.9c0.5-0.9,1.2-1.6,2.1-2.1c0.9-0.5,1.8-0.8,2.8-0.8
            c1,0,2,0.3,2.8,0.8c0.9,0.5,1.6,1.2,2.1,2.1C675.4,131.9,675.6,132.8,675.6,133.8z M674.9,133.8c0-0.9-0.2-1.7-0.7-2.4
            c-0.4-0.8-1-1.4-1.8-1.8c-0.8-0.4-1.6-0.7-2.4-0.7c-0.9,0-1.7,0.2-2.5,0.7c-0.8,0.4-1.4,1-1.8,1.8c-0.4,0.8-0.7,1.6-0.7,2.5
            c0,0.9,0.2,1.7,0.7,2.4c0.4,0.8,1,1.4,1.8,1.8c0.8,0.4,1.6,0.7,2.5,0.7c0.9,0,1.7-0.2,2.4-0.7c0.8-0.4,1.4-1,1.8-1.8
            C674.6,135.5,674.9,134.7,674.9,133.8z M667.6,130.5h2.7c0.6,0,1.1,0.1,1.4,0.2c0.3,0.1,0.5,0.3,0.7,0.6c0.2,0.3,0.3,0.6,0.3,1
            c0,0.3-0.1,0.6-0.2,0.9c-0.1,0.2-0.3,0.4-0.6,0.6c0.3,0.1,0.5,0.3,0.6,0.5c0.1,0.2,0.2,0.5,0.2,1v0.7c0,0.3,0.1,0.6,0.2,0.9
            l0.1,0.2h-1.2c-0.1-0.3-0.1-0.6-0.2-1l-0.1-0.8c0-0.3-0.1-0.5-0.1-0.6c-0.1-0.1-0.2-0.2-0.3-0.3c-0.1-0.1-0.4-0.1-0.8-0.1h-1.7
            v2.7h-1V130.5z M668.6,131.5v1.9h1.6c0.5,0,0.8-0.1,1-0.2c0.3-0.2,0.4-0.4,0.4-0.8c0-0.3-0.1-0.6-0.3-0.7c-0.2-0.2-0.5-0.2-1-0.2
            H668.6z" />
            </g>
            <g>
                <path class="st0" d="M506.9,127.5h14.4c2.1,0,3.8,1.6,3.9,3.7l0.4,7.8c1-1.3,2.4-2.7,4-4.3c1.6-1.6,3.6-3,5.8-4.3
            c2.2-1.3,4.8-2.4,7.7-3.3c2.9-0.9,6.3-1.4,10.1-1.4c2.2,0,4.2,0.1,6,0.4c0.8,0.1,1.5,0.3,2.3,0.4c1.7,0.4,2.8,2.1,2.5,3.9
            l-3.3,15.2c-0.4,1.8-2.2,2.9-4,2.5c-0.5-0.1-1-0.2-1.6-0.3c-1.6-0.3-3.6-0.4-5.8-0.4c-3.1,0-6.1,0.5-9,1.6
            c-2.9,1-5.3,2.5-7.4,4.5c-2.1,2-3.7,4.3-5,7c-1.2,2.7-1.9,5.8-1.9,9.2v45.6c0,2.1-1.7,3.9-3.9,3.9h-15.3c-2.1,0-3.9-1.7-3.9-3.9
            v-83.9C502.9,129.2,504.7,127.5,506.9,127.5z" />
            </g>
            <path id="u_1_" class="st0" d="M185,129.2c-2,0-3.6,1.6-3.6,3.6v44.6c0,12.2-8.7,20.4-19.4,20.4c-2,0-3.4,0-4.2,0
          c-10.6,0-19.4-8.2-19.4-20.4v-44.6c0-2-1.6-3.6-3.6-3.6h-14.2c-2,0-3.6,1.6-3.6,3.6v49.5c0,21.5,19.7,36.4,40.5,36.6v0h0.1
          c0.1,0,0.2,0,0.2,0l0,0h3.8l0,0c0.1,0,0.2,0,0.3,0h0.5v0c20.7-0.4,40.1-15.2,40.1-36.6v-49.5c0-2-1.6-3.6-3.6-3.6H185z" />
            <g>
                <g>
                    <g>
                        <path class="st0" d="M395.6,173.9c0-6.6,1.2-12.9,3.6-18.9c2.4-5.9,5.8-11.1,10.1-15.5c4.3-4.4,9.5-8,15.5-10.6
                c6.1-2.6,12.7-3.9,20-3.9c7.3,0,14,1.3,20,3.9c6.1,2.6,11.2,6.1,15.5,10.6c4.3,4.4,7.7,9.6,10.1,15.5
                c2.4,5.9,3.6,12.2,3.6,18.9s-1.2,12.9-3.6,18.9c-2.4,5.9-5.8,11.1-10.1,15.6c-4.3,4.5-9.5,8.1-15.5,10.7
                c-6.1,2.6-12.7,3.9-20,3.9c-7.3,0-14-1.3-20-3.9c-6.1-2.6-11.2-6.2-15.5-10.7c-4.3-4.5-7.7-9.7-10.1-15.6
                C396.8,186.8,395.6,180.5,395.6,173.9z M444.9,203c4.4,0,8.3-0.9,11.5-2.6c3.3-1.8,6-4.1,8.1-6.9c2.2-2.9,3.7-6,4.8-9.4
                c1-3.4,1.6-6.8,1.6-10.2c0-3.3-0.5-6.6-1.6-10.1c-1-3.5-2.6-6.6-4.8-9.4c-2.2-2.8-4.9-5.1-8.1-6.8c-3.3-1.8-7.1-2.6-11.5-2.6
                c-4.4,0-8.3,0.9-11.5,2.6c-3.3,1.8-6,4-8.1,6.8c-2.2,2.8-3.7,5.9-4.8,9.4c-1,3.5-1.6,6.8-1.6,10.1c0,3.4,0.5,6.8,1.6,10.2
                c1,3.4,2.6,6.5,4.8,9.4c2.2,2.9,4.9,5.2,8.1,6.9C436.6,202.1,440.5,203,444.9,203z" />
                    </g>
                </g>
            </g>
        </g>
        <g>
            <path class="st1" d="M892.6,233.8c-3.4-4.2-7.4-8.1-8.3-14.6c-0.6-4.2-3.9-7.3-6.3-10.6c-1.5-2.1-1.7-3-5.5-8.8
          c-0.2-0.3-1.1-1.8-1.2-2.1c-0.7-1.7-2.3-2.8-4.1-3c-12.2-1.3-33.6-5.1-42.8-8.9c-1-0.4,3.4,4.9,3.9,5.9c0.2,0.5,0.6,0.9,0.8,1.3
          c6.1,9.2,14.4,14.6,21.4,17.5c3.1,1.3,6.3,2.4,9.4,3.6c4.7,1.9,8.4,5.1,10.5,10.3c0.9,2.3,2.6,4.2,4.6,5.4c3.3,2,5.4,5.3,6.4,9
          c0.1,0.4,0.3,0.7,0.4,1.1c11.8,20.9,5.7,16.3,8.6,24.3c0,0.1,0,0.2,0.1,0.2c0.5,2.6,1.7,2.6,3.3,3.1c2.1,0.6,4,0.5,5.9-0.1
          c0.5-0.2,0.9-0.7,0.9-1.4c-0.1-1-0.1-1.9,0.5-2.2c0.7-0.3,1.3-0.1,1.8,0.2c1,1.7,1.7,0.6,2.7,0.2c2.2-1.3,4.5-1.1,4.5-4
          c0-1.1-5.5-13.6-9-17.8C898.6,239.2,895.2,236.9,892.6,233.8z" />
            <path class="st1" d="M987.2,154.8c-0.2-0.3-0.8-0.6-0.7-1.3c0.2-2.2-1-1.5-1.8-1c-2.9,1.9-6.6,2.6-7.5,7.4c-0.2,1.1-1.2,1.4-2,1.9
          c-7.5,4.4-15.7-0.8-17.7-11.6c-1-5.6-2.4-11-4.6-16.1c-1.2-2.7-4.7-6.4-6.4-9.2c-0.3-0.5-0.4-1-0.5-1.6c-0.1-3-1.3-9.7-9.4-14.4
          c-0.1,0-0.1-0.1-0.2-0.1c-9.8-7.1-31-14.5-42.3-18c-4.3-1.2-5.5,1.6-5.6,3.4c0,0.3,0,0.7,0.1,1c0.2,0.8,0.7,2.4,0.7,2.5
          c2.7,10.3,6.1,24.5,4.2,23.9c-2.1-0.6-7.4-30.3-19.8-38.8c-0.1-0.1-0.2-0.1-0.2-0.2c-8.1-7.5-24.9-11-30.6-12.2
          c-0.7-0.2-1.4-0.6-1.9-1.2c-3.3-4.4-8.5-5.8-16.6-7.1c-3.4-0.5-6.2-1-8.7-1.3c-2-0.2-3.3-2.3-2.7-4.2l0,0c0.3-0.8,0.3-2.4-0.3-2.7
          c-0.6-0.2-2.5,0.6-4.1,0.8c-1.1,0.1-2.3-0.6-2.4-0.6c-0.4-0.2,0.6,0.6,0.1,0.2c-4.7-4.4,7-8.5,4.4-8.7c-0.9-0.1-1.8-0.1-2.6-0.1
          c-3.5-0.1-6.8,0.2-9.6,0.6c-0.7,0.1-1.2-0.6-1.1-1.2c0-0.3,0.2-0.6,0.5-0.7c15.3-8.3,21.1-17.8,21.1-17.8s4.7-7.6-6.2-12.6
          c-2.1-1-4.7-1.8-8-2.5c-9.4-2-17.8-5.1-24.3-7.9c-2.3-1-4.3-2-6.1-2.8c-0.1,0-0.5-0.2-0.9-0.4c-1-0.4-1.9-0.1-2.4,1.2
          c-0.9,2.1,2,3.2,3.5,4.3c6.4,5,13.7,8.2,20.4,12.5c4.2,2.7,4.3,3.9,0.5,6.6c-5.6,3.8-11.9,6.2-18.3,8.6c-0.3,0.1-0.7,0.2-1,0.2
          c-3.4-2.2-6.7-2.7-9.8-2.1c-5.6,0.2-10.8,3.3-13.6,8.6c-0.6,1.1-1.8,1.7-3,1.6c-0.2,0-0.5,0-0.7,0c-0.4-0.1-0.9-0.1-1.2-0.1
          c-13.7,1.1-16.4,6.7-17,9.1c-0.2,0.7-0.6,1.3-1.3,1.6c-29.5,12.4-50.3,3.1-57.2-1c0,0-0.1-0.1-0.2-0.1c-0.9-0.5-1.9,0.3-1.6,1.3
          c6.6,16.7,40.4,18,49.8,18c0.4,0,0.8,0,1.1,0c0.7,0,1.3,0.7,1,1.4c-2.4,7-5.3,11.5-7.1,14c-0.9,1.2-1.6,2.6-2.1,4.1l-0.2,0.6
          c-0.8,2.6-0.8,5.3,0.1,7.9v0c0.2,0.6,0.2,1.3,0.1,1.9c-0.1,0.4-0.2,0.6-0.2,0.9c0,0-0.1,0.6,0,1.4c1.8,10.8,7.7,13.1,7.7,13.1
          s1,0.6,4.9,0.4c9.2-0.4,24.7-2.6,28.5-2.9c0.4,0,0.8,0,1.2,0.1l0.2,0.1c0.3,0.1,0.6,0.2,0.8,0.3c13.3,6.9,33.1,28.4,40.2,40.8
          c0.4,0.8,0.8,1.5,1.2,2.2c3.3,6.4,6.9,11.1,12.6,15.3c0.6,0.5,2.4,1.8,5.4,3.5c3.7,2.1,6.7,3.3,9.1,4.3c6.5,2.6,11.8,4,15.7,4.9
          c1.7,0.4,2.8,0.7,3.5,0.8c3,0.6,5.7,1,9.2,1.5c12.9,1.7,18.8,1,21.2,5.1c0.2,0.2,0.6,1.8,0.8,2.3c0,0.1,0,0.1,0.1,0.2
          c3.2,9.2,5.2,10.3,6.6,14.5c0.7,2,1.7,3.1,3.5,3.6c2.8,0.8,5.4,2.4,6.5,5.5c2.7,7.1,7.8,12.6,14.4,14.5c7.3,2,10.7,1.4,15.1-4.7
          c1.6-2.3,1.7-4.4,0.4-6.8c-2.6-4.6-6.5-6.9-11.3-7.5c-2.3-0.3-4.5-1.4-4.8-3.8c-0.5-3.9-2.5-6.2-4.9-8.6c-2.3-2.4-1.8-5.7,0.8-7.3
          c0.7-0.4,8.5-6.6,11.7-8.2c1.1-0.6,7.9-2.9,8.1-7.7c-1-11.3,0.9-19.4,1.7-19.3c0.5,0-0.4,3.8,1.1,10.8c0.1,0.4,0.2,0.7,0.3,1
          c0,0,0,0,0,0c1.4,8.2,11.1,21,15.9,26.4c0.2,0.3,0.4,0.6,0.5,0.9c1,2.5,2.2,4.9,3.8,7.1c0.6,0.9,1.3,2.5,1.5,3.5
          c1.5,9.1,5.9,17.1,6.8,26.4c0.3,3.5,1.1,7.8,0.7,9.4c-0.1,0.4-0.2,0.7-0.2,1.1c0.2,2.5,1,8.1,2,8.5c1,0.5,5.8,1.5,7.9-0.9
          c0.2-0.2,0.3-0.5,0.3-0.7c0.4-4,2-2.3,2.9-1.2c0.3,0.3,0.7,0.4,1,0.3c2-0.7,2.9-1.6,4.1-3c0.1-0.2,0.3-0.4,0.3-0.6
          c0.6-3.4,0.8-6.8-0.8-10c-1.4-2.8-3.1-5.4-5-7.8c-4.5-5.8-7-12.5-5.2-20.7c0.8-3.6,0-6.9-2-9.7c-1.4-1.9-1.6-3.7-1-6.3
          c1.5-7.8,2-15.8,1.2-23.8c-0.1-1.2-0.8-2.6,0.3-3.5c1-0.9,2.1-0.1,3.1,0.4c4.8,2.4,9.4,1.7,13.9-1.2c1-0.7,2-1.3,3.3-1.3
          c5.2,0,7.6-3.4,7.9-5.6C988.1,157.7,988,155.9,987.2,154.8z" />
        </g>
    </g>
</svg>