<?xml version="1.0" encoding="UTF-8" standalone="no"?>
<svg width="240px" height="76px" viewBox="0 0 240 76" version="1.1" xmlns="http://www.w3.org/2000/svg"
     xmlns:xlink="http://www.w3.org/1999/xlink" xmlns:sketch="http://www.bohemiancoding.com/sketch/ns">
    <!-- Generator: Sketch 3.4.4 (17249) - http://www.bohemiancoding.com/sketch -->
    <title>Iconography - Other Guidelines - Consistency - Dont</title>
    <desc>Created with Sketch.</desc>
    <defs></defs>
    <g id="Images" stroke="none" stroke-width="1" fill="none" fill-rule="evenodd" sketch:type="MSPage">
        <g id="Iconography---Other-Guidelines---Consistency---Dont" sketch:type="MSArtboardGroup">
            <g id="Group" sketch:type="MSLayerGroup" transform="translate(15.000000, 24.000000)">
                <path
                    d="M150.740234,8.61694364 L148.619141,10.7380374 L152.861328,14.9802249 L148.619141,19.2224124 L150.740234,21.3435061 L154.982422,17.1013186 L159.224609,21.3435061 L161.345703,19.2224124 L157.103516,14.9802249 L161.345703,10.7380374 L159.224609,8.61694364 L154.982422,12.8591311 L150.740234,8.61694364 L150.740234,8.61694364 Z M144.376953,4.37475614 C138.541016,10.2106936 138.541016,19.7556155 144.376953,25.5856936 C150.212891,31.4157718 159.757812,31.4216311 165.587891,25.5856936 C171.417969,19.7497561 171.423828,10.2048343 165.587891,4.37475614 C159.751953,-1.45532199 150.207031,-1.46118136 144.376953,4.37475614 L144.376953,4.37475614 Z M163.466797,23.4645999 C158.796875,28.1345218 151.162109,28.1345218 146.498047,23.4645999 C141.833984,18.794678 141.828125,11.1599124 146.498047,6.49584989 C151.167969,1.83178739 158.802734,1.82592801 163.466797,6.49584989 C168.130859,11.1657718 168.136719,18.8005374 163.466797,23.4645999 L163.466797,23.4645999 Z"
                    id="Shape" fill="#474747" sketch:type="MSShapeGroup"></path>
                <path
                    d="M76.9941634,18.42607 L73.463035,16.9669261 C73.57393,16.3249027 73.6439689,15.6653696 73.6439689,14.9941634 C73.6439689,14.3229572 73.57393,13.6634241 73.463035,13.0214008 L76.9649805,11.57393 C76.8015564,10.733463 76.5505837,9.91634241 76.2178988,9.10505837 C75.885214,8.29961089 75.4766537,7.55252918 75.0272374,6.8229572 L75.0272374,6.8229572 L71.4961089,8.28210117 C70.7315175,7.20233463 69.7859922,6.25680934 68.7062257,5.4922179 L70.1653696,1.96692607 C68.7120623,1.05058366 67.1070039,0.379377432 65.42607,0 L63.9669261,3.52529183 C63.3249027,3.41439689 62.6653696,3.34435798 61.9941634,3.34435798 C61.3229572,3.34435798 60.6634241,3.41439689 60.0214008,3.52529183 L58.5622568,0 C57.7217899,0.192607004 56.9105058,0.437743191 56.1050584,0.770428016 C55.2937743,1.10894942 54.540856,1.51167315 53.8229572,1.96692607 L55.2821012,5.48638132 C54.2023346,6.25097276 53.2568093,7.19649805 52.4922179,8.27626459 L48.9669261,6.81712062 C48.0505837,8.27626459 47.3968872,9.87548638 47,11.5564202 L50.5311284,13.0155642 C50.4202335,13.6575875 50.3501946,14.3171206 50.3501946,14.9883268 C50.3501946,15.6653696 50.4202335,16.3190661 50.5311284,16.9610895 L47.0175097,18.4202335 C47.1984436,19.2548638 47.4435798,20.077821 47.7762646,20.8832685 C48.1089494,21.6945525 48.5291829,22.4416342 48.9494163,23.1712062 L48.9494163,23.1712062 L52.4922179,21.7003891 C53.2568093,22.7801556 54.2023346,23.7256809 55.2821012,24.4902724 L53.8229572,28.0155642 C55.2762646,28.92607 56.8871595,29.5972763 58.5622568,29.9766537 L60.0214008,26.4513619 C60.6634241,26.5622568 61.3229572,26.6322957 61.9941634,26.6322957 C62.6653696,26.6322957 63.3249027,26.5622568 63.9669261,26.4513619 L65.42607,29.9824903 L65.42607,29.9824903 C66.2548638,29.7782101 67.0719844,29.5389105 67.8832685,29.2062257 C68.7003891,28.8735409 69.4533074,28.459144 70.1653696,28.0097276 L68.7062257,24.4902724 C69.7859922,23.7256809 70.7315175,22.7801556 71.4961089,21.7003891 L75.0214008,23.1595331 C75.9494163,21.7062257 76.5972763,20.1070039 76.9941634,18.42607 L76.9941634,18.42607 Z M69.4883268,10.1264591 C74.233463,18.6303502 65.5252918,27.3385214 57.0214008,22.5933852 C55.9241245,21.9805447 55.0019455,21.0583658 54.3891051,19.9610895 C49.6439689,11.4571984 58.3521401,2.74902724 66.8618677,7.49416342 C67.959144,8.11284047 68.8754864,9.02918288 69.4883268,10.1264591 L69.4883268,10.1264591 Z"
                    id="Shape" fill="#474747" sketch:type="MSShapeGroup"></path>
                <g transform="translate(0.000000, 3.000000)" id="Rectangle-path" fill="#474747"
                   sketch:type="MSShapeGroup">
                    <rect x="7.47070312" y="0" width="22.5292969" height="3.72670807"></rect>
                    <rect x="0" y="0" width="3.75" height="3.72670807"></rect>
                    <rect x="7.47070312" y="22.3602484" width="22.5292969" height="3.72670807"></rect>
                    <rect x="0" y="22.3602484" width="3.75" height="3.72670807"></rect>
                    <rect x="7.47070312" y="11.1801242" width="22.5292969" height="3.72670807"></rect>
                    <rect x="0" y="11.1801242" width="3.75" height="3.72670807"></rect>
                </g>
                <g id="Shape-+-Shape" transform="translate(94.000000, 0.000000)" fill="#474747"
                   sketch:type="MSShapeGroup">
                    <path
                        d="M4.16242661,4.265625 C2.01369863,6.41015625 0.804305284,8.57226563 0,11.25 L4.02739726,11.25 C4.56164384,9.64453125 5.50684932,8.28515625 6.84540117,6.94335938 C11.2778865,2.51953125 18.851272,2.84765625 23.2837573,7.265625 L18.9041096,11.25 L29.9706458,11.25 L30,0.568359375 L25.9726027,4.58789063 C20.0606654,-1.30664062 10.0684932,-1.63476562 4.16242661,4.265625 L4.16242661,4.265625 Z"
                        id="Shape"></path>
                    <path
                        d="M25.8375734,25.734375 C27.9863014,23.5898438 29.1956947,21.4277344 30,18.75 L25.9726027,18.75 C25.4383562,20.3554688 24.4931507,21.7148438 23.1545988,23.0566406 C18.7221135,27.4804688 11.148728,27.1523438 6.71624266,22.734375 L11.0958904,18.75 L0.0293542074,18.75 L0,29.4316406 L4.02739726,25.4121094 C9.93933464,31.3066406 19.9315068,31.6347656 25.8375734,25.734375 L25.8375734,25.734375 Z"
                        id="Shape"></path>
                </g>
                <g id="bhi_nps" transform="translate(185.000000, 2.000000)" fill="#010101" sketch:type="MSShapeGroup">
                    <g id="Layer_1">
                        <path
                            d="M16.8691406,20.8769531 C16.8691406,20.8769531 16.5117187,20.15625 16.3886719,19.7988281 L16.03125,18.9609375 L21.65625,16.5703125 L14.4785156,5.68359375 L1.1953125,19.0839844 L0,20.2792969 L1.43554688,22.1953125 L2.98828125,24.46875 L4.18359375,23.9882813 L7.41210937,22.6699219 L7.76953125,23.390625 C8.00976562,23.9882813 8.25,24.46875 8.25,24.46875 L16.8691406,20.8769531 L16.8691406,20.8769531 Z M15.1933594,20.4023438 L15.1933594,20.4023438 L8.97070313,23.0332031 L8.97070313,23.0332031 C8.85351563,23.0332031 8.85351563,23.0332031 8.73046875,22.9160156 L8.37304688,22.1953125 L14.8359375,19.4414063 L15.1933594,20.2792969 L15.1933594,20.4023438 L15.1933594,20.4023438 Z M14.1152344,8.4375 L19.1425781,15.8554688 L14.953125,17.6484375 L8.1328125,20.5195313 L8.1328125,20.5195313 L4.54101562,21.9550781 L3.8203125,22.3125 L2.38476562,20.15625 L14.1152344,8.4375 L14.1152344,8.4375 Z"
                            id="Shape"></path>
                        <path
                            d="M19.2156498,0.658302539 L20.1103857,0.0568166016 L29.9891385,14.7518818 L29.0944025,15.3533678 L19.2156498,0.658302539 L19.2156498,0.658302539 Z"
                            id="Rectangle-path"></path>
                        <path
                            d="M18.7465477,4.77726211 L19.6412836,4.17577617 L25.7836318,13.3127807 L24.8888959,13.9142666 L18.7465477,4.77726211 L18.7465477,4.77726211 Z"
                            id="Rectangle-path"></path>
                        <path
                            d="M18.4541291,9.38798027 L19.348865,8.78649434 L21.6861609,12.2633215 L20.791425,12.8648074 L18.4541291,9.38798027 L18.4541291,9.38798027 Z"
                            id="Rectangle-path"></path>
                    </g>
                </g>
            </g>
        </g>
    </g>
</svg>
