<?xml version="1.0" encoding="UTF-8" standalone="no"?>
<svg width="240px" height="76px" viewBox="0 0 240 76" version="1.1" xmlns="http://www.w3.org/2000/svg"
     xmlns:xlink="http://www.w3.org/1999/xlink" xmlns:sketch="http://www.bohemiancoding.com/sketch/ns">
    <!-- Generator: Sketch 3.4.4 (17249) - http://www.bohemiancoding.com/sketch -->
    <title>Iconography - Other Guidelines - Consistency - Do</title>
    <desc>Created with Sketch.</desc>
    <defs></defs>
    <g id="Images" stroke="none" stroke-width="1" fill="none" fill-rule="evenodd" sketch:type="MSPage">
        <g id="Iconography---Other-Guidelines---Consistency---Do" sketch:type="MSArtboardGroup">
            <g id="Group" sketch:type="MSLayerGroup" transform="translate(13.000000, 22.000000)">
                <path
                    d="M144.740234,10.6169436 L142.619141,12.7380374 L146.861328,16.9802249 L142.619141,21.2224124 L144.740234,23.3435061 L148.982422,19.1013186 L153.224609,23.3435061 L155.345703,21.2224124 L151.103516,16.9802249 L155.345703,12.7380374 L153.224609,10.6169436 L148.982422,14.8591311 L144.740234,10.6169436 L144.740234,10.6169436 Z M138.376953,6.37475614 C132.541016,12.2106936 132.541016,21.7556155 138.376953,27.5856936 C144.212891,33.4157718 153.757812,33.4216311 159.587891,27.5856936 C165.417969,21.7497561 165.423828,12.2048343 159.587891,6.37475614 C153.751953,0.54467801 144.207031,0.538818635 138.376953,6.37475614 L138.376953,6.37475614 Z M157.466797,25.4645999 C152.796875,30.1345218 145.162109,30.1345218 140.498047,25.4645999 C135.833984,20.794678 135.828125,13.1599124 140.498047,8.49584989 C145.167969,3.83178739 152.802734,3.82592801 157.466797,8.49584989 C162.130859,13.1657718 162.136719,20.8005374 157.466797,25.4645999 L157.466797,25.4645999 Z"
                    id="Shape" fill="#474747" sketch:type="MSShapeGroup"></path>
                <path
                    d="M74.9941634,20.42607 L71.463035,18.9669261 C71.57393,18.3249027 71.6439689,17.6653696 71.6439689,16.9941634 C71.6439689,16.3229572 71.57393,15.6634241 71.463035,15.0214008 L74.9649805,13.57393 C74.8015564,12.733463 74.5505837,11.9163424 74.2178988,11.1050584 C73.885214,10.2996109 73.4766537,9.55252918 73.0272374,8.8229572 L73.0272374,8.8229572 L69.4961089,10.2821012 C68.7315175,9.20233463 67.7859922,8.25680934 66.7062257,7.4922179 L68.1653696,3.96692607 C66.7120623,3.05058366 65.1070039,2.37937743 63.42607,2 L61.9669261,5.52529183 C61.3249027,5.41439689 60.6653696,5.34435798 59.9941634,5.34435798 C59.3229572,5.34435798 58.6634241,5.41439689 58.0214008,5.52529183 L56.5622568,2 C55.7217899,2.192607 54.9105058,2.43774319 54.1050584,2.77042802 C53.2937743,3.10894942 52.540856,3.51167315 51.8229572,3.96692607 L53.2821012,7.48638132 C52.2023346,8.25097276 51.2568093,9.19649805 50.4922179,10.2762646 L46.9669261,8.81712062 C46.0505837,10.2762646 45.3968872,11.8754864 45,13.5564202 L48.5311284,15.0155642 C48.4202335,15.6575875 48.3501946,16.3171206 48.3501946,16.9883268 C48.3501946,17.6653696 48.4202335,18.3190661 48.5311284,18.9610895 L45.0175097,20.4202335 C45.1984436,21.2548638 45.4435798,22.077821 45.7762646,22.8832685 C46.1089494,23.6945525 46.5291829,24.4416342 46.9494163,25.1712062 L46.9494163,25.1712062 L50.4922179,23.7003891 C51.2568093,24.7801556 52.2023346,25.7256809 53.2821012,26.4902724 L51.8229572,30.0155642 C53.2762646,30.92607 54.8871595,31.5972763 56.5622568,31.9766537 L58.0214008,28.4513619 C58.6634241,28.5622568 59.3229572,28.6322957 59.9941634,28.6322957 C60.6653696,28.6322957 61.3249027,28.5622568 61.9669261,28.4513619 L63.42607,31.9824903 L63.42607,31.9824903 C64.2548638,31.7782101 65.0719844,31.5389105 65.8832685,31.2062257 C66.7003891,30.8735409 67.4533074,30.459144 68.1653696,30.0097276 L66.7062257,26.4902724 C67.7859922,25.7256809 68.7315175,24.7801556 69.4961089,23.7003891 L73.0214008,25.1595331 C73.9494163,23.7062257 74.5972763,22.1070039 74.9941634,20.42607 L74.9941634,20.42607 Z M67.4883268,12.1264591 C72.233463,20.6303502 63.5252918,29.3385214 55.0214008,24.5933852 C53.9241245,23.9805447 53.0019455,23.0583658 52.3891051,21.9610895 C47.6439689,13.4571984 56.3521401,4.74902724 64.8618677,9.49416342 C65.959144,10.1128405 66.8754864,11.0291829 67.4883268,12.1264591 L67.4883268,12.1264591 Z"
                    id="Shape" fill="#474747" sketch:type="MSShapeGroup"></path>
                <g transform="translate(0.000000, 6.000000)" id="Rectangle-path" fill="#474747"
                   sketch:type="MSShapeGroup">
                    <rect x="6.72363281" y="0" width="20.2763672" height="3.35403727"></rect>
                    <rect x="0" y="0" width="3.375" height="3.35403727"></rect>
                    <rect x="6.72363281" y="20.1242236" width="20.2763672" height="3.35403727"></rect>
                    <rect x="0" y="20.1242236" width="3.375" height="3.35403727"></rect>
                    <rect x="6.72363281" y="10.0621118" width="20.2763672" height="3.35403727"></rect>
                    <rect x="0" y="10.0621118" width="3.375" height="3.35403727"></rect>
                </g>
                <g id="Shape-+-Shape" transform="translate(92.000000, 3.000000)" fill="#474747"
                   sketch:type="MSShapeGroup">
                    <path
                        d="M3.88493151,3.98125 C1.87945205,5.9828125 0.750684932,8.00078125 0,10.5 L3.75890411,10.5 C4.25753425,9.0015625 5.13972603,7.7328125 6.3890411,6.48046875 C10.5260274,2.3515625 17.5945205,2.6578125 21.7315068,6.78125 L17.6438356,10.5 L27.9726027,10.5 L28,0.53046875 L24.2410959,4.28203125 C18.7232877,-1.21953125 9.39726027,-1.52578125 3.88493151,3.98125 L3.88493151,3.98125 Z"
                        id="Shape"></path>
                    <path
                        d="M24.1150685,24.01875 C26.1205479,22.0171875 27.2493151,19.9992187 28,17.5 L24.2410959,17.5 C23.7424658,18.9984375 22.860274,20.2671875 21.6109589,21.5195312 C17.4739726,25.6484375 10.4054795,25.3421875 6.26849315,21.21875 L10.3561644,17.5 L0.0273972603,17.5 L0,27.4695312 L3.75890411,23.7179687 C9.27671233,29.2195312 18.6027397,29.5257812 24.1150685,24.01875 L24.1150685,24.01875 Z"
                        id="Shape"></path>
                </g>
                <g id="bhi_nps-copy" transform="translate(177.000000, 0.000000)" fill="#010101"
                   sketch:type="MSShapeGroup">
                    <g id="Layer_1">
                        <path
                            d="M20.8052734,25.7482422 C20.8052734,25.7482422 20.3644531,24.859375 20.2126953,24.4185547 L19.771875,23.3851563 L26.709375,20.4367188 L17.8568359,7.00976562 L1.47421875,23.5369141 L0,25.0111328 L1.77050781,27.3742188 L3.68554688,30.178125 L5.15976563,29.5855469 L9.14160156,27.9595703 L9.58242187,28.8484375 C9.87871094,29.5855469 10.175,30.178125 10.175,30.178125 L20.8052734,25.7482422 L20.8052734,25.7482422 Z M18.7384766,25.1628906 L18.7384766,25.1628906 L11.0638672,28.4076172 L11.0638672,28.4076172 C10.9193359,28.4076172 10.9193359,28.4076172 10.7675781,28.2630859 L10.3267578,27.3742187 L18.2976563,23.9777344 L18.7384766,25.0111328 L18.7384766,25.1628906 L18.7384766,25.1628906 Z M17.4087891,10.40625 L23.6091797,19.5550781 L18.4421875,21.7664063 L10.0304687,25.3074219 L10.0304687,25.3074219 L5.60058594,27.0779297 L4.71171875,27.51875 L2.94121094,24.859375 L17.4087891,10.40625 L17.4087891,10.40625 Z"
                            id="Shape"></path>
                        <path
                            d="M23.6993014,0.811906465 L24.8028091,0.0700738086 L36.9866041,18.1939876 L35.8830965,18.9358203 L23.6993014,0.811906465 L23.6993014,0.811906465 Z"
                            id="Rectangle-path"></path>
                        <path
                            d="M23.1207421,5.8919566 L24.2242498,5.15012395 L31.7998126,16.4190962 L30.6963049,17.1609288 L23.1207421,5.8919566 L23.1207421,5.8919566 Z"
                            id="Rectangle-path"></path>
                        <path
                            d="M22.7600926,11.578509 L23.8636002,10.8366763 L26.7462652,15.1247632 L25.6427575,15.8665958 L22.7600926,11.578509 L22.7600926,11.578509 Z"
                            id="Rectangle-path"></path>
                    </g>
                </g>
            </g>
        </g>
    </g>
</svg>
