<?xml version="1.0" encoding="utf-8"?>
<!-- Generator: Adobe Illustrator 19.2.1, SVG Export Plug-In . SVG Version: 6.00 Build 0)  -->
<svg
    version="1.1"
    id="Layer_1"
    xmlns="http://www.w3.org/2000/svg"
    xmlns:xlink="http://www.w3.org/1999/xlink"
    x="0px"
    y="0px"
    viewBox="0 0 544 311"
    style="enable-background:new 0 0 544 311;"
    xml:space="preserve">
    <style type="text/css">
        .st0 {
            fill: #C4CDD3;
        }
        .st1 {
            fill: #F4F4F4;
        }
        .st2 {
            fill: #181D2C;
        }
        .st3 {
            fill: #CCCCCC;
        }
        .st4 {
            fill: #3399DD;
        }
        .st5 {
            fill: #44BB77;
        }
        .st6 {
            fill: #AA6699;
        }
        .st7 {
            fill: #662255;
        }
        .st8 {
            fill: #FFAA44;
        }
        .st9 {
            fill: #0B344F;
        }
        .st10 {
            fill: #BB5566;
        }
        .st11 {
            fill: #FFFFFF;
        }
        .st12 {
            fill: #2F384F;
        }
    </style>
    <g>
        <g>
            <g id="Bowling-Alley-BG_1_">
                <rect y="27.1" class="st0" width="544" height="284.2"/>
            </g>
            <g>
                <g id="Bowling-Alley-BG">
                    <rect y="26.4" class="st1" width="97.3" height="284.9"/>
                </g>
                <g id="BG_1_">
                    <rect y="25.4" class="st2" width="97.3" height="26.2"/>
                </g>
            </g>
            <g>
                <g id="BG_2_">
                    <rect x="97.4" y="25.4" class="st2" width="207.4" height="284.6"/>
                </g>
                <g id="Rectangle-228">
                    <rect x="250.7" y="32.5" class="st3" width="47.5" height="7"></rect>
                </g>
                <g id="Rectangle-228-Copy">
                    <rect x="193" y="32.5" class="st3" width="47.5" height="7"></rect>
                </g>
                <g id="Rectangle-219">
                    <path class="st4" d="M127.6,77.4h17c2.8,0,5,2.2,5,5v17c0,2.8-2.2,5-5,5h-17c-2.8,0-5-2.2-5-5v-17
					C122.6,79.6,124.9,77.4,127.6,77.4z"/>
                </g>
                <g id="Rectangle-219-Copy-3">
                    <path class="st5" d="M127.6,143.3h17c2.8,0,5,2.2,5,5v17c0,2.8-2.2,5-5,5h-17c-2.8,0-5-2.2-5-5v-17
					C122.6,145.5,124.9,143.3,127.6,143.3z"/>
                </g>
                <g id="Rectangle-219-Copy">
                    <path class="st6" d="M189,77.4h17c2.8,0,5,2.2,5,5v17c0,2.8-2.2,5-5,5h-17c-2.8,0-5-2.2-5-5v-17
					C184,79.6,186.3,77.4,189,77.4z"/>
                </g>
                <g id="Rectangle-219-Copy-4">
                    <path class="st7" d="M189,143.3h17c2.8,0,5,2.2,5,5v17c0,2.8-2.2,5-5,5h-17c-2.8,0-5-2.2-5-5v-17
					C184,145.5,186.3,143.3,189,143.3z"/>
                </g>
                <g id="Rectangle-219-Copy-2">
                    <path class="st8" d="M250.4,77.4h17c2.8,0,5,2.2,5,5v17c0,2.8-2.2,5-5,5h-17c-2.8,0-5-2.2-5-5v-17
					C245.4,79.6,247.7,77.4,250.4,77.4z"/>
                </g>
                <g id="Rectangle-219-Copy-5">
                    <path class="st9" d="M250.4,143.3h17c2.8,0,5,2.2,5,5v17c0,2.8-2.2,5-5,5h-17c-2.8,0-5-2.2-5-5v-17
					C245.4,145.5,247.7,143.3,250.4,143.3z"/>
                </g>
                <g id="Rectangle-219-Copy-8">
                    <path class="st10" d="M127.6,209.2h17c2.8,0,5,2.2,5,5v17c0,2.8-2.2,5-5,5h-17c-2.8,0-5-2.2-5-5v-17
					C122.6,211.4,124.9,209.2,127.6,209.2z"/>
                </g>
                <g id="Rectangle-219-Copy-7">
                    <path class="st11" d="M206,237.2h-17c-3.3,0-6-2.7-6-6v-17c0-3.3,2.7-6,6-6h17c3.3,0,6,2.7,6,6v17
					C212,234.5,209.3,237.2,206,237.2z M189,210.2c-2.2,0-4,1.8-4,4v17c0,2.2,1.8,4,4,4h17c2.2,0,4-1.8,4-4v-17c0-2.2-1.8-4-4-4H189
					z"/>
                </g>
                <g id="Rectangle-219-Copy-6">
                    <path class="st11" d="M267.4,237.2h-17c-3.3,0-6-2.7-6-6v-17c0-3.3,2.7-6,6-6h17c3.3,0,6,2.7,6,6v17
					C273.4,234.5,270.7,237.2,267.4,237.2z M250.4,210.2c-2.2,0-4,1.8-4,4v17c0,2.2,1.8,4,4,4h17c2.2,0,4-1.8,4-4v-17
					c0-2.2-1.8-4-4-4H250.4z"/>
                </g>
            </g>
        </g>
        <g id="BG">
            <rect y="-0.3" class="st12" width="544" height="27.4"/>
        </g>
    </g>
</svg>
